{"glyphs":{"0":{"ha":1004,"x_min":63,"x_max":942,"o":"m 503 -22 q 267 40 367 -22 q 115 217 168 101 q 63 492 63 332 q 116 767 63 651 q 268 946 169 883 q 503 1008 367 1008 q 737 946 639 1008 q 888 767 835 883 q 942 492 942 651 q 889 218 942 333 q 738 40 836 103 q 503 -22 639 -22 m 503 196 q 622 268 581 196 q 663 492 663 340 q 503 790 663 790 q 342 492 342 790 q 383 268 342 340 q 503 196 424 196 z "},"1":{"ha":683,"x_min":50,"x_max":542,"o":"m 269 0 l 269 594 l 50 594 l 50 783 l 136 783 q 281 828 236 783 q 325 986 325 872 l 542 986 l 542 0 l 269 0 z "},"2":{"ha":939,"x_min":78,"x_max":863,"o":"m 79 0 q 114 240 79 142 q 222 410 149 339 q 411 542 296 482 q 516 601 478 576 q 569 648 554 625 q 585 700 585 671 q 558 765 585 740 q 483 790 532 790 q 356 643 368 790 l 78 658 q 194 917 89 825 q 481 1008 300 1008 q 763 924 663 1008 q 863 703 863 840 q 836 573 863 625 q 754 478 810 521 q 611 389 699 436 q 453 289 503 331 q 400 218 404 247 l 863 218 l 863 0 l 79 0 z "},"3":{"ha":936,"x_min":56,"x_max":881,"o":"m 471 -22 q 169 66 275 -22 q 56 313 63 154 l 332 321 q 471 196 344 196 q 566 226 531 196 q 601 303 601 256 q 564 384 601 356 q 460 413 526 413 l 364 413 l 364 596 l 460 596 q 540 618 507 596 q 572 692 572 640 q 547 763 572 735 q 463 790 522 790 q 373 764 403 790 q 336 700 343 738 l 64 713 q 183 928 79 849 q 463 1008 288 1008 q 752 933 654 1008 q 850 725 850 857 q 805 597 850 651 q 678 517 760 543 q 881 278 881 463 q 772 58 881 139 q 471 -22 663 -22 z "},"4":{"ha":950,"x_min":28,"x_max":894,"o":"m 511 0 l 511 171 l 28 171 l 28 378 l 450 986 l 783 986 l 783 389 l 894 389 l 894 171 l 783 171 l 783 0 l 511 0 m 304 389 l 511 389 l 511 675 l 304 389 z "},"5":{"ha":974,"x_min":74,"x_max":900,"o":"m 483 -22 q 186 60 286 -22 q 74 283 86 143 l 347 294 q 483 197 372 197 q 586 233 550 197 q 622 336 622 269 q 585 436 622 397 q 483 475 547 475 q 395 451 429 475 q 347 394 361 426 l 81 394 l 151 986 l 832 986 l 832 768 l 378 768 l 354 586 q 444 638 390 618 q 569 658 497 658 q 747 616 674 658 q 860 501 821 574 q 900 336 900 428 q 849 143 900 224 q 705 20 799 63 q 483 -22 611 -22 z "},"6":{"ha":951,"x_min":74,"x_max":878,"o":"m 481 -22 q 174 103 274 -22 q 74 446 74 228 q 124 740 74 613 q 271 938 174 867 q 510 1008 368 1008 q 753 935 661 1008 q 872 733 846 863 l 631 717 q 588 776 614 756 q 508 796 561 796 q 392 740 436 796 q 333 561 347 683 q 415 615 364 593 q 539 636 465 636 q 718 597 642 636 q 836 488 794 558 q 878 322 878 417 q 828 134 878 211 q 689 17 778 57 q 481 -22 600 -22 m 476 181 q 574 219 538 181 q 611 319 611 257 q 575 421 611 381 q 479 461 539 461 q 378 422 417 461 q 340 319 340 382 q 378 219 340 257 q 476 181 415 181 z "},"7":{"ha":775,"x_min":28,"x_max":775,"o":"m 215 0 q 297 423 215 229 q 504 768 378 617 l 28 768 l 28 986 l 775 986 l 775 782 q 621 570 685 682 q 524 319 557 458 q 490 0 490 181 l 215 0 z "},"8":{"ha":986,"x_min":46,"x_max":940,"o":"m 493 -22 q 165 51 285 -22 q 46 267 46 124 q 101 432 46 364 q 253 529 156 500 q 136 610 178 556 q 94 738 94 665 q 195 935 94 861 q 493 1008 296 1008 q 792 935 692 1008 q 892 738 892 861 q 849 610 892 664 q 731 529 807 556 q 884 433 828 500 q 940 267 940 365 q 822 51 940 124 q 493 -22 703 -22 m 493 611 q 583 633 550 611 q 617 700 617 654 q 585 767 617 742 q 493 792 554 792 q 401 767 433 792 q 369 700 369 742 q 403 633 369 654 q 493 611 436 611 m 493 197 q 615 230 568 197 q 661 315 661 263 q 615 405 661 371 q 493 439 568 439 q 372 405 418 439 q 325 315 325 371 q 372 230 325 263 q 493 197 418 197 z "},"9":{"ha":961,"x_min":74,"x_max":888,"o":"m 461 -22 q 224 42 314 -22 q 94 243 135 107 l 347 257 q 461 190 375 190 q 582 240 543 190 q 626 408 621 290 q 403 325 556 325 q 230 365 304 325 q 115 478 156 406 q 74 647 74 550 q 121 839 74 758 q 256 964 168 919 q 461 1008 343 1008 q 888 511 888 1008 q 778 113 888 247 q 461 -22 669 -22 m 474 500 q 569 541 535 500 q 604 653 604 582 q 570 766 604 726 q 474 806 536 806 q 378 766 414 806 q 343 653 343 726 q 378 541 343 582 q 474 500 414 500 z "},"A":{"ha":1071,"x_min":25,"x_max":1046,"o":"m 25 0 l 381 986 l 690 986 l 1046 0 l 768 0 l 713 163 l 357 163 l 301 0 l 25 0 m 429 374 l 642 374 l 536 686 l 429 374 z "},"Á":{"ha":1071,"x_min":25,"x_max":1046,"o":"m 25 0 l 381 986 l 690 986 l 1046 0 l 768 0 l 713 163 l 357 163 l 301 0 l 25 0 m 429 374 l 642 374 l 536 686 l 429 374 m 413 1051 l 488 1274 l 738 1274 l 613 1051 l 413 1051 z "},"Ă":{"ha":1071,"x_min":25,"x_max":1046,"o":"m 25 0 l 381 986 l 690 986 l 1046 0 l 768 0 l 713 163 l 357 163 l 301 0 l 25 0 m 429 374 l 642 374 l 536 686 l 429 374 m 536 1047 q 369 1104 432 1047 q 303 1269 307 1161 l 450 1269 q 476 1201 454 1222 q 536 1181 499 1181 q 596 1201 574 1181 q 622 1269 618 1222 l 769 1269 q 703 1104 765 1161 q 536 1047 640 1047 z "},"Ǎ":{"ha":1071,"x_min":25,"x_max":1046,"o":"m 25 0 l 381 986 l 690 986 l 1046 0 l 768 0 l 713 163 l 357 163 l 301 0 l 25 0 m 429 374 l 642 374 l 536 686 l 429 374 m 274 1282 l 451 1282 l 536 1160 l 621 1282 l 799 1282 l 660 1051 l 413 1051 l 274 1282 z "},"Â":{"ha":1071,"x_min":25,"x_max":1046,"o":"m 25 0 l 381 986 l 690 986 l 1046 0 l 768 0 l 713 163 l 357 163 l 301 0 l 25 0 m 429 374 l 642 374 l 536 686 l 429 374 m 274 1051 l 413 1282 l 660 1282 l 799 1051 l 621 1051 l 536 1174 l 451 1051 l 274 1051 z "},"Ä":{"ha":1071,"x_min":25,"x_max":1046,"o":"m 25 0 l 381 986 l 690 986 l 1046 0 l 768 0 l 713 163 l 357 163 l 301 0 l 25 0 m 429 374 l 642 374 l 536 686 l 429 374 m 243 1056 l 243 1244 l 493 1244 l 493 1056 l 243 1056 m 579 1056 l 579 1244 l 829 1244 l 829 1056 l 579 1056 z "},"À":{"ha":1071,"x_min":25,"x_max":1046,"o":"m 25 0 l 381 986 l 690 986 l 1046 0 l 768 0 l 713 163 l 357 163 l 301 0 l 25 0 m 429 374 l 642 374 l 536 686 l 429 374 m 454 1061 l 329 1283 l 579 1283 l 654 1061 l 454 1061 z "},"Ā":{"ha":1071,"x_min":25,"x_max":1046,"o":"m 25 0 l 381 986 l 690 986 l 1046 0 l 768 0 l 713 163 l 357 163 l 301 0 l 25 0 m 429 374 l 642 374 l 536 686 l 429 374 m 314 1063 l 314 1250 l 758 1250 l 758 1063 l 314 1063 z "},"Ą":{"ha":1071,"x_min":25,"x_max":1099,"o":"m 25 0 l 381 986 l 690 986 l 1046 0 l 768 0 l 713 163 l 357 163 l 301 0 l 25 0 m 429 374 l 642 374 l 536 686 l 429 374 m 932 -308 q 801 -274 847 -308 q 756 -175 756 -239 q 775 -93 756 -131 q 818 -25 794 -56 l 868 39 l 1046 0 l 1008 -47 q 978 -91 992 -69 q 964 -131 964 -112 q 974 -156 964 -149 q 997 -164 985 -164 q 1031 -158 1014 -164 q 1057 -147 1049 -153 l 1099 -272 q 1030 -297 1078 -286 q 932 -308 982 -308 z "},"Å":{"ha":1083,"x_min":13,"x_max":1033,"o":"m 13 0 l 368 986 l 678 986 l 1033 0 l 756 0 l 700 163 l 344 163 l 289 0 l 13 0 m 417 374 l 629 374 l 524 686 l 417 374 m 535 1047 q 426 1090 471 1047 q 382 1197 382 1133 q 426 1305 382 1263 q 535 1347 471 1347 q 644 1305 600 1347 q 688 1197 688 1263 q 644 1090 688 1133 q 535 1047 600 1047 m 535 1150 q 569 1163 556 1150 q 582 1197 582 1176 q 569 1231 582 1218 q 535 1244 556 1244 q 501 1231 514 1244 q 488 1197 488 1218 q 501 1163 488 1176 q 535 1150 514 1150 z "},"Ã":{"ha":1083,"x_min":13,"x_max":1033,"o":"m 13 0 l 368 986 l 678 986 l 1033 0 l 756 0 l 700 163 l 344 163 l 289 0 l 13 0 m 417 374 l 629 374 l 524 686 l 417 374 m 608 1075 q 550 1083 574 1075 q 497 1117 526 1092 q 456 1135 475 1135 q 425 1121 439 1135 q 407 1068 411 1107 l 282 1068 q 325 1228 282 1167 q 450 1289 368 1289 q 511 1281 483 1289 q 568 1249 539 1272 q 611 1229 593 1229 q 643 1243 629 1229 q 658 1297 657 1257 l 783 1297 q 739 1135 783 1196 q 608 1075 694 1075 z "},"Æ":{"ha":1513,"x_min":25,"x_max":1460,"o":"m 25 0 l 553 986 l 1449 986 l 1449 768 l 1029 768 l 1029 603 l 1432 603 l 1432 386 l 1029 386 l 1029 218 l 1460 218 l 1460 0 l 757 0 l 757 164 l 390 164 l 306 0 l 25 0 m 757 769 l 704 769 l 499 372 l 757 372 l 757 769 z "},"B":{"ha":997,"x_min":86,"x_max":938,"o":"m 86 0 l 86 986 l 500 986 q 792 922 689 986 q 896 717 896 857 q 692 511 896 536 l 692 508 q 876 435 815 496 q 938 272 938 375 q 835 67 938 133 q 542 0 732 0 l 86 0 m 358 590 l 489 590 q 585 613 547 590 q 624 683 624 636 q 586 756 624 733 q 489 778 549 778 l 358 778 l 358 590 m 358 208 l 524 208 q 624 233 583 208 q 665 310 665 257 q 625 388 665 363 q 524 413 585 413 l 358 413 l 358 208 z "},"C":{"ha":1049,"x_min":56,"x_max":1000,"o":"m 532 -22 q 287 39 394 -22 q 117 215 179 100 q 56 492 56 329 q 114 763 56 647 q 281 944 172 879 q 538 1008 389 1008 q 853 910 740 1008 q 999 622 967 811 l 717 613 q 656 744 703 697 q 538 790 608 790 q 385 707 436 790 q 335 492 335 624 q 388 276 335 357 q 535 196 440 196 q 660 245 615 196 q 717 385 704 294 l 1000 375 q 851 80 968 182 q 532 -22 735 -22 z "},"Ć":{"ha":1049,"x_min":56,"x_max":1000,"o":"m 532 -22 q 287 39 394 -22 q 117 215 179 100 q 56 492 56 329 q 114 763 56 647 q 281 944 172 879 q 538 1008 389 1008 q 853 910 740 1008 q 999 622 967 811 l 717 613 q 656 744 703 697 q 538 790 608 790 q 385 707 436 790 q 335 492 335 624 q 388 276 335 357 q 535 196 440 196 q 660 245 615 196 q 717 385 704 294 l 1000 375 q 851 80 968 182 q 532 -22 735 -22 m 414 1051 l 489 1274 l 739 1274 l 614 1051 l 414 1051 z "},"Č":{"ha":1049,"x_min":56,"x_max":1000,"o":"m 532 -22 q 287 39 394 -22 q 117 215 179 100 q 56 492 56 329 q 114 763 56 647 q 281 944 172 879 q 538 1008 389 1008 q 853 910 740 1008 q 999 622 967 811 l 717 613 q 656 744 703 697 q 538 790 608 790 q 385 707 436 790 q 335 492 335 624 q 388 276 335 357 q 535 196 440 196 q 660 245 615 196 q 717 385 704 294 l 1000 375 q 851 80 968 182 q 532 -22 735 -22 m 275 1282 l 453 1282 l 538 1160 l 622 1282 l 800 1282 l 661 1051 l 414 1051 l 275 1282 z "},"Ç":{"ha":1049,"x_min":56,"x_max":1000,"o":"m 532 -22 q 287 39 394 -22 q 117 215 179 100 q 56 492 56 329 q 114 763 56 647 q 281 944 172 879 q 538 1008 389 1008 q 853 910 740 1008 q 999 622 967 811 l 717 613 q 656 744 703 697 q 538 790 608 790 q 385 707 436 790 q 335 492 335 624 q 388 276 335 357 q 535 196 440 196 q 660 245 615 196 q 717 385 704 294 l 1000 375 q 851 80 968 182 q 532 -22 735 -22 m 533 -333 q 413 -301 461 -333 q 344 -214 365 -268 l 450 -167 q 479 -203 461 -190 q 528 -217 497 -217 q 572 -204 556 -217 q 589 -169 589 -192 q 573 -133 589 -146 q 508 -119 557 -119 l 440 -58 l 481 14 l 621 14 l 589 -39 q 691 -86 660 -47 q 722 -175 722 -125 q 696 -267 722 -232 q 627 -317 669 -301 q 533 -333 585 -333 z "},"Ĉ":{"ha":1049,"x_min":56,"x_max":1000,"o":"m 532 -22 q 287 39 394 -22 q 117 215 179 100 q 56 492 56 329 q 114 763 56 647 q 281 944 172 879 q 538 1008 389 1008 q 853 910 740 1008 q 999 622 967 811 l 717 613 q 656 744 703 697 q 538 790 608 790 q 385 707 436 790 q 335 492 335 624 q 388 276 335 357 q 535 196 440 196 q 660 245 615 196 q 717 385 704 294 l 1000 375 q 851 80 968 182 q 532 -22 735 -22 m 275 1051 l 414 1282 l 661 1282 l 800 1051 l 622 1051 l 538 1174 l 453 1051 l 275 1051 z "},"Ċ":{"ha":1049,"x_min":56,"x_max":1000,"o":"m 532 -22 q 287 39 394 -22 q 117 215 179 100 q 56 492 56 329 q 114 763 56 647 q 281 944 172 879 q 538 1008 389 1008 q 853 910 740 1008 q 999 622 967 811 l 717 613 q 656 744 703 697 q 538 790 608 790 q 385 707 436 790 q 335 492 335 624 q 388 276 335 357 q 535 196 440 196 q 660 245 615 196 q 717 385 704 294 l 1000 375 q 851 80 968 182 q 532 -22 735 -22 m 399 1061 l 399 1250 l 676 1250 l 676 1061 l 399 1061 z "},"D":{"ha":1019,"x_min":86,"x_max":964,"o":"m 86 0 l 86 986 l 449 986 q 831 858 697 986 q 964 492 964 729 q 833 128 964 256 q 457 0 701 0 l 86 0 m 358 218 l 449 218 q 628 285 572 218 q 685 493 685 351 q 628 701 685 635 q 449 768 572 768 l 358 768 l 358 218 z "},"Ď":{"ha":1019,"x_min":86,"x_max":964,"o":"m 86 0 l 86 986 l 449 986 q 831 858 697 986 q 964 492 964 729 q 833 128 964 256 q 457 0 701 0 l 86 0 m 358 218 l 449 218 q 628 285 572 218 q 685 493 685 351 q 628 701 685 635 q 449 768 572 768 l 358 768 l 358 218 m 192 1282 l 369 1282 l 454 1160 l 539 1282 l 717 1282 l 578 1051 l 331 1051 l 192 1282 z "},"Đ":{"ha":1019,"x_min":1,"x_max":964,"o":"m 86 0 l 86 986 l 449 986 q 831 858 697 986 q 964 492 964 729 q 833 128 964 256 q 457 0 701 0 l 86 0 m 358 218 l 449 218 q 628 285 572 218 q 685 493 685 351 q 628 701 685 635 q 449 768 572 768 l 358 768 l 358 218 m 1 396 l 1 590 l 599 590 l 599 396 l 1 396 z "},"Ð":{"ha":1019,"x_min":1,"x_max":964,"o":"m 86 0 l 86 986 l 449 986 q 831 858 697 986 q 964 492 964 729 q 833 128 964 256 q 457 0 701 0 l 86 0 m 358 218 l 449 218 q 628 285 572 218 q 685 493 685 351 q 628 701 685 635 q 449 768 572 768 l 358 768 l 358 218 m 1 396 l 1 590 l 599 590 l 599 396 l 1 396 z "},"E":{"ha":881,"x_min":86,"x_max":828,"o":"m 86 0 l 86 986 l 817 986 l 817 768 l 358 768 l 358 603 l 800 603 l 800 386 l 358 386 l 358 218 l 828 218 l 828 0 l 86 0 z "},"É":{"ha":881,"x_min":86,"x_max":828,"o":"m 86 0 l 86 986 l 817 986 l 817 768 l 358 768 l 358 603 l 800 603 l 800 386 l 358 386 l 358 218 l 828 218 l 828 0 l 86 0 m 328 1051 l 403 1274 l 653 1274 l 528 1051 l 328 1051 z "},"Ě":{"ha":881,"x_min":86,"x_max":828,"o":"m 86 0 l 86 986 l 817 986 l 817 768 l 358 768 l 358 603 l 800 603 l 800 386 l 358 386 l 358 218 l 828 218 l 828 0 l 86 0 m 189 1282 l 367 1282 l 451 1160 l 536 1282 l 714 1282 l 575 1051 l 328 1051 l 189 1282 z "},"Ê":{"ha":881,"x_min":86,"x_max":828,"o":"m 86 0 l 86 986 l 817 986 l 817 768 l 358 768 l 358 603 l 800 603 l 800 386 l 358 386 l 358 218 l 828 218 l 828 0 l 86 0 m 189 1051 l 328 1282 l 575 1282 l 714 1051 l 536 1051 l 451 1174 l 367 1051 l 189 1051 z "},"Ë":{"ha":881,"x_min":86,"x_max":828,"o":"m 86 0 l 86 986 l 817 986 l 817 768 l 358 768 l 358 603 l 800 603 l 800 386 l 358 386 l 358 218 l 828 218 l 828 0 l 86 0 m 158 1056 l 158 1244 l 408 1244 l 408 1056 l 158 1056 m 494 1056 l 494 1244 l 744 1244 l 744 1056 l 494 1056 z "},"Ė":{"ha":881,"x_min":86,"x_max":828,"o":"m 86 0 l 86 986 l 817 986 l 817 768 l 358 768 l 358 603 l 800 603 l 800 386 l 358 386 l 358 218 l 828 218 l 828 0 l 86 0 m 313 1061 l 313 1250 l 590 1250 l 590 1061 l 313 1061 z "},"È":{"ha":881,"x_min":86,"x_max":828,"o":"m 86 0 l 86 986 l 817 986 l 817 768 l 358 768 l 358 603 l 800 603 l 800 386 l 358 386 l 358 218 l 828 218 l 828 0 l 86 0 m 369 1061 l 244 1283 l 494 1283 l 569 1061 l 369 1061 z "},"Ē":{"ha":881,"x_min":86,"x_max":828,"o":"m 86 0 l 86 986 l 817 986 l 817 768 l 358 768 l 358 603 l 800 603 l 800 386 l 358 386 l 358 218 l 828 218 l 828 0 l 86 0 m 229 1063 l 229 1250 l 674 1250 l 674 1063 l 229 1063 z "},"Ę":{"ha":881,"x_min":86,"x_max":881,"o":"m 86 0 l 86 986 l 817 986 l 817 768 l 358 768 l 358 603 l 800 603 l 800 386 l 358 386 l 358 218 l 828 218 l 828 0 l 86 0 m 714 -308 q 583 -274 629 -308 q 538 -175 538 -239 q 557 -93 538 -131 q 600 -25 576 -56 l 650 39 l 828 0 l 790 -47 q 760 -91 774 -69 q 746 -131 746 -112 q 756 -156 746 -149 q 779 -164 767 -164 q 813 -158 796 -164 q 839 -147 831 -153 l 881 -272 q 812 -297 860 -286 q 714 -308 764 -308 z "},"Ẽ":{"ha":881,"x_min":86,"x_max":828,"o":"m 86 0 l 86 986 l 817 986 l 817 768 l 358 768 l 358 603 l 800 603 l 800 386 l 358 386 l 358 218 l 828 218 l 828 0 l 86 0 m 526 1061 q 468 1069 492 1061 q 415 1103 444 1078 q 374 1121 393 1121 q 343 1107 357 1121 q 325 1054 329 1093 l 200 1054 q 243 1214 200 1153 q 368 1275 286 1275 q 429 1267 401 1275 q 486 1235 457 1258 q 529 1215 511 1215 q 561 1229 547 1215 q 576 1283 575 1243 l 701 1283 q 657 1122 701 1182 q 526 1061 613 1061 z "},"Ə":{"ha":1093,"x_min":56,"x_max":1038,"o":"m 1038 493 q 997 266 1038 363 q 886 106 956 169 q 727 10 817 42 q 539 -22 638 -22 q 354 10 442 -22 q 199 108 267 43 q 94 268 132 172 q 56 492 56 364 l 56 574 l 753 574 q 683 734 738 678 q 538 790 628 790 q 440 760 486 790 q 368 675 393 731 l 82 688 q 248 922 131 836 q 539 1008 365 1008 q 794 950 682 1008 q 972 777 907 892 q 1038 493 1038 663 m 543 196 q 751 376 718 196 l 347 376 q 417 235 367 275 q 543 196 467 196 z "},"F":{"ha":853,"x_min":86,"x_max":807,"o":"m 86 0 l 86 986 l 807 986 l 807 768 l 358 768 l 358 590 l 782 590 l 782 374 l 358 374 l 358 0 l 86 0 z "},"G":{"ha":1061,"x_min":56,"x_max":999,"o":"m 521 -22 q 272 42 376 -22 q 112 222 168 107 q 56 492 56 338 q 113 757 56 640 q 279 941 171 874 q 540 1008 388 1008 q 851 914 743 1008 q 996 649 960 819 l 714 638 q 661 751 701 711 q 543 790 621 790 q 389 708 443 790 q 335 492 335 626 q 387 277 335 358 q 549 196 439 196 q 671 234 625 196 q 726 342 717 272 l 542 342 l 542 522 l 999 522 l 999 0 l 840 0 l 832 126 q 710 17 793 57 q 521 -22 628 -22 z "},"Ğ":{"ha":1061,"x_min":56,"x_max":999,"o":"m 521 -22 q 272 42 376 -22 q 112 222 168 107 q 56 492 56 338 q 113 757 56 640 q 279 941 171 874 q 540 1008 388 1008 q 851 914 743 1008 q 996 649 960 819 l 714 638 q 661 751 701 711 q 543 790 621 790 q 389 708 443 790 q 335 492 335 626 q 387 277 335 358 q 549 196 439 196 q 671 234 625 196 q 726 342 717 272 l 542 342 l 542 522 l 999 522 l 999 0 l 840 0 l 832 126 q 710 17 793 57 q 521 -22 628 -22 m 543 1047 q 376 1104 439 1047 q 310 1269 314 1161 l 457 1269 q 483 1201 461 1222 q 543 1181 506 1181 q 603 1201 581 1181 q 629 1269 625 1222 l 776 1269 q 710 1104 772 1161 q 543 1047 647 1047 z "},"Ǧ":{"ha":1061,"x_min":56,"x_max":999,"o":"m 521 -22 q 272 42 376 -22 q 112 222 168 107 q 56 492 56 338 q 113 757 56 640 q 279 941 171 874 q 540 1008 388 1008 q 851 914 743 1008 q 996 649 960 819 l 714 638 q 661 751 701 711 q 543 790 621 790 q 389 708 443 790 q 335 492 335 626 q 387 277 335 358 q 549 196 439 196 q 671 234 625 196 q 726 342 717 272 l 542 342 l 542 522 l 999 522 l 999 0 l 840 0 l 832 126 q 710 17 793 57 q 521 -22 628 -22 m 281 1282 l 458 1282 l 543 1160 l 628 1282 l 806 1282 l 667 1051 l 419 1051 l 281 1282 z "},"Ĝ":{"ha":1061,"x_min":56,"x_max":999,"o":"m 521 -22 q 272 42 376 -22 q 112 222 168 107 q 56 492 56 338 q 113 757 56 640 q 279 941 171 874 q 540 1008 388 1008 q 851 914 743 1008 q 996 649 960 819 l 714 638 q 661 751 701 711 q 543 790 621 790 q 389 708 443 790 q 335 492 335 626 q 387 277 335 358 q 549 196 439 196 q 671 234 625 196 q 726 342 717 272 l 542 342 l 542 522 l 999 522 l 999 0 l 840 0 l 832 126 q 710 17 793 57 q 521 -22 628 -22 m 281 1051 l 419 1282 l 667 1282 l 806 1051 l 628 1051 l 543 1174 l 458 1051 l 281 1051 z "},"Ģ":{"ha":1061,"x_min":56,"x_max":999,"o":"m 521 -22 q 272 42 376 -22 q 112 222 168 107 q 56 492 56 338 q 113 757 56 640 q 279 941 171 874 q 540 1008 388 1008 q 851 914 743 1008 q 996 649 960 819 l 714 638 q 661 751 701 711 q 543 790 621 790 q 389 708 443 790 q 335 492 335 626 q 387 277 335 358 q 549 196 439 196 q 671 234 625 196 q 726 342 717 272 l 542 342 l 542 522 l 999 522 l 999 0 l 840 0 l 832 126 q 710 17 793 57 q 521 -22 628 -22 m 422 -364 l 492 -250 l 444 -250 l 444 -64 l 653 -64 l 653 -231 l 572 -364 l 422 -364 z "},"Ġ":{"ha":1061,"x_min":56,"x_max":999,"o":"m 521 -22 q 272 42 376 -22 q 112 222 168 107 q 56 492 56 338 q 113 757 56 640 q 279 941 171 874 q 540 1008 388 1008 q 851 914 743 1008 q 996 649 960 819 l 714 638 q 661 751 701 711 q 543 790 621 790 q 389 708 443 790 q 335 492 335 626 q 387 277 335 358 q 549 196 439 196 q 671 234 625 196 q 726 342 717 272 l 542 342 l 542 522 l 999 522 l 999 0 l 840 0 l 832 126 q 710 17 793 57 q 521 -22 628 -22 m 404 1061 l 404 1250 l 682 1250 l 682 1061 l 404 1061 z "},"Ḡ":{"ha":1061,"x_min":56,"x_max":999,"o":"m 521 -22 q 272 42 376 -22 q 112 222 168 107 q 56 492 56 338 q 113 757 56 640 q 279 941 171 874 q 540 1008 388 1008 q 851 914 743 1008 q 996 649 960 819 l 714 638 q 661 751 701 711 q 543 790 621 790 q 389 708 443 790 q 335 492 335 626 q 387 277 335 358 q 549 196 439 196 q 671 234 625 196 q 726 342 717 272 l 542 342 l 542 522 l 999 522 l 999 0 l 840 0 l 832 126 q 710 17 793 57 q 521 -22 628 -22 m 321 1063 l 321 1250 l 765 1250 l 765 1063 l 321 1063 z "},"Ǥ":{"ha":1115,"x_min":56,"x_max":1067,"o":"m 546 -22 q 273 44 382 -22 q 110 227 164 111 q 56 492 56 343 q 113 757 56 640 q 281 941 171 874 q 551 1008 392 1008 q 852 914 739 1008 q 996 649 965 819 l 714 638 q 663 751 701 711 q 544 790 624 790 q 387 708 439 790 q 335 492 335 626 q 387 277 335 358 q 539 196 439 196 q 629 209 592 196 q 690 253 667 222 l 542 253 l 542 356 l 724 356 q 726 403 726 378 l 542 403 l 542 522 l 999 522 l 999 465 q 992 356 999 407 l 1067 356 l 1067 253 l 967 253 q 809 45 919 113 q 546 -22 699 -22 z "},"H":{"ha":1010,"x_min":86,"x_max":924,"o":"m 86 0 l 86 986 l 358 986 l 358 606 l 651 606 l 651 986 l 924 986 l 924 0 l 651 0 l 651 388 l 358 388 l 358 0 l 86 0 z "},"Ħ":{"ha":1010,"x_min":-10,"x_max":1018,"o":"m 86 0 l 86 986 l 358 986 l 358 606 l 651 606 l 651 986 l 924 986 l 924 0 l 651 0 l 651 388 l 358 388 l 358 0 l 86 0 m -10 714 l -10 897 l 1018 897 l 1018 714 l -10 714 z "},"Ĥ":{"ha":1010,"x_min":86,"x_max":924,"o":"m 86 0 l 86 986 l 358 986 l 358 606 l 651 606 l 651 986 l 924 986 l 924 0 l 651 0 l 651 388 l 358 388 l 358 0 l 86 0 m 242 1051 l 381 1282 l 628 1282 l 767 1051 l 589 1051 l 504 1174 l 419 1051 l 242 1051 z "},"I":{"ha":444,"x_min":86,"x_max":358,"o":"m 86 0 l 86 986 l 358 986 l 358 0 l 86 0 z "},"Ĳ":{"ha":1329,"x_min":86,"x_max":1264,"o":"m 86 0 l 86 986 l 358 986 l 358 0 l 86 0 m 875 -22 q 658 29 744 -22 q 527 169 571 81 q 482 371 483 258 l 754 382 q 788 239 757 282 q 875 196 819 196 q 960 234 929 196 q 992 361 992 272 l 992 986 l 1264 986 l 1264 361 q 1215 158 1264 244 q 1078 25 1165 72 q 875 -22 990 -22 z "},"Í":{"ha":444,"x_min":86,"x_max":424,"o":"m 86 0 l 86 986 l 358 986 l 358 0 l 86 0 m 99 1051 l 174 1274 l 424 1274 l 299 1051 l 99 1051 z "},"Î":{"ha":444,"x_min":-40,"x_max":485,"o":"m 86 0 l 86 986 l 358 986 l 358 0 l 86 0 m -40 1051 l 99 1282 l 346 1282 l 485 1051 l 307 1051 l 222 1174 l 138 1051 l -40 1051 z "},"Ï":{"ha":444,"x_min":-71,"x_max":515,"o":"m 86 0 l 86 986 l 358 986 l 358 0 l 86 0 m -71 1056 l -71 1244 l 179 1244 l 179 1056 l -71 1056 m 265 1056 l 265 1244 l 515 1244 l 515 1056 l 265 1056 z "},"İ":{"ha":444,"x_min":83,"x_max":361,"o":"m 86 0 l 86 986 l 358 986 l 358 0 l 86 0 m 83 1061 l 83 1250 l 361 1250 l 361 1061 l 83 1061 z "},"Ì":{"ha":444,"x_min":15,"x_max":358,"o":"m 86 0 l 86 986 l 358 986 l 358 0 l 86 0 m 140 1061 l 15 1283 l 265 1283 l 340 1061 l 140 1061 z "},"Ī":{"ha":444,"x_min":0,"x_max":444,"o":"m 86 0 l 86 986 l 358 986 l 358 0 l 86 0 m 0 1063 l 0 1250 l 444 1250 l 444 1063 l 0 1063 z "},"Į":{"ha":444,"x_min":68,"x_max":411,"o":"m 86 0 l 86 986 l 358 986 l 358 0 l 86 0 m 244 -308 q 114 -274 160 -308 q 68 -175 68 -239 q 88 -93 68 -131 q 131 -25 107 -56 l 181 39 l 358 0 l 321 -47 q 290 -91 304 -69 q 276 -131 276 -112 q 287 -156 276 -149 q 310 -164 297 -164 q 344 -158 326 -164 q 369 -147 361 -153 l 411 -272 q 342 -297 390 -286 q 244 -308 294 -308 z "},"Ĩ":{"ha":444,"x_min":-29,"x_max":472,"o":"m 86 0 l 86 986 l 358 986 l 358 0 l 86 0 m 297 1061 q 239 1069 263 1061 q 186 1103 215 1078 q 144 1121 164 1121 q 114 1107 128 1121 q 96 1054 100 1093 l -29 1054 q 14 1214 -29 1153 q 139 1275 57 1275 q 200 1267 172 1275 q 257 1235 228 1258 q 300 1215 282 1215 q 332 1229 318 1215 q 347 1283 346 1243 l 472 1283 q 428 1122 472 1182 q 297 1061 383 1061 z "},"J":{"ha":899,"x_min":51,"x_max":833,"o":"m 444 -22 q 227 29 314 -22 q 97 169 140 81 q 51 371 53 258 l 324 382 q 358 239 326 282 q 444 196 389 196 q 530 234 499 196 q 561 361 561 272 l 561 986 l 833 986 l 833 361 q 784 158 833 244 q 647 25 735 72 q 444 -22 560 -22 z "},"Ĵ":{"ha":899,"x_min":51,"x_max":960,"o":"m 444 -22 q 227 29 314 -22 q 97 169 140 81 q 51 371 53 258 l 324 382 q 358 239 326 282 q 444 196 389 196 q 530 234 499 196 q 561 361 561 272 l 561 986 l 833 986 l 833 361 q 784 158 833 244 q 647 25 735 72 q 444 -22 560 -22 m 435 1051 l 574 1282 l 821 1282 l 960 1051 l 782 1051 l 697 1174 l 613 1051 l 435 1051 z "},"K":{"ha":1001,"x_min":86,"x_max":988,"o":"m 86 0 l 86 986 l 358 986 l 358 596 l 660 986 l 968 986 l 622 546 l 988 0 l 686 0 l 444 369 l 358 264 l 358 0 l 86 0 z "},"Ǩ":{"ha":1001,"x_min":86,"x_max":988,"o":"m 86 0 l 86 986 l 358 986 l 358 596 l 660 986 l 968 986 l 622 546 l 988 0 l 686 0 l 444 369 l 358 264 l 358 0 l 86 0 m 235 1282 l 413 1282 l 497 1160 l 582 1282 l 760 1282 l 621 1051 l 374 1051 l 235 1282 z "},"Ķ":{"ha":1001,"x_min":86,"x_max":988,"o":"m 86 0 l 86 986 l 358 986 l 358 596 l 660 986 l 968 986 l 622 546 l 988 0 l 686 0 l 444 369 l 358 264 l 358 0 l 86 0 m 379 -364 l 449 -250 l 401 -250 l 401 -64 l 610 -64 l 610 -231 l 529 -364 l 379 -364 z "},"L":{"ha":826,"x_min":86,"x_max":788,"o":"m 86 0 l 86 986 l 358 986 l 358 218 l 788 218 l 788 0 l 86 0 z "},"Ĺ":{"ha":826,"x_min":86,"x_max":788,"o":"m 86 0 l 86 986 l 358 986 l 358 218 l 788 218 l 788 0 l 86 0 m 99 1051 l 174 1274 l 424 1274 l 299 1051 l 99 1051 z "},"Ľ":{"ha":826,"x_min":86,"x_max":788,"o":"m 86 0 l 86 986 l 358 986 l 358 218 l 788 218 l 788 0 l 86 0 m 514 560 l 553 986 l 775 986 l 697 560 l 514 560 z "},"Ļ":{"ha":826,"x_min":86,"x_max":788,"o":"m 86 0 l 86 986 l 358 986 l 358 218 l 788 218 l 788 0 l 86 0 m 310 -364 l 379 -250 l 332 -250 l 332 -64 l 540 -64 l 540 -231 l 460 -364 l 310 -364 z "},"Ł":{"ha":826,"x_min":-7,"x_max":788,"o":"m 86 0 l 86 986 l 358 986 l 358 218 l 788 218 l 788 0 l 86 0 m -7 318 l -7 485 l 535 736 l 535 569 l -7 318 z "},"M":{"ha":1306,"x_min":86,"x_max":1219,"o":"m 86 0 l 86 986 l 444 986 l 653 360 l 861 986 l 1219 986 l 1219 0 l 947 0 l 947 556 l 749 4 l 556 4 l 358 556 l 358 0 l 86 0 z "},"N":{"ha":1049,"x_min":86,"x_max":963,"o":"m 86 0 l 86 986 l 361 986 l 690 431 l 690 986 l 963 986 l 963 0 l 688 0 l 358 528 l 358 0 l 86 0 z "},"Ń":{"ha":1049,"x_min":86,"x_max":963,"o":"m 86 0 l 86 986 l 361 986 l 690 431 l 690 986 l 963 986 l 963 0 l 688 0 l 358 528 l 358 0 l 86 0 m 401 1051 l 476 1274 l 726 1274 l 601 1051 l 401 1051 z "},"Ň":{"ha":1049,"x_min":86,"x_max":963,"o":"m 86 0 l 86 986 l 361 986 l 690 431 l 690 986 l 963 986 l 963 0 l 688 0 l 358 528 l 358 0 l 86 0 m 263 1282 l 440 1282 l 525 1160 l 610 1282 l 788 1282 l 649 1051 l 401 1051 l 263 1282 z "},"Ņ":{"ha":1049,"x_min":86,"x_max":963,"o":"m 86 0 l 86 986 l 361 986 l 690 431 l 690 986 l 963 986 l 963 0 l 688 0 l 358 528 l 358 0 l 86 0 m 392 -364 l 461 -250 l 414 -250 l 414 -64 l 622 -64 l 622 -231 l 542 -364 l 392 -364 z "},"Ñ":{"ha":1049,"x_min":86,"x_max":963,"o":"m 86 0 l 86 986 l 361 986 l 690 431 l 690 986 l 963 986 l 963 0 l 688 0 l 358 528 l 358 0 l 86 0 m 600 1061 q 542 1069 565 1061 q 489 1103 518 1078 q 447 1121 467 1121 q 417 1107 431 1121 q 399 1054 403 1093 l 274 1054 q 317 1214 274 1153 q 442 1275 360 1275 q 503 1267 475 1275 q 560 1235 531 1258 q 603 1215 585 1215 q 635 1229 621 1215 q 650 1283 649 1243 l 775 1283 q 731 1122 775 1182 q 600 1061 686 1061 z "},"Ŋ":{"ha":1049,"x_min":86,"x_max":963,"o":"m 86 0 l 86 986 l 361 986 l 690 431 l 690 986 l 963 986 l 963 -7 q 906 -176 963 -115 q 728 -236 849 -236 l 522 -236 l 522 -69 l 644 -69 q 692 -58 676 -69 q 708 -11 708 -47 l 708 0 l 688 0 l 358 529 l 358 0 l 86 0 z "},"O":{"ha":1111,"x_min":56,"x_max":1056,"o":"m 556 -22 q 288 40 400 -22 q 115 218 175 103 q 56 492 56 333 q 115 766 56 650 q 288 945 175 882 q 556 1008 400 1008 q 824 945 713 1008 q 996 766 936 882 q 1056 492 1056 650 q 996 218 1056 333 q 824 40 936 103 q 556 -22 713 -22 m 556 196 q 718 273 660 196 q 776 492 776 350 q 718 712 776 633 q 556 790 660 790 q 393 712 451 790 q 335 492 335 633 q 393 273 335 350 q 556 196 451 196 z "},"Ó":{"ha":1111,"x_min":56,"x_max":1056,"o":"m 556 -22 q 288 40 400 -22 q 115 218 175 103 q 56 492 56 333 q 115 766 56 650 q 288 945 175 882 q 556 1008 400 1008 q 824 945 713 1008 q 996 766 936 882 q 1056 492 1056 650 q 996 218 1056 333 q 824 40 936 103 q 556 -22 713 -22 m 556 196 q 718 273 660 196 q 776 492 776 350 q 718 712 776 633 q 556 790 660 790 q 393 712 451 790 q 335 492 335 633 q 393 273 335 350 q 556 196 451 196 m 432 1051 l 507 1274 l 757 1274 l 632 1051 l 432 1051 z "},"Ô":{"ha":1111,"x_min":56,"x_max":1056,"o":"m 556 -22 q 288 40 400 -22 q 115 218 175 103 q 56 492 56 333 q 115 766 56 650 q 288 945 175 882 q 556 1008 400 1008 q 824 945 713 1008 q 996 766 936 882 q 1056 492 1056 650 q 996 218 1056 333 q 824 40 936 103 q 556 -22 713 -22 m 556 196 q 718 273 660 196 q 776 492 776 350 q 718 712 776 633 q 556 790 660 790 q 393 712 451 790 q 335 492 335 633 q 393 273 335 350 q 556 196 451 196 m 293 1051 l 432 1282 l 679 1282 l 818 1051 l 640 1051 l 556 1174 l 471 1051 l 293 1051 z "},"Ö":{"ha":1111,"x_min":56,"x_max":1056,"o":"m 556 -22 q 288 40 400 -22 q 115 218 175 103 q 56 492 56 333 q 115 766 56 650 q 288 945 175 882 q 556 1008 400 1008 q 824 945 713 1008 q 996 766 936 882 q 1056 492 1056 650 q 996 218 1056 333 q 824 40 936 103 q 556 -22 713 -22 m 556 196 q 718 273 660 196 q 776 492 776 350 q 718 712 776 633 q 556 790 660 790 q 393 712 451 790 q 335 492 335 633 q 393 273 335 350 q 556 196 451 196 m 263 1056 l 263 1244 l 513 1244 l 513 1056 l 263 1056 m 599 1056 l 599 1244 l 849 1244 l 849 1056 l 599 1056 z "},"Ò":{"ha":1111,"x_min":56,"x_max":1056,"o":"m 556 -22 q 288 40 400 -22 q 115 218 175 103 q 56 492 56 333 q 115 766 56 650 q 288 945 175 882 q 556 1008 400 1008 q 824 945 713 1008 q 996 766 936 882 q 1056 492 1056 650 q 996 218 1056 333 q 824 40 936 103 q 556 -22 713 -22 m 556 196 q 718 273 660 196 q 776 492 776 350 q 718 712 776 633 q 556 790 660 790 q 393 712 451 790 q 335 492 335 633 q 393 273 335 350 q 556 196 451 196 m 474 1061 l 349 1283 l 599 1283 l 674 1061 l 474 1061 z "},"Ő":{"ha":1111,"x_min":56,"x_max":1056,"o":"m 556 -22 q 288 40 400 -22 q 115 218 175 103 q 56 492 56 333 q 115 766 56 650 q 288 945 175 882 q 556 1008 400 1008 q 824 945 713 1008 q 996 766 936 882 q 1056 492 1056 650 q 996 218 1056 333 q 824 40 936 103 q 556 -22 713 -22 m 556 196 q 718 273 660 196 q 776 492 776 350 q 718 712 776 633 q 556 790 660 790 q 393 712 451 790 q 335 492 335 633 q 393 273 335 350 q 556 196 451 196 m 314 1051 l 389 1274 l 639 1274 l 514 1051 l 314 1051 m 603 1051 l 678 1274 l 928 1274 l 803 1051 l 603 1051 z "},"Ō":{"ha":1111,"x_min":56,"x_max":1056,"o":"m 556 -22 q 288 40 400 -22 q 115 218 175 103 q 56 492 56 333 q 115 766 56 650 q 288 945 175 882 q 556 1008 400 1008 q 824 945 713 1008 q 996 766 936 882 q 1056 492 1056 650 q 996 218 1056 333 q 824 40 936 103 q 556 -22 713 -22 m 556 196 q 718 273 660 196 q 776 492 776 350 q 718 712 776 633 q 556 790 660 790 q 393 712 451 790 q 335 492 335 633 q 393 273 335 350 q 556 196 451 196 m 333 1063 l 333 1250 l 778 1250 l 778 1063 l 333 1063 z "},"Ø":{"ha":1111,"x_min":56,"x_max":1056,"o":"m 556 -22 q 288 40 400 -22 q 115 218 175 103 q 56 492 56 333 q 115 766 56 650 q 288 945 175 882 q 556 1008 400 1008 q 824 945 713 1008 q 996 766 936 882 q 1056 492 1056 650 q 996 218 1056 333 q 824 40 936 103 q 556 -22 713 -22 m 556 196 q 718 273 660 196 q 776 492 776 350 q 718 712 776 633 q 556 790 660 790 q 393 712 451 790 q 335 492 335 633 q 393 273 335 350 q 556 196 451 196 m 97 -22 l 833 1008 l 1014 1008 l 278 -22 l 97 -22 z "},"Õ":{"ha":1111,"x_min":56,"x_max":1056,"o":"m 556 -22 q 288 40 400 -22 q 115 218 175 103 q 56 492 56 333 q 115 766 56 650 q 288 945 175 882 q 556 1008 400 1008 q 824 945 713 1008 q 996 766 936 882 q 1056 492 1056 650 q 996 218 1056 333 q 824 40 936 103 q 556 -22 713 -22 m 556 196 q 718 273 660 196 q 776 492 776 350 q 718 712 776 633 q 556 790 660 790 q 393 712 451 790 q 335 492 335 633 q 393 273 335 350 q 556 196 451 196 m 631 1061 q 572 1069 596 1061 q 519 1103 549 1078 q 478 1121 497 1121 q 447 1107 461 1121 q 429 1054 433 1093 l 304 1054 q 347 1214 304 1153 q 472 1275 390 1275 q 533 1267 506 1275 q 590 1235 561 1258 q 633 1215 615 1215 q 665 1229 651 1215 q 681 1283 679 1243 l 806 1283 q 761 1122 806 1182 q 631 1061 717 1061 z "},"Œ":{"ha":1585,"x_min":56,"x_max":1532,"o":"m 553 -22 q 295 38 407 -22 q 119 213 183 99 q 56 492 56 328 q 119 774 56 660 q 295 949 183 889 q 553 1008 407 1008 q 826 919 718 1008 l 826 986 l 1521 986 l 1521 768 l 1099 768 l 1099 603 l 1504 603 l 1504 386 l 1099 386 l 1099 218 l 1532 218 l 1532 0 l 826 0 l 826 67 q 553 -22 718 -22 m 553 196 q 681 235 633 196 q 751 342 729 275 q 774 492 774 410 q 751 644 774 576 q 681 751 729 711 q 553 790 633 790 q 430 751 478 790 q 358 644 382 711 q 335 492 335 576 q 358 342 335 410 q 431 235 382 275 q 553 196 479 196 z "},"P":{"ha":953,"x_min":86,"x_max":907,"o":"m 86 0 l 86 986 l 508 986 q 801 896 694 986 q 907 649 907 806 q 859 470 907 546 q 722 353 811 394 q 508 313 632 313 l 358 313 l 358 0 l 86 0 m 358 531 l 488 531 q 590 560 551 531 q 629 649 629 590 q 591 738 629 707 q 488 768 553 768 l 358 768 l 358 531 z "},"Þ":{"ha":911,"x_min":86,"x_max":865,"o":"m 86 0 l 86 986 l 358 986 l 358 810 l 486 810 q 767 731 668 810 q 865 510 865 653 q 767 285 865 364 q 486 206 668 206 l 358 206 l 358 0 l 86 0 m 479 590 l 358 590 l 358 425 l 479 425 q 588 508 588 425 q 479 590 588 590 z "},"Q":{"ha":1101,"x_min":56,"x_max":1046,"o":"m 804 -79 l 732 10 q 551 -22 668 -22 q 291 42 403 -22 q 117 222 179 106 q 56 492 56 338 q 112 757 56 640 q 279 941 168 874 q 551 1008 390 1008 q 823 941 713 1008 q 990 757 933 874 q 1046 492 1046 640 q 1001 256 1046 354 q 874 89 956 158 l 1010 -79 l 804 -79 m 551 196 q 592 201 575 196 l 460 363 l 665 363 l 715 296 q 753 370 739 325 q 767 492 767 415 q 745 638 767 569 q 676 748 724 706 q 551 790 629 790 q 426 748 474 790 q 356 638 378 706 q 335 492 335 569 q 357 347 335 415 q 427 238 379 279 q 551 196 475 196 z "},"R":{"ha":992,"x_min":86,"x_max":932,"o":"m 86 0 l 86 986 l 557 986 q 751 950 668 986 q 878 849 833 914 q 924 694 924 783 q 877 538 924 601 q 746 447 831 474 q 865 394 825 438 q 910 278 904 351 l 932 0 l 654 0 l 640 231 q 611 310 638 285 q 518 336 585 336 l 358 336 l 358 0 l 86 0 m 358 554 l 507 554 q 610 583 575 554 q 646 663 646 611 q 507 768 646 768 l 358 768 l 358 554 z "},"Ŕ":{"ha":992,"x_min":86,"x_max":932,"o":"m 86 0 l 86 986 l 557 986 q 751 950 668 986 q 878 849 833 914 q 924 694 924 783 q 877 538 924 601 q 746 447 831 474 q 865 394 825 438 q 910 278 904 351 l 932 0 l 654 0 l 640 231 q 611 310 638 285 q 518 336 585 336 l 358 336 l 358 0 l 86 0 m 358 554 l 507 554 q 610 583 575 554 q 646 663 646 611 q 507 768 646 768 l 358 768 l 358 554 m 363 1051 l 438 1274 l 688 1274 l 563 1051 l 363 1051 z "},"Ř":{"ha":992,"x_min":86,"x_max":932,"o":"m 86 0 l 86 986 l 557 986 q 751 950 668 986 q 878 849 833 914 q 924 694 924 783 q 877 538 924 601 q 746 447 831 474 q 865 394 825 438 q 910 278 904 351 l 932 0 l 654 0 l 640 231 q 611 310 638 285 q 518 336 585 336 l 358 336 l 358 0 l 86 0 m 358 554 l 507 554 q 610 583 575 554 q 646 663 646 611 q 507 768 646 768 l 358 768 l 358 554 m 224 1282 l 401 1282 l 486 1160 l 571 1282 l 749 1282 l 610 1051 l 363 1051 l 224 1282 z "},"Ŗ":{"ha":992,"x_min":86,"x_max":932,"o":"m 86 0 l 86 986 l 557 986 q 751 950 668 986 q 878 849 833 914 q 924 694 924 783 q 877 538 924 601 q 746 447 831 474 q 865 394 825 438 q 910 278 904 351 l 932 0 l 654 0 l 640 231 q 611 310 638 285 q 518 336 585 336 l 358 336 l 358 0 l 86 0 m 358 554 l 507 554 q 610 583 575 554 q 646 663 646 611 q 507 768 646 768 l 358 768 l 358 554 m 383 -364 l 453 -250 l 406 -250 l 406 -64 l 614 -64 l 614 -231 l 533 -364 l 383 -364 z "},"S":{"ha":985,"x_min":69,"x_max":915,"o":"m 510 -22 q 193 73 306 -22 q 69 331 81 168 l 340 343 q 392 231 351 271 q 513 192 433 192 q 609 213 575 192 q 643 278 643 235 q 630 324 643 304 q 578 360 617 344 q 465 392 540 376 q 247 456 331 419 q 126 551 164 493 q 88 700 88 610 q 135 861 88 792 q 271 969 182 931 q 485 1008 360 1008 q 706 964 617 1008 q 844 842 794 919 q 903 661 893 764 l 635 650 q 590 756 629 718 q 482 794 550 794 q 392 771 424 794 q 360 708 360 747 q 397 638 360 663 q 529 597 433 614 q 760 529 675 572 q 880 426 844 486 q 915 289 915 367 q 808 61 915 144 q 510 -22 701 -22 z "},"Ś":{"ha":985,"x_min":69,"x_max":915,"o":"m 510 -22 q 193 73 306 -22 q 69 331 81 168 l 340 343 q 392 231 351 271 q 513 192 433 192 q 609 213 575 192 q 643 278 643 235 q 630 324 643 304 q 578 360 617 344 q 465 392 540 376 q 247 456 331 419 q 126 551 164 493 q 88 700 88 610 q 135 861 88 792 q 271 969 182 931 q 485 1008 360 1008 q 706 964 617 1008 q 844 842 794 919 q 903 661 893 764 l 635 650 q 590 756 629 718 q 482 794 550 794 q 392 771 424 794 q 360 708 360 747 q 397 638 360 663 q 529 597 433 614 q 760 529 675 572 q 880 426 844 486 q 915 289 915 367 q 808 61 915 144 q 510 -22 701 -22 m 364 1051 l 439 1274 l 689 1274 l 564 1051 l 364 1051 z "},"Š":{"ha":985,"x_min":69,"x_max":915,"o":"m 510 -22 q 193 73 306 -22 q 69 331 81 168 l 340 343 q 392 231 351 271 q 513 192 433 192 q 609 213 575 192 q 643 278 643 235 q 630 324 643 304 q 578 360 617 344 q 465 392 540 376 q 247 456 331 419 q 126 551 164 493 q 88 700 88 610 q 135 861 88 792 q 271 969 182 931 q 485 1008 360 1008 q 706 964 617 1008 q 844 842 794 919 q 903 661 893 764 l 635 650 q 590 756 629 718 q 482 794 550 794 q 392 771 424 794 q 360 708 360 747 q 397 638 360 663 q 529 597 433 614 q 760 529 675 572 q 880 426 844 486 q 915 289 915 367 q 808 61 915 144 q 510 -22 701 -22 m 225 1282 l 403 1282 l 488 1160 l 572 1282 l 750 1282 l 611 1051 l 364 1051 l 225 1282 z "},"Ş":{"ha":985,"x_min":69,"x_max":915,"o":"m 510 -22 q 193 73 306 -22 q 69 331 81 168 l 340 343 q 392 231 351 271 q 513 192 433 192 q 609 213 575 192 q 643 278 643 235 q 630 324 643 304 q 578 360 617 344 q 465 392 540 376 q 247 456 331 419 q 126 551 164 493 q 88 700 88 610 q 135 861 88 792 q 271 969 182 931 q 485 1008 360 1008 q 706 964 617 1008 q 844 842 794 919 q 903 661 893 764 l 635 650 q 590 756 629 718 q 482 794 550 794 q 392 771 424 794 q 360 708 360 747 q 397 638 360 663 q 529 597 433 614 q 760 529 675 572 q 880 426 844 486 q 915 289 915 367 q 808 61 915 144 q 510 -22 701 -22 m 501 -333 q 381 -301 429 -333 q 313 -214 333 -268 l 418 -167 q 447 -203 429 -190 q 496 -217 465 -217 q 540 -204 524 -217 q 557 -169 557 -192 q 541 -133 557 -146 q 476 -119 525 -119 l 408 -58 l 449 14 l 589 14 l 557 -39 q 659 -86 628 -47 q 690 -175 690 -125 q 664 -267 690 -232 q 595 -317 638 -301 q 501 -333 553 -333 z "},"Ŝ":{"ha":985,"x_min":69,"x_max":915,"o":"m 510 -22 q 193 73 306 -22 q 69 331 81 168 l 340 343 q 392 231 351 271 q 513 192 433 192 q 609 213 575 192 q 643 278 643 235 q 630 324 643 304 q 578 360 617 344 q 465 392 540 376 q 247 456 331 419 q 126 551 164 493 q 88 700 88 610 q 135 861 88 792 q 271 969 182 931 q 485 1008 360 1008 q 706 964 617 1008 q 844 842 794 919 q 903 661 893 764 l 635 650 q 590 756 629 718 q 482 794 550 794 q 392 771 424 794 q 360 708 360 747 q 397 638 360 663 q 529 597 433 614 q 760 529 675 572 q 880 426 844 486 q 915 289 915 367 q 808 61 915 144 q 510 -22 701 -22 m 225 1051 l 364 1282 l 611 1282 l 750 1051 l 572 1051 l 488 1174 l 403 1051 l 225 1051 z "},"Ș":{"ha":985,"x_min":69,"x_max":915,"o":"m 510 -22 q 193 73 306 -22 q 69 331 81 168 l 340 343 q 392 231 351 271 q 513 192 433 192 q 609 213 575 192 q 643 278 643 235 q 630 324 643 304 q 578 360 617 344 q 465 392 540 376 q 247 456 331 419 q 126 551 164 493 q 88 700 88 610 q 135 861 88 792 q 271 969 182 931 q 485 1008 360 1008 q 706 964 617 1008 q 844 842 794 919 q 903 661 893 764 l 635 650 q 590 756 629 718 q 482 794 550 794 q 392 771 424 794 q 360 708 360 747 q 397 638 360 663 q 529 597 433 614 q 760 529 675 572 q 880 426 844 486 q 915 289 915 367 q 808 61 915 144 q 510 -22 701 -22 m 379 -364 l 449 -250 l 401 -250 l 401 -64 l 610 -64 l 610 -231 l 529 -364 l 379 -364 z "},"ẞ":{"ha":1075,"x_min":86,"x_max":1015,"o":"m 86 0 l 86 621 q 500 986 86 986 l 979 986 l 979 768 l 761 575 q 950 481 885 549 q 1015 307 1015 413 q 911 78 1015 157 q 607 0 807 0 l 451 0 l 451 218 l 607 218 q 704 243 669 218 q 739 314 739 268 q 703 385 739 361 q 599 410 667 410 l 465 410 l 465 581 l 669 768 l 500 768 q 358 621 358 768 l 358 0 l 86 0 z "},"T":{"ha":876,"x_min":14,"x_max":863,"o":"m 301 0 l 301 768 l 14 768 l 14 986 l 863 986 l 863 768 l 575 768 l 575 0 l 301 0 z "},"Ŧ":{"ha":876,"x_min":14,"x_max":863,"o":"m 301 0 l 301 768 l 14 768 l 14 986 l 863 986 l 863 768 l 575 768 l 575 0 l 301 0 m 140 336 l 140 531 l 738 531 l 738 336 l 140 336 z "},"Ť":{"ha":876,"x_min":14,"x_max":863,"o":"m 301 0 l 301 768 l 14 768 l 14 986 l 863 986 l 863 768 l 575 768 l 575 0 l 301 0 m 175 1282 l 353 1282 l 438 1160 l 522 1282 l 700 1282 l 561 1051 l 314 1051 l 175 1282 z "},"Ţ":{"ha":876,"x_min":14,"x_max":863,"o":"m 301 0 l 301 768 l 14 768 l 14 986 l 863 986 l 863 768 l 575 768 l 575 0 l 301 0 m 433 -333 q 313 -301 361 -333 q 244 -214 265 -268 l 350 -167 q 379 -203 361 -190 q 428 -217 397 -217 q 472 -204 456 -217 q 489 -169 489 -192 q 473 -133 489 -146 q 408 -119 457 -119 l 340 -58 l 381 14 l 521 14 l 489 -39 q 591 -86 560 -47 q 622 -175 622 -125 q 596 -267 622 -232 q 527 -317 569 -301 q 433 -333 485 -333 z "},"Ț":{"ha":876,"x_min":14,"x_max":863,"o":"m 301 0 l 301 768 l 14 768 l 14 986 l 863 986 l 863 768 l 575 768 l 575 0 l 301 0 m 311 -364 l 381 -250 l 333 -250 l 333 -64 l 542 -64 l 542 -231 l 461 -364 l 311 -364 z "},"U":{"ha":990,"x_min":65,"x_max":925,"o":"m 494 -22 q 267 25 364 -22 q 118 159 171 72 q 65 364 65 246 l 65 988 l 338 988 l 338 364 q 378 240 338 283 q 494 196 418 196 q 613 240 572 196 q 653 364 653 283 l 653 988 l 925 988 l 925 364 q 872 159 925 246 q 723 25 819 72 q 494 -22 626 -22 z "},"Ú":{"ha":990,"x_min":65,"x_max":925,"o":"m 494 -22 q 267 25 364 -22 q 118 159 171 72 q 65 364 65 246 l 65 988 l 338 988 l 338 364 q 378 240 338 283 q 494 196 418 196 q 613 240 572 196 q 653 364 653 283 l 653 988 l 925 988 l 925 364 q 872 159 925 246 q 723 25 819 72 q 494 -22 626 -22 m 371 1051 l 446 1274 l 696 1274 l 571 1051 l 371 1051 z "},"Ŭ":{"ha":990,"x_min":65,"x_max":925,"o":"m 494 -22 q 267 25 364 -22 q 118 159 171 72 q 65 364 65 246 l 65 988 l 338 988 l 338 364 q 378 240 338 283 q 494 196 418 196 q 613 240 572 196 q 653 364 653 283 l 653 988 l 925 988 l 925 364 q 872 159 925 246 q 723 25 819 72 q 494 -22 626 -22 m 494 1047 q 328 1104 390 1047 q 261 1269 265 1161 l 408 1269 q 435 1201 413 1222 q 494 1181 457 1181 q 554 1201 532 1181 q 581 1269 576 1222 l 728 1269 q 661 1104 724 1161 q 494 1047 599 1047 z "},"Û":{"ha":990,"x_min":65,"x_max":925,"o":"m 494 -22 q 267 25 364 -22 q 118 159 171 72 q 65 364 65 246 l 65 988 l 338 988 l 338 364 q 378 240 338 283 q 494 196 418 196 q 613 240 572 196 q 653 364 653 283 l 653 988 l 925 988 l 925 364 q 872 159 925 246 q 723 25 819 72 q 494 -22 626 -22 m 232 1051 l 371 1282 l 618 1282 l 757 1051 l 579 1051 l 494 1174 l 410 1051 l 232 1051 z "},"Ü":{"ha":990,"x_min":65,"x_max":925,"o":"m 494 -22 q 267 25 364 -22 q 118 159 171 72 q 65 364 65 246 l 65 988 l 338 988 l 338 364 q 378 240 338 283 q 494 196 418 196 q 613 240 572 196 q 653 364 653 283 l 653 988 l 925 988 l 925 364 q 872 159 925 246 q 723 25 819 72 q 494 -22 626 -22 m 201 1056 l 201 1244 l 451 1244 l 451 1056 l 201 1056 m 538 1056 l 538 1244 l 788 1244 l 788 1056 l 538 1056 z "},"Ù":{"ha":990,"x_min":65,"x_max":925,"o":"m 494 -22 q 267 25 364 -22 q 118 159 171 72 q 65 364 65 246 l 65 988 l 338 988 l 338 364 q 378 240 338 283 q 494 196 418 196 q 613 240 572 196 q 653 364 653 283 l 653 988 l 925 988 l 925 364 q 872 159 925 246 q 723 25 819 72 q 494 -22 626 -22 m 413 1061 l 288 1283 l 538 1283 l 613 1061 l 413 1061 z "},"Ű":{"ha":990,"x_min":65,"x_max":925,"o":"m 494 -22 q 267 25 364 -22 q 118 159 171 72 q 65 364 65 246 l 65 988 l 338 988 l 338 364 q 378 240 338 283 q 494 196 418 196 q 613 240 572 196 q 653 364 653 283 l 653 988 l 925 988 l 925 364 q 872 159 925 246 q 723 25 819 72 q 494 -22 626 -22 m 253 1051 l 328 1274 l 578 1274 l 453 1051 l 253 1051 m 542 1051 l 617 1274 l 867 1274 l 742 1051 l 542 1051 z "},"Ū":{"ha":990,"x_min":65,"x_max":925,"o":"m 494 -22 q 267 25 364 -22 q 118 159 171 72 q 65 364 65 246 l 65 988 l 338 988 l 338 364 q 378 240 338 283 q 494 196 418 196 q 613 240 572 196 q 653 364 653 283 l 653 988 l 925 988 l 925 364 q 872 159 925 246 q 723 25 819 72 q 494 -22 626 -22 m 272 1063 l 272 1250 l 717 1250 l 717 1063 l 272 1063 z "},"Ų":{"ha":990,"x_min":65,"x_max":925,"o":"m 494 -22 q 267 25 364 -22 q 118 159 171 72 q 65 364 65 246 l 65 988 l 338 988 l 338 364 q 378 240 338 283 q 494 196 418 196 q 613 240 572 196 q 653 364 653 283 l 653 988 l 925 988 l 925 364 q 872 159 925 246 q 723 25 819 72 q 494 -22 626 -22 m 543 -308 q 413 -274 458 -308 q 367 -175 367 -239 q 386 -93 367 -131 q 429 -25 406 -56 l 479 39 l 657 0 l 619 -47 q 589 -91 603 -69 q 575 -131 575 -112 q 585 -156 575 -149 q 608 -164 596 -164 q 642 -158 625 -164 q 668 -147 660 -153 l 710 -272 q 641 -297 689 -286 q 543 -308 593 -308 z "},"Ů":{"ha":990,"x_min":65,"x_max":925,"o":"m 494 -22 q 267 25 364 -22 q 118 159 171 72 q 65 364 65 246 l 65 988 l 338 988 l 338 364 q 378 240 338 283 q 494 196 418 196 q 613 240 572 196 q 653 364 653 283 l 653 988 l 925 988 l 925 364 q 872 159 925 246 q 723 25 819 72 q 494 -22 626 -22 m 494 1033 q 386 1076 431 1033 q 342 1183 342 1119 q 386 1291 342 1249 q 494 1333 431 1333 q 603 1291 560 1333 q 647 1183 647 1249 q 603 1076 647 1119 q 494 1033 560 1033 m 494 1136 q 528 1149 515 1136 q 542 1183 542 1163 q 528 1217 542 1204 q 494 1231 515 1231 q 460 1217 474 1231 q 447 1183 447 1204 q 460 1149 447 1163 q 494 1136 474 1136 z "},"Ũ":{"ha":990,"x_min":65,"x_max":925,"o":"m 494 -22 q 267 25 364 -22 q 118 159 171 72 q 65 364 65 246 l 65 988 l 338 988 l 338 364 q 378 240 338 283 q 494 196 418 196 q 613 240 572 196 q 653 364 653 283 l 653 988 l 925 988 l 925 364 q 872 159 925 246 q 723 25 819 72 q 494 -22 626 -22 m 569 1061 q 511 1069 535 1061 q 458 1103 488 1078 q 417 1121 436 1121 q 386 1107 400 1121 q 368 1054 372 1093 l 243 1054 q 286 1214 243 1153 q 411 1275 329 1275 q 472 1267 444 1275 q 529 1235 500 1258 q 572 1215 554 1215 q 604 1229 590 1215 q 619 1283 618 1243 l 744 1283 q 700 1122 744 1182 q 569 1061 656 1061 z "},"V":{"ha":1072,"x_min":25,"x_max":1047,"o":"m 381 0 l 25 986 l 303 986 l 536 308 l 769 986 l 1047 986 l 689 0 l 381 0 z "},"W":{"ha":1474,"x_min":50,"x_max":1424,"o":"m 321 0 l 50 986 l 331 986 l 478 378 l 629 986 l 846 986 l 997 378 l 1143 986 l 1424 986 l 1154 0 l 876 0 l 738 542 l 599 0 l 321 0 z "},"Ẃ":{"ha":1474,"x_min":50,"x_max":1424,"o":"m 321 0 l 50 986 l 331 986 l 478 378 l 629 986 l 846 986 l 997 378 l 1143 986 l 1424 986 l 1154 0 l 876 0 l 738 542 l 599 0 l 321 0 m 614 1051 l 689 1274 l 939 1274 l 814 1051 l 614 1051 z "},"Ŵ":{"ha":1474,"x_min":50,"x_max":1424,"o":"m 321 0 l 50 986 l 331 986 l 478 378 l 629 986 l 846 986 l 997 378 l 1143 986 l 1424 986 l 1154 0 l 876 0 l 738 542 l 599 0 l 321 0 m 475 1051 l 614 1282 l 861 1282 l 1000 1051 l 822 1051 l 738 1174 l 653 1051 l 475 1051 z "},"Ẅ":{"ha":1474,"x_min":50,"x_max":1424,"o":"m 321 0 l 50 986 l 331 986 l 478 378 l 629 986 l 846 986 l 997 378 l 1143 986 l 1424 986 l 1154 0 l 876 0 l 738 542 l 599 0 l 321 0 m 444 1056 l 444 1244 l 694 1244 l 694 1056 l 444 1056 m 781 1056 l 781 1244 l 1031 1244 l 1031 1056 l 781 1056 z "},"Ẁ":{"ha":1474,"x_min":50,"x_max":1424,"o":"m 321 0 l 50 986 l 331 986 l 478 378 l 629 986 l 846 986 l 997 378 l 1143 986 l 1424 986 l 1154 0 l 876 0 l 738 542 l 599 0 l 321 0 m 656 1061 l 531 1283 l 781 1283 l 856 1061 l 656 1061 z "},"X":{"ha":1031,"x_min":14,"x_max":1017,"o":"m 14 0 l 357 494 l 17 986 l 331 986 l 518 697 l 697 986 l 1014 986 l 675 497 l 1017 0 l 703 0 l 515 294 l 331 0 l 14 0 z "},"Y":{"ha":928,"x_min":-11,"x_max":939,"o":"m 328 0 l 328 369 l -11 986 l 283 986 l 465 631 l 644 986 l 939 986 l 601 369 l 601 0 l 328 0 z "},"Ý":{"ha":928,"x_min":-11,"x_max":939,"o":"m 328 0 l 328 369 l -11 986 l 283 986 l 465 631 l 644 986 l 939 986 l 601 369 l 601 0 l 328 0 m 342 1051 l 417 1274 l 667 1274 l 542 1051 l 342 1051 z "},"Ŷ":{"ha":928,"x_min":-11,"x_max":939,"o":"m 328 0 l 328 369 l -11 986 l 283 986 l 465 631 l 644 986 l 939 986 l 601 369 l 601 0 l 328 0 m 203 1051 l 342 1282 l 589 1282 l 728 1051 l 550 1051 l 465 1174 l 381 1051 l 203 1051 z "},"Ÿ":{"ha":928,"x_min":-11,"x_max":939,"o":"m 328 0 l 328 369 l -11 986 l 283 986 l 465 631 l 644 986 l 939 986 l 601 369 l 601 0 l 328 0 m 172 1056 l 172 1244 l 422 1244 l 422 1056 l 172 1056 m 508 1056 l 508 1244 l 758 1244 l 758 1056 l 508 1056 z "},"Ỳ":{"ha":928,"x_min":-11,"x_max":939,"o":"m 328 0 l 328 369 l -11 986 l 283 986 l 465 631 l 644 986 l 939 986 l 601 369 l 601 0 l 328 0 m 383 1061 l 258 1283 l 508 1283 l 583 1061 l 383 1061 z "},"Ỹ":{"ha":928,"x_min":-11,"x_max":939,"o":"m 328 0 l 328 369 l -11 986 l 283 986 l 465 631 l 644 986 l 939 986 l 601 369 l 601 0 l 328 0 m 540 1061 q 482 1069 506 1061 q 429 1103 458 1078 q 388 1121 407 1121 q 357 1107 371 1121 q 339 1054 343 1093 l 214 1054 q 257 1214 214 1153 q 382 1275 300 1275 q 443 1267 415 1275 q 500 1235 471 1258 q 543 1215 525 1215 q 575 1229 561 1215 q 590 1283 589 1243 l 715 1283 q 671 1122 715 1182 q 540 1061 626 1061 z "},"Z":{"ha":871,"x_min":36,"x_max":835,"o":"m 36 0 l 36 206 l 468 768 l 61 768 l 61 986 l 814 986 l 814 781 l 368 218 l 835 218 l 835 0 l 36 0 z "},"Ź":{"ha":871,"x_min":36,"x_max":835,"o":"m 36 0 l 36 206 l 468 768 l 61 768 l 61 986 l 814 986 l 814 781 l 368 218 l 835 218 l 835 0 l 36 0 m 325 1051 l 400 1274 l 650 1274 l 525 1051 l 325 1051 z "},"Ž":{"ha":871,"x_min":36,"x_max":835,"o":"m 36 0 l 36 206 l 468 768 l 61 768 l 61 986 l 814 986 l 814 781 l 368 218 l 835 218 l 835 0 l 36 0 m 186 1282 l 364 1282 l 449 1160 l 533 1282 l 711 1282 l 572 1051 l 325 1051 l 186 1282 z "},"Ż":{"ha":871,"x_min":36,"x_max":835,"o":"m 36 0 l 36 206 l 468 768 l 61 768 l 61 986 l 814 986 l 814 781 l 368 218 l 835 218 l 835 0 l 36 0 m 310 1061 l 310 1250 l 588 1250 l 588 1061 l 310 1061 z "},"Ꞌ":{"ha":361,"x_min":56,"x_max":306,"o":"m 75 439 l 56 772 l 56 986 l 306 986 l 306 772 l 286 439 l 75 439 z "},"a":{"ha":865,"x_min":44,"x_max":853,"o":"m 315 -17 q 121 38 197 -17 q 44 189 44 92 q 110 342 44 289 q 299 422 176 396 l 524 469 q 499 558 524 528 q 429 589 474 589 q 324 499 336 589 l 57 507 q 175 705 79 643 q 429 767 271 767 q 793 447 793 767 l 793 228 q 805 181 793 192 q 838 169 817 169 l 853 169 l 853 0 q 813 -8 840 -4 q 758 -11 785 -11 q 687 -1 724 -11 q 621 35 650 8 q 579 115 592 63 q 485 18 550 53 q 315 -17 421 -17 m 390 153 q 485 188 447 153 q 524 294 524 222 l 524 319 l 401 289 q 344 262 367 281 q 321 214 321 243 q 390 153 321 153 z "},"á":{"ha":865,"x_min":44,"x_max":853,"o":"m 315 -17 q 121 38 197 -17 q 44 189 44 92 q 110 342 44 289 q 299 422 176 396 l 524 469 q 499 558 524 528 q 429 589 474 589 q 324 499 336 589 l 57 507 q 175 705 79 643 q 429 767 271 767 q 793 447 793 767 l 793 228 q 805 181 793 192 q 838 169 817 169 l 853 169 l 853 0 q 813 -8 840 -4 q 758 -11 785 -11 q 687 -1 724 -11 q 621 35 650 8 q 579 115 592 63 q 485 18 550 53 q 315 -17 421 -17 m 390 153 q 485 188 447 153 q 524 294 524 222 l 524 319 l 401 289 q 344 262 367 281 q 321 214 321 243 q 390 153 321 153 m 306 815 l 381 1038 l 631 1038 l 506 815 l 306 815 z "},"ă":{"ha":865,"x_min":44,"x_max":853,"o":"m 315 -17 q 121 38 197 -17 q 44 189 44 92 q 110 342 44 289 q 299 422 176 396 l 524 469 q 499 558 524 528 q 429 589 474 589 q 324 499 336 589 l 57 507 q 175 705 79 643 q 429 767 271 767 q 793 447 793 767 l 793 228 q 805 181 793 192 q 838 169 817 169 l 853 169 l 853 0 q 813 -8 840 -4 q 758 -11 785 -11 q 687 -1 724 -11 q 621 35 650 8 q 579 115 592 63 q 485 18 550 53 q 315 -17 421 -17 m 390 153 q 485 188 447 153 q 524 294 524 222 l 524 319 l 401 289 q 344 262 367 281 q 321 214 321 243 q 390 153 321 153 m 429 811 q 263 868 325 811 q 196 1033 200 925 l 343 1033 q 369 965 347 986 q 429 944 392 944 q 489 965 467 944 q 515 1033 511 986 l 663 1033 q 596 868 658 925 q 429 811 533 811 z "},"ǎ":{"ha":865,"x_min":44,"x_max":853,"o":"m 315 -17 q 121 38 197 -17 q 44 189 44 92 q 110 342 44 289 q 299 422 176 396 l 524 469 q 499 558 524 528 q 429 589 474 589 q 324 499 336 589 l 57 507 q 175 705 79 643 q 429 767 271 767 q 793 447 793 767 l 793 228 q 805 181 793 192 q 838 169 817 169 l 853 169 l 853 0 q 813 -8 840 -4 q 758 -11 785 -11 q 687 -1 724 -11 q 621 35 650 8 q 579 115 592 63 q 485 18 550 53 q 315 -17 421 -17 m 390 153 q 485 188 447 153 q 524 294 524 222 l 524 319 l 401 289 q 344 262 367 281 q 321 214 321 243 q 390 153 321 153 m 167 1046 l 344 1046 l 429 924 l 514 1046 l 692 1046 l 553 815 l 306 815 l 167 1046 z "},"â":{"ha":865,"x_min":44,"x_max":853,"o":"m 315 -17 q 121 38 197 -17 q 44 189 44 92 q 110 342 44 289 q 299 422 176 396 l 524 469 q 499 558 524 528 q 429 589 474 589 q 324 499 336 589 l 57 507 q 175 705 79 643 q 429 767 271 767 q 793 447 793 767 l 793 228 q 805 181 793 192 q 838 169 817 169 l 853 169 l 853 0 q 813 -8 840 -4 q 758 -11 785 -11 q 687 -1 724 -11 q 621 35 650 8 q 579 115 592 63 q 485 18 550 53 q 315 -17 421 -17 m 390 153 q 485 188 447 153 q 524 294 524 222 l 524 319 l 401 289 q 344 262 367 281 q 321 214 321 243 q 390 153 321 153 m 167 815 l 306 1046 l 553 1046 l 692 815 l 514 815 l 429 938 l 344 815 l 167 815 z "},"ä":{"ha":865,"x_min":44,"x_max":853,"o":"m 315 -17 q 121 38 197 -17 q 44 189 44 92 q 110 342 44 289 q 299 422 176 396 l 524 469 q 499 558 524 528 q 429 589 474 589 q 324 499 336 589 l 57 507 q 175 705 79 643 q 429 767 271 767 q 793 447 793 767 l 793 228 q 805 181 793 192 q 838 169 817 169 l 853 169 l 853 0 q 813 -8 840 -4 q 758 -11 785 -11 q 687 -1 724 -11 q 621 35 650 8 q 579 115 592 63 q 485 18 550 53 q 315 -17 421 -17 m 390 153 q 485 188 447 153 q 524 294 524 222 l 524 319 l 401 289 q 344 262 367 281 q 321 214 321 243 q 390 153 321 153 m 136 819 l 136 1008 l 386 1008 l 386 819 l 136 819 m 472 819 l 472 1008 l 722 1008 l 722 819 l 472 819 z "},"à":{"ha":865,"x_min":44,"x_max":853,"o":"m 315 -17 q 121 38 197 -17 q 44 189 44 92 q 110 342 44 289 q 299 422 176 396 l 524 469 q 499 558 524 528 q 429 589 474 589 q 324 499 336 589 l 57 507 q 175 705 79 643 q 429 767 271 767 q 793 447 793 767 l 793 228 q 805 181 793 192 q 838 169 817 169 l 853 169 l 853 0 q 813 -8 840 -4 q 758 -11 785 -11 q 687 -1 724 -11 q 621 35 650 8 q 579 115 592 63 q 485 18 550 53 q 315 -17 421 -17 m 390 153 q 485 188 447 153 q 524 294 524 222 l 524 319 l 401 289 q 344 262 367 281 q 321 214 321 243 q 390 153 321 153 m 347 825 l 222 1047 l 472 1047 l 547 825 l 347 825 z "},"ā":{"ha":865,"x_min":44,"x_max":853,"o":"m 315 -17 q 121 38 197 -17 q 44 189 44 92 q 110 342 44 289 q 299 422 176 396 l 524 469 q 499 558 524 528 q 429 589 474 589 q 324 499 336 589 l 57 507 q 175 705 79 643 q 429 767 271 767 q 793 447 793 767 l 793 228 q 805 181 793 192 q 838 169 817 169 l 853 169 l 853 0 q 813 -8 840 -4 q 758 -11 785 -11 q 687 -1 724 -11 q 621 35 650 8 q 579 115 592 63 q 485 18 550 53 q 315 -17 421 -17 m 390 153 q 485 188 447 153 q 524 294 524 222 l 524 319 l 401 289 q 344 262 367 281 q 321 214 321 243 q 390 153 321 153 m 207 826 l 207 1014 l 651 1014 l 651 826 l 207 826 z "},"ą":{"ha":865,"x_min":44,"x_max":906,"o":"m 315 -17 q 121 38 197 -17 q 44 189 44 92 q 110 342 44 289 q 299 422 176 396 l 524 469 q 499 558 524 528 q 429 589 474 589 q 324 499 336 589 l 57 507 q 175 705 79 643 q 429 767 271 767 q 793 447 793 767 l 793 228 q 805 181 793 192 q 838 169 817 169 l 853 169 l 853 0 q 813 -8 840 -4 q 758 -11 785 -11 q 687 -1 724 -11 q 621 35 650 8 q 579 115 592 63 q 485 18 550 53 q 315 -17 421 -17 m 390 153 q 485 188 447 153 q 524 294 524 222 l 524 319 l 401 289 q 344 262 367 281 q 321 214 321 243 q 390 153 321 153 m 739 -308 q 608 -274 654 -308 q 563 -175 563 -239 q 582 -93 563 -131 q 625 -25 601 -56 l 675 39 l 853 0 l 815 -47 q 785 -91 799 -69 q 771 -131 771 -112 q 781 -156 771 -149 q 804 -164 792 -164 q 838 -158 821 -164 q 864 -147 856 -153 l 906 -272 q 837 -297 885 -286 q 739 -308 789 -308 z "},"å":{"ha":865,"x_min":44,"x_max":853,"o":"m 315 -17 q 121 38 197 -17 q 44 189 44 92 q 110 342 44 289 q 299 422 176 396 l 524 469 q 499 558 524 528 q 429 589 474 589 q 324 499 336 589 l 57 507 q 175 705 79 643 q 429 767 271 767 q 793 447 793 767 l 793 228 q 805 181 793 192 q 838 169 817 169 l 853 169 l 853 0 q 813 -8 840 -4 q 758 -11 785 -11 q 687 -1 724 -11 q 621 35 650 8 q 579 115 592 63 q 485 18 550 53 q 315 -17 421 -17 m 390 153 q 485 188 447 153 q 524 294 524 222 l 524 319 l 401 289 q 344 262 367 281 q 321 214 321 243 q 390 153 321 153 m 429 797 q 321 840 365 797 q 276 947 276 883 q 321 1055 276 1013 q 429 1097 365 1097 q 538 1055 494 1097 q 582 947 582 1013 q 538 840 582 883 q 429 797 494 797 m 429 900 q 463 913 450 900 q 476 947 476 926 q 463 981 476 968 q 429 994 450 994 q 395 981 408 994 q 382 947 382 968 q 395 913 382 926 q 429 900 408 900 z "},"ã":{"ha":865,"x_min":44,"x_max":853,"o":"m 315 -17 q 121 38 197 -17 q 44 189 44 92 q 110 342 44 289 q 299 422 176 396 l 524 469 q 499 558 524 528 q 429 589 474 589 q 324 499 336 589 l 57 507 q 175 705 79 643 q 429 767 271 767 q 793 447 793 767 l 793 228 q 805 181 793 192 q 838 169 817 169 l 853 169 l 853 0 q 813 -8 840 -4 q 758 -11 785 -11 q 687 -1 724 -11 q 621 35 650 8 q 579 115 592 63 q 485 18 550 53 q 315 -17 421 -17 m 390 153 q 485 188 447 153 q 524 294 524 222 l 524 319 l 401 289 q 344 262 367 281 q 321 214 321 243 q 390 153 321 153 m 504 825 q 446 833 469 825 q 393 867 422 842 q 351 885 371 885 q 321 871 335 885 q 303 818 307 857 l 178 818 q 221 978 178 917 q 346 1039 264 1039 q 407 1031 379 1039 q 464 999 435 1022 q 507 979 489 979 q 539 993 525 979 q 554 1047 553 1007 l 679 1047 q 635 885 679 946 q 504 825 590 825 z "},"æ":{"ha":1368,"x_min":44,"x_max":1324,"o":"m 315 -17 q 121 37 197 -17 q 44 189 44 90 q 110 344 44 292 q 299 422 176 396 l 524 469 q 497 560 524 531 q 429 589 471 589 q 324 499 335 589 l 57 507 q 173 703 79 639 q 426 767 267 767 q 689 699 597 767 q 799 749 738 731 q 932 767 860 767 q 1141 716 1053 767 q 1276 572 1229 665 q 1324 353 1324 479 l 1324 306 l 808 306 q 847 205 811 238 q 938 172 882 172 q 1006 188 978 172 q 1047 242 1035 203 l 1314 228 q 1181 45 1283 107 q 932 -17 1078 -17 q 750 19 831 -17 q 617 117 669 54 q 497 15 572 47 q 315 -17 421 -17 m 808 450 l 1054 450 q 1019 549 1053 515 q 932 583 986 583 q 847 547 881 583 q 808 450 813 511 m 401 150 q 491 185 458 151 q 524 289 524 218 l 524 319 l 401 289 q 344 263 368 281 q 321 211 321 244 q 338 165 321 181 q 401 150 356 149 z "},"b":{"ha":917,"x_min":78,"x_max":872,"o":"m 567 -17 q 432 16 488 -17 q 344 108 376 49 l 340 0 l 78 0 l 78 986 l 347 986 l 347 642 q 435 733 379 699 q 567 767 490 767 q 728 718 660 767 q 835 581 797 669 q 872 375 872 493 q 835 169 872 257 q 728 32 797 81 q 567 -17 660 -17 m 475 176 q 562 228 528 176 q 596 375 596 279 q 563 522 596 471 q 475 574 531 574 q 381 522 414 574 q 347 375 347 471 q 381 228 347 281 q 475 176 414 176 z "},"c":{"ha":878,"x_min":44,"x_max":847,"o":"m 450 -17 q 237 32 328 -17 q 95 169 146 81 q 44 375 44 257 q 95 581 44 493 q 237 717 146 668 q 450 767 328 767 q 644 728 558 767 q 784 620 731 690 q 847 451 838 550 l 571 440 q 531 540 563 507 q 450 572 499 572 q 354 521 388 572 q 321 375 321 469 q 354 228 321 279 q 450 176 388 176 q 533 209 500 176 q 571 313 565 242 l 847 304 q 787 133 839 206 q 649 22 735 61 q 450 -17 563 -17 z "},"ć":{"ha":878,"x_min":44,"x_max":847,"o":"m 450 -17 q 237 32 328 -17 q 95 169 146 81 q 44 375 44 257 q 95 581 44 493 q 237 717 146 668 q 450 767 328 767 q 644 728 558 767 q 784 620 731 690 q 847 451 838 550 l 571 440 q 531 540 563 507 q 450 572 499 572 q 354 521 388 572 q 321 375 321 469 q 354 228 321 279 q 450 176 388 176 q 533 209 500 176 q 571 313 565 242 l 847 304 q 787 133 839 206 q 649 22 735 61 q 450 -17 563 -17 m 326 815 l 401 1038 l 651 1038 l 526 815 l 326 815 z "},"č":{"ha":878,"x_min":44,"x_max":847,"o":"m 450 -17 q 237 32 328 -17 q 95 169 146 81 q 44 375 44 257 q 95 581 44 493 q 237 717 146 668 q 450 767 328 767 q 644 728 558 767 q 784 620 731 690 q 847 451 838 550 l 571 440 q 531 540 563 507 q 450 572 499 572 q 354 521 388 572 q 321 375 321 469 q 354 228 321 279 q 450 176 388 176 q 533 209 500 176 q 571 313 565 242 l 847 304 q 787 133 839 206 q 649 22 735 61 q 450 -17 563 -17 m 188 1046 l 365 1046 l 450 924 l 535 1046 l 713 1046 l 574 815 l 326 815 l 188 1046 z "},"ç":{"ha":878,"x_min":44,"x_max":847,"o":"m 450 -17 q 237 32 328 -17 q 95 169 146 81 q 44 375 44 257 q 95 581 44 493 q 237 717 146 668 q 450 767 328 767 q 644 728 558 767 q 784 620 731 690 q 847 451 838 550 l 571 440 q 531 540 563 507 q 450 572 499 572 q 354 521 388 572 q 321 375 321 469 q 354 228 321 279 q 450 176 388 176 q 533 209 500 176 q 571 313 565 242 l 847 304 q 787 133 839 206 q 649 22 735 61 q 450 -17 563 -17 m 446 -333 q 326 -301 374 -333 q 257 -214 278 -268 l 363 -167 q 392 -203 374 -190 q 440 -217 410 -217 q 485 -204 468 -217 q 501 -169 501 -192 q 485 -133 501 -146 q 421 -119 469 -119 l 353 -58 l 393 14 l 533 14 l 501 -39 q 603 -86 572 -47 q 635 -175 635 -125 q 608 -267 635 -232 q 540 -317 582 -301 q 446 -333 497 -333 z "},"ĉ":{"ha":878,"x_min":44,"x_max":847,"o":"m 450 -17 q 237 32 328 -17 q 95 169 146 81 q 44 375 44 257 q 95 581 44 493 q 237 717 146 668 q 450 767 328 767 q 644 728 558 767 q 784 620 731 690 q 847 451 838 550 l 571 440 q 531 540 563 507 q 450 572 499 572 q 354 521 388 572 q 321 375 321 469 q 354 228 321 279 q 450 176 388 176 q 533 209 500 176 q 571 313 565 242 l 847 304 q 787 133 839 206 q 649 22 735 61 q 450 -17 563 -17 m 188 815 l 326 1046 l 574 1046 l 713 815 l 535 815 l 450 938 l 365 815 l 188 815 z "},"ċ":{"ha":878,"x_min":44,"x_max":847,"o":"m 450 -17 q 237 32 328 -17 q 95 169 146 81 q 44 375 44 257 q 95 581 44 493 q 237 717 146 668 q 450 767 328 767 q 644 728 558 767 q 784 620 731 690 q 847 451 838 550 l 571 440 q 531 540 563 507 q 450 572 499 572 q 354 521 388 572 q 321 375 321 469 q 354 228 321 279 q 450 176 388 176 q 533 209 500 176 q 571 313 565 242 l 847 304 q 787 133 839 206 q 649 22 735 61 q 450 -17 563 -17 m 311 825 l 311 1014 l 589 1014 l 589 825 l 311 825 z "},"d":{"ha":917,"x_min":44,"x_max":839,"o":"m 346 -17 q 185 31 253 -17 q 81 167 118 79 q 44 375 44 256 q 82 583 44 494 q 188 719 119 671 q 346 767 256 767 q 485 733 429 767 q 569 642 540 700 l 569 986 l 839 986 l 839 0 l 576 0 l 572 108 q 483 16 542 49 q 346 -17 424 -17 m 444 176 q 537 224 504 176 q 569 375 569 271 q 538 526 569 479 q 444 574 506 574 q 354 520 388 574 q 321 375 321 467 q 355 231 321 286 q 444 176 389 176 z "},"ď":{"ha":1101,"x_min":44,"x_max":1157,"o":"m 346 -17 q 185 31 253 -17 q 81 167 118 79 q 44 375 44 256 q 82 583 44 494 q 188 719 119 671 q 346 767 256 767 q 485 733 429 767 q 569 642 540 700 l 569 986 l 839 986 l 839 0 l 576 0 l 572 108 q 483 16 542 49 q 346 -17 424 -17 m 444 176 q 537 224 504 176 q 569 375 569 271 q 538 526 569 479 q 444 574 506 574 q 354 520 388 574 q 321 375 321 467 q 355 231 321 286 q 444 176 389 176 m 896 560 l 935 986 l 1157 986 l 1079 560 l 896 560 z "},"đ":{"ha":917,"x_min":44,"x_max":932,"o":"m 346 -17 q 185 31 253 -17 q 81 167 118 79 q 44 375 44 256 q 82 583 44 494 q 188 719 119 671 q 346 767 256 767 q 485 733 429 767 q 569 642 540 700 l 569 986 l 839 986 l 839 0 l 576 0 l 572 108 q 483 16 542 49 q 346 -17 424 -17 m 444 176 q 537 224 504 176 q 569 375 569 271 q 538 526 569 479 q 444 574 506 574 q 354 520 388 574 q 321 375 321 467 q 355 231 321 286 q 444 176 389 176 m 404 794 l 404 933 l 932 933 l 932 794 l 404 794 z "},"ð":{"ha":900,"x_min":44,"x_max":856,"o":"m 450 -17 q 145 72 246 -17 q 44 317 44 161 q 145 561 44 472 q 450 650 246 650 q 524 643 488 650 q 594 624 560 636 q 557 698 581 664 q 499 758 533 732 l 313 674 l 271 774 l 369 818 q 251 836 317 832 l 326 1003 q 472 974 406 996 q 590 921 538 953 l 771 1003 l 813 903 l 686 844 q 815 632 774 756 q 856 372 856 508 q 755 79 856 175 q 450 -17 654 -17 m 450 171 q 546 212 513 171 q 579 317 579 253 q 546 422 579 381 q 450 463 513 463 q 354 422 388 463 q 321 317 321 381 q 354 212 321 253 q 450 171 388 171 z "},"e":{"ha":882,"x_min":44,"x_max":838,"o":"m 446 -17 q 235 32 325 -17 q 94 169 144 81 q 44 375 44 257 q 94 581 44 493 q 235 717 144 668 q 446 767 325 767 q 655 716 567 767 q 790 572 743 665 q 838 353 838 479 l 838 306 l 322 306 q 360 205 325 238 q 451 172 396 172 q 520 188 492 172 q 561 242 549 203 l 828 228 q 694 45 797 107 q 446 -17 592 -17 m 322 450 l 568 450 q 533 549 567 515 q 446 583 500 583 q 360 547 394 583 q 322 450 326 511 z "},"é":{"ha":882,"x_min":44,"x_max":838,"o":"m 446 -17 q 235 32 325 -17 q 94 169 144 81 q 44 375 44 257 q 94 581 44 493 q 235 717 144 668 q 446 767 325 767 q 655 716 567 767 q 790 572 743 665 q 838 353 838 479 l 838 306 l 322 306 q 360 205 325 238 q 451 172 396 172 q 520 188 492 172 q 561 242 549 203 l 828 228 q 694 45 797 107 q 446 -17 592 -17 m 322 450 l 568 450 q 533 549 567 515 q 446 583 500 583 q 360 547 394 583 q 322 450 326 511 m 326 813 l 401 1035 l 651 1035 l 526 813 l 326 813 z "},"ě":{"ha":882,"x_min":44,"x_max":838,"o":"m 446 -17 q 235 32 325 -17 q 94 169 144 81 q 44 375 44 257 q 94 581 44 493 q 235 717 144 668 q 446 767 325 767 q 655 716 567 767 q 790 572 743 665 q 838 353 838 479 l 838 306 l 322 306 q 360 205 325 238 q 451 172 396 172 q 520 188 492 172 q 561 242 549 203 l 828 228 q 694 45 797 107 q 446 -17 592 -17 m 322 450 l 568 450 q 533 549 567 515 q 446 583 500 583 q 360 547 394 583 q 322 450 326 511 m 188 1043 l 365 1043 l 450 921 l 535 1043 l 713 1043 l 574 813 l 326 813 l 188 1043 z "},"ê":{"ha":882,"x_min":44,"x_max":838,"o":"m 446 -17 q 235 32 325 -17 q 94 169 144 81 q 44 375 44 257 q 94 581 44 493 q 235 717 144 668 q 446 767 325 767 q 655 716 567 767 q 790 572 743 665 q 838 353 838 479 l 838 306 l 322 306 q 360 205 325 238 q 451 172 396 172 q 520 188 492 172 q 561 242 549 203 l 828 228 q 694 45 797 107 q 446 -17 592 -17 m 322 450 l 568 450 q 533 549 567 515 q 446 583 500 583 q 360 547 394 583 q 322 450 326 511 m 188 813 l 326 1043 l 574 1043 l 713 813 l 535 813 l 450 935 l 365 813 l 188 813 z "},"ë":{"ha":882,"x_min":44,"x_max":838,"o":"m 446 -17 q 235 32 325 -17 q 94 169 144 81 q 44 375 44 257 q 94 581 44 493 q 235 717 144 668 q 446 767 325 767 q 655 716 567 767 q 790 572 743 665 q 838 353 838 479 l 838 306 l 322 306 q 360 205 325 238 q 451 172 396 172 q 520 188 492 172 q 561 242 549 203 l 828 228 q 694 45 797 107 q 446 -17 592 -17 m 322 450 l 568 450 q 533 549 567 515 q 446 583 500 583 q 360 547 394 583 q 322 450 326 511 m 157 817 l 157 1006 l 407 1006 l 407 817 l 157 817 m 493 817 l 493 1006 l 743 1006 l 743 817 l 493 817 z "},"ė":{"ha":882,"x_min":44,"x_max":838,"o":"m 446 -17 q 235 32 325 -17 q 94 169 144 81 q 44 375 44 257 q 94 581 44 493 q 235 717 144 668 q 446 767 325 767 q 655 716 567 767 q 790 572 743 665 q 838 353 838 479 l 838 306 l 322 306 q 360 205 325 238 q 451 172 396 172 q 520 188 492 172 q 561 242 549 203 l 828 228 q 694 45 797 107 q 446 -17 592 -17 m 322 450 l 568 450 q 533 549 567 515 q 446 583 500 583 q 360 547 394 583 q 322 450 326 511 m 311 822 l 311 1011 l 589 1011 l 589 822 l 311 822 z "},"è":{"ha":882,"x_min":44,"x_max":838,"o":"m 446 -17 q 235 32 325 -17 q 94 169 144 81 q 44 375 44 257 q 94 581 44 493 q 235 717 144 668 q 446 767 325 767 q 655 716 567 767 q 790 572 743 665 q 838 353 838 479 l 838 306 l 322 306 q 360 205 325 238 q 451 172 396 172 q 520 188 492 172 q 561 242 549 203 l 828 228 q 694 45 797 107 q 446 -17 592 -17 m 322 450 l 568 450 q 533 549 567 515 q 446 583 500 583 q 360 547 394 583 q 322 450 326 511 m 368 822 l 243 1044 l 493 1044 l 568 822 l 368 822 z "},"ē":{"ha":882,"x_min":44,"x_max":838,"o":"m 446 -17 q 235 32 325 -17 q 94 169 144 81 q 44 375 44 257 q 94 581 44 493 q 235 717 144 668 q 446 767 325 767 q 655 716 567 767 q 790 572 743 665 q 838 353 838 479 l 838 306 l 322 306 q 360 205 325 238 q 451 172 396 172 q 520 188 492 172 q 561 242 549 203 l 828 228 q 694 45 797 107 q 446 -17 592 -17 m 322 450 l 568 450 q 533 549 567 515 q 446 583 500 583 q 360 547 394 583 q 322 450 326 511 m 228 824 l 228 1011 l 672 1011 l 672 824 l 228 824 z "},"ę":{"ha":882,"x_min":44,"x_max":838,"o":"m 446 -17 q 235 32 325 -17 q 94 169 144 81 q 44 375 44 257 q 94 581 44 493 q 235 717 144 668 q 446 767 325 767 q 655 716 567 767 q 790 572 743 665 q 838 353 838 479 l 838 306 l 322 306 q 360 205 325 238 q 451 172 396 172 q 520 188 492 172 q 561 242 549 203 l 828 228 q 764 104 810 157 l 765 104 l 638 -47 q 599 -131 599 -94 q 609 -156 599 -149 q 632 -164 619 -164 q 663 -158 647 -164 q 686 -147 678 -153 l 728 -272 q 662 -297 707 -286 q 567 -308 617 -308 q 436 -274 482 -308 q 390 -175 390 -239 q 406 -97 390 -131 q 449 -33 422 -64 l 464 -17 q 446 -17 454 -17 m 322 450 l 568 450 q 533 549 567 515 q 446 583 500 583 q 360 547 394 583 q 322 450 326 511 z "},"ẽ":{"ha":882,"x_min":44,"x_max":838,"o":"m 446 -17 q 235 32 325 -17 q 94 169 144 81 q 44 375 44 257 q 94 581 44 493 q 235 717 144 668 q 446 767 325 767 q 655 716 567 767 q 790 572 743 665 q 838 353 838 479 l 838 306 l 322 306 q 360 205 325 238 q 451 172 396 172 q 520 188 492 172 q 561 242 549 203 l 828 228 q 694 45 797 107 q 446 -17 592 -17 m 322 450 l 568 450 q 533 549 567 515 q 446 583 500 583 q 360 547 394 583 q 322 450 326 511 m 525 822 q 467 831 490 822 q 414 864 443 839 q 372 882 392 882 q 342 868 356 882 q 324 815 328 854 l 199 815 q 242 975 199 914 q 367 1036 285 1036 q 428 1028 400 1036 q 485 996 456 1019 q 528 976 510 976 q 560 990 546 976 q 575 1044 574 1004 l 700 1044 q 656 883 700 943 q 525 822 611 822 z "},"ə":{"ha":882,"x_min":44,"x_max":838,"o":"m 436 767 q 647 718 557 767 q 788 581 738 669 q 838 375 838 493 q 788 170 838 258 q 647 33 738 82 q 436 -17 557 -17 q 228 34 315 -17 q 92 178 140 85 q 44 397 44 271 l 44 444 l 560 444 q 523 545 558 513 q 431 578 488 578 q 363 563 392 578 q 321 508 333 547 l 54 522 q 188 705 86 643 q 436 767 290 767 m 560 300 l 314 300 q 349 201 317 235 q 436 167 382 167 q 522 203 489 167 q 560 300 556 239 z "},"f":{"ha":668,"x_min":50,"x_max":631,"o":"m 164 0 l 164 513 l 50 513 l 50 703 l 164 703 l 164 722 q 233 919 164 851 q 444 986 301 986 l 631 986 l 631 796 l 514 796 q 453 776 471 796 q 435 711 435 756 l 435 703 l 619 703 l 619 513 l 435 513 l 435 0 l 164 0 z "},"g":{"ha":917,"x_min":44,"x_max":839,"o":"m 449 -225 q 247 -199 324 -225 q 128 -126 169 -172 q 68 -19 86 -79 l 343 0 q 374 -41 351 -26 q 449 -56 397 -56 q 536 -24 506 -56 q 567 83 567 8 l 567 138 q 482 61 540 90 q 351 32 424 32 q 192 76 261 32 q 83 203 122 121 q 44 397 44 285 q 83 589 44 506 q 192 719 122 672 q 351 767 261 767 q 489 731 436 767 q 572 636 542 694 l 572 750 l 839 750 l 839 89 q 788 -89 839 -19 q 649 -192 738 -158 q 449 -225 561 -225 m 447 214 q 537 263 504 214 q 569 400 569 311 q 537 537 569 488 q 447 586 504 586 q 354 535 388 586 q 321 400 321 483 q 356 265 321 315 q 447 214 390 214 z "},"ğ":{"ha":917,"x_min":44,"x_max":839,"o":"m 449 -225 q 247 -199 324 -225 q 128 -126 169 -172 q 68 -19 86 -79 l 343 0 q 374 -41 351 -26 q 449 -56 397 -56 q 536 -24 506 -56 q 567 83 567 8 l 567 138 q 482 61 540 90 q 351 32 424 32 q 192 76 261 32 q 83 203 122 121 q 44 397 44 285 q 83 589 44 506 q 192 719 122 672 q 351 767 261 767 q 489 731 436 767 q 572 636 542 694 l 572 750 l 839 750 l 839 89 q 788 -89 839 -19 q 649 -192 738 -158 q 449 -225 561 -225 m 447 214 q 537 263 504 214 q 569 400 569 311 q 537 537 569 488 q 447 586 504 586 q 354 535 388 586 q 321 400 321 483 q 356 265 321 315 q 447 214 390 214 m 454 811 q 288 868 350 811 q 221 1033 225 925 l 368 1033 q 394 965 372 986 q 454 944 417 944 q 514 965 492 944 q 540 1033 536 986 l 688 1033 q 621 868 683 925 q 454 811 558 811 z "},"ǧ":{"ha":917,"x_min":44,"x_max":839,"o":"m 449 -225 q 247 -199 324 -225 q 128 -126 169 -172 q 68 -19 86 -79 l 343 0 q 374 -41 351 -26 q 449 -56 397 -56 q 536 -24 506 -56 q 567 83 567 8 l 567 138 q 482 61 540 90 q 351 32 424 32 q 192 76 261 32 q 83 203 122 121 q 44 397 44 285 q 83 589 44 506 q 192 719 122 672 q 351 767 261 767 q 489 731 436 767 q 572 636 542 694 l 572 750 l 839 750 l 839 89 q 788 -89 839 -19 q 649 -192 738 -158 q 449 -225 561 -225 m 447 214 q 537 263 504 214 q 569 400 569 311 q 537 537 569 488 q 447 586 504 586 q 354 535 388 586 q 321 400 321 483 q 356 265 321 315 q 447 214 390 214 m 192 1046 l 369 1046 l 454 924 l 539 1046 l 717 1046 l 578 815 l 331 815 l 192 1046 z "},"ĝ":{"ha":917,"x_min":44,"x_max":839,"o":"m 449 -225 q 247 -199 324 -225 q 128 -126 169 -172 q 68 -19 86 -79 l 343 0 q 374 -41 351 -26 q 449 -56 397 -56 q 536 -24 506 -56 q 567 83 567 8 l 567 138 q 482 61 540 90 q 351 32 424 32 q 192 76 261 32 q 83 203 122 121 q 44 397 44 285 q 83 589 44 506 q 192 719 122 672 q 351 767 261 767 q 489 731 436 767 q 572 636 542 694 l 572 750 l 839 750 l 839 89 q 788 -89 839 -19 q 649 -192 738 -158 q 449 -225 561 -225 m 447 214 q 537 263 504 214 q 569 400 569 311 q 537 537 569 488 q 447 586 504 586 q 354 535 388 586 q 321 400 321 483 q 356 265 321 315 q 447 214 390 214 m 192 815 l 331 1046 l 578 1046 l 717 815 l 539 815 l 454 938 l 369 815 l 192 815 z "},"ģ":{"ha":917,"x_min":44,"x_max":839,"o":"m 449 -225 q 247 -199 324 -225 q 128 -126 169 -172 q 68 -19 86 -79 l 343 0 q 374 -41 351 -26 q 449 -56 397 -56 q 536 -24 506 -56 q 567 83 567 8 l 567 138 q 482 61 540 90 q 351 32 424 32 q 192 76 261 32 q 83 203 122 121 q 44 397 44 285 q 83 589 44 506 q 192 719 122 672 q 351 767 261 767 q 489 731 436 767 q 572 636 542 694 l 572 750 l 839 750 l 839 89 q 788 -89 839 -19 q 649 -192 738 -158 q 449 -225 561 -225 m 447 214 q 537 263 504 214 q 569 400 569 311 q 537 537 569 488 q 447 586 504 586 q 354 535 388 586 q 321 400 321 483 q 356 265 321 315 q 447 214 390 214 m 353 811 l 353 978 l 433 1111 l 583 1111 l 514 997 l 561 997 l 561 811 l 353 811 z "},"ġ":{"ha":917,"x_min":44,"x_max":839,"o":"m 449 -225 q 247 -199 324 -225 q 128 -126 169 -172 q 68 -19 86 -79 l 343 0 q 374 -41 351 -26 q 449 -56 397 -56 q 536 -24 506 -56 q 567 83 567 8 l 567 138 q 482 61 540 90 q 351 32 424 32 q 192 76 261 32 q 83 203 122 121 q 44 397 44 285 q 83 589 44 506 q 192 719 122 672 q 351 767 261 767 q 489 731 436 767 q 572 636 542 694 l 572 750 l 839 750 l 839 89 q 788 -89 839 -19 q 649 -192 738 -158 q 449 -225 561 -225 m 447 214 q 537 263 504 214 q 569 400 569 311 q 537 537 569 488 q 447 586 504 586 q 354 535 388 586 q 321 400 321 483 q 356 265 321 315 q 447 214 390 214 m 315 825 l 315 1014 l 593 1014 l 593 825 l 315 825 z "},"ḡ":{"ha":917,"x_min":44,"x_max":839,"o":"m 449 -225 q 247 -199 324 -225 q 128 -126 169 -172 q 68 -19 86 -79 l 343 0 q 374 -41 351 -26 q 449 -56 397 -56 q 536 -24 506 -56 q 567 83 567 8 l 567 138 q 482 61 540 90 q 351 32 424 32 q 192 76 261 32 q 83 203 122 121 q 44 397 44 285 q 83 589 44 506 q 192 719 122 672 q 351 767 261 767 q 489 731 436 767 q 572 636 542 694 l 572 750 l 839 750 l 839 89 q 788 -89 839 -19 q 649 -192 738 -158 q 449 -225 561 -225 m 447 214 q 537 263 504 214 q 569 400 569 311 q 537 537 569 488 q 447 586 504 586 q 354 535 388 586 q 321 400 321 483 q 356 265 321 315 q 447 214 390 214 m 232 826 l 232 1014 l 676 1014 l 676 826 l 232 826 z "},"ǥ":{"ha":946,"x_min":44,"x_max":924,"o":"m 449 -225 q 247 -199 324 -225 q 128 -126 169 -172 q 68 -19 86 -79 l 343 0 q 374 -41 351 -26 q 449 -56 397 -56 q 536 -24 506 -56 q 567 83 567 8 l 567 138 q 482 61 540 90 q 351 32 424 32 q 192 76 261 32 q 83 203 122 121 q 44 397 44 285 q 83 589 44 506 q 192 719 122 672 q 351 767 261 767 q 489 731 436 767 q 572 636 542 694 l 572 750 l 839 750 l 839 461 l 924 461 l 924 322 l 839 322 l 839 89 q 788 -89 839 -19 q 649 -192 738 -158 q 449 -225 561 -225 m 447 214 q 561 322 536 214 l 429 322 l 429 461 l 564 461 q 524 553 554 521 q 447 586 493 586 q 354 535 388 586 q 321 400 321 483 q 356 265 321 315 q 447 214 390 214 z "},"h":{"ha":876,"x_min":78,"x_max":799,"o":"m 78 0 l 78 986 l 347 986 l 347 672 q 430 743 379 719 q 542 767 481 767 q 735 687 671 767 q 799 482 799 607 l 799 0 l 529 0 l 529 422 q 511 524 529 489 q 444 560 493 560 q 347 414 347 560 l 347 0 l 78 0 z "},"ħ":{"ha":876,"x_min":-14,"x_max":799,"o":"m 78 0 l 78 986 l 347 986 l 347 672 q 430 743 379 719 q 542 767 481 767 q 735 687 671 767 q 799 482 799 607 l 799 0 l 529 0 l 529 422 q 511 524 529 489 q 444 560 493 560 q 347 414 347 560 l 347 0 l 78 0 m -14 794 l -14 933 l 514 933 l 514 794 l -14 794 z "},"ĥ":{"ha":876,"x_min":-46,"x_max":799,"o":"m 78 0 l 78 986 l 347 986 l 347 672 q 430 743 379 719 q 542 767 481 767 q 735 687 671 767 q 799 482 799 607 l 799 0 l 529 0 l 529 422 q 511 524 529 489 q 444 560 493 560 q 347 414 347 560 l 347 0 l 78 0 m -46 1024 l 93 1254 l 340 1254 l 479 1024 l 301 1024 l 217 1146 l 132 1024 l -46 1024 z "},"i":{"ha":425,"x_min":74,"x_max":351,"o":"m 78 0 l 78 750 l 347 750 l 347 0 l 78 0 m 74 825 l 74 1014 l 351 1014 l 351 825 l 74 825 z "},"ı":{"ha":425,"x_min":78,"x_max":347,"o":"m 78 0 l 78 750 l 347 750 l 347 0 l 78 0 z "},"í":{"ha":425,"x_min":78,"x_max":414,"o":"m 78 0 l 78 750 l 347 750 l 347 0 l 78 0 m 89 815 l 164 1038 l 414 1038 l 289 815 l 89 815 z "},"î":{"ha":425,"x_min":-50,"x_max":475,"o":"m 78 0 l 78 750 l 347 750 l 347 0 l 78 0 m -50 815 l 89 1046 l 336 1046 l 475 815 l 297 815 l 213 938 l 128 815 l -50 815 z "},"ï":{"ha":425,"x_min":-81,"x_max":506,"o":"m 78 0 l 78 750 l 347 750 l 347 0 l 78 0 m -81 819 l -81 1008 l 169 1008 l 169 819 l -81 819 m 256 819 l 256 1008 l 506 1008 l 506 819 l 256 819 z "},"ì":{"ha":425,"x_min":6,"x_max":347,"o":"m 78 0 l 78 750 l 347 750 l 347 0 l 78 0 m 131 825 l 6 1047 l 256 1047 l 331 825 l 131 825 z "},"ī":{"ha":425,"x_min":-10,"x_max":435,"o":"m 78 0 l 78 750 l 347 750 l 347 0 l 78 0 m -10 826 l -10 1014 l 435 1014 l 435 826 l -10 826 z "},"į":{"ha":425,"x_min":57,"x_max":400,"o":"m 78 0 l 78 750 l 347 750 l 347 0 l 78 0 m 74 825 l 74 1014 l 351 1014 l 351 825 l 74 825 m 233 -308 q 103 -274 149 -308 q 57 -175 57 -239 q 76 -93 57 -131 q 119 -25 96 -56 l 169 39 l 347 0 l 310 -47 q 279 -91 293 -69 q 265 -131 265 -112 q 276 -156 265 -149 q 299 -164 286 -164 q 333 -158 315 -164 q 358 -147 350 -153 l 400 -272 q 331 -297 379 -286 q 233 -308 283 -308 z "},"ĩ":{"ha":425,"x_min":-39,"x_max":463,"o":"m 78 0 l 78 750 l 347 750 l 347 0 l 78 0 m 288 825 q 229 833 253 825 q 176 867 206 842 q 135 885 154 885 q 104 871 118 885 q 86 818 90 857 l -39 818 q 4 978 -39 917 q 129 1039 47 1039 q 190 1031 163 1039 q 247 999 218 1022 q 290 979 272 979 q 322 993 308 979 q 338 1047 336 1007 l 463 1047 q 418 885 463 946 q 288 825 374 825 z "},"ĳ":{"ha":896,"x_min":74,"x_max":822,"o":"m 78 0 l 78 750 l 347 750 l 347 0 l 78 0 m 74 825 l 74 1014 l 351 1014 l 351 825 l 74 825 m 368 -208 l 368 -18 l 464 -18 q 528 -1 508 -18 q 547 67 547 15 l 547 750 l 818 750 l 818 61 q 753 -144 818 -81 q 528 -208 689 -208 l 368 -208 m 544 825 l 544 1014 l 822 1014 l 822 825 l 544 825 z "},"j":{"ha":526,"x_min":-1,"x_max":453,"o":"m -1 -208 l -1 -18 l 94 -18 q 158 -1 139 -18 q 178 67 178 15 l 178 750 l 449 750 l 449 61 q 384 -144 449 -81 q 158 -208 319 -208 l -1 -208 m 175 825 l 175 1014 l 453 1014 l 453 825 l 175 825 z "},"ȷ":{"ha":526,"x_min":-1,"x_max":449,"o":"m -1 -208 l -1 -18 l 94 -18 q 158 -1 139 -18 q 178 67 178 15 l 178 750 l 449 750 l 449 61 q 384 -144 449 -81 q 158 -208 319 -208 l -1 -208 z "},"ĵ":{"ha":526,"x_min":-1,"x_max":576,"o":"m -1 -208 l -1 -18 l 94 -18 q 158 -1 139 -18 q 178 67 178 15 l 178 750 l 449 750 l 449 61 q 384 -144 449 -81 q 158 -208 319 -208 l -1 -208 m 51 815 l 190 1046 l 438 1046 l 576 815 l 399 815 l 314 938 l 229 815 l 51 815 z "},"k":{"ha":951,"x_min":78,"x_max":889,"o":"m 78 0 l 78 986 l 347 986 l 347 506 l 569 750 l 883 750 l 594 447 l 889 0 l 603 0 l 422 303 l 347 222 l 347 0 l 78 0 z "},"ǩ":{"ha":951,"x_min":-50,"x_max":889,"o":"m 78 0 l 78 986 l 347 986 l 347 506 l 569 750 l 883 750 l 594 447 l 889 0 l 603 0 l 422 303 l 347 222 l 347 0 l 78 0 m -50 1268 l 128 1268 l 213 1146 l 297 1268 l 475 1268 l 336 1038 l 89 1038 l -50 1268 z "},"ķ":{"ha":951,"x_min":78,"x_max":889,"o":"m 78 0 l 78 986 l 347 986 l 347 506 l 569 750 l 883 750 l 594 447 l 889 0 l 603 0 l 422 303 l 347 222 l 347 0 l 78 0 m 333 -364 l 403 -250 l 356 -250 l 356 -64 l 564 -64 l 564 -231 l 483 -364 l 333 -364 z "},"l":{"ha":476,"x_min":78,"x_max":457,"o":"m 306 0 q 138 54 197 0 q 78 231 78 108 l 78 986 l 347 986 l 347 261 q 365 206 347 222 q 417 190 383 190 l 457 190 l 457 0 l 306 0 z "},"ĺ":{"ha":476,"x_min":78,"x_max":457,"o":"m 306 0 q 138 54 197 0 q 78 231 78 108 l 78 986 l 347 986 l 347 261 q 365 206 347 222 q 417 190 383 190 l 457 190 l 457 0 l 306 0 m 89 1038 l 164 1260 l 414 1260 l 289 1038 l 89 1038 z "},"ľ":{"ha":608,"x_min":78,"x_max":664,"o":"m 306 0 q 138 54 197 0 q 78 231 78 108 l 78 986 l 347 986 l 347 261 q 365 206 347 222 q 417 190 383 190 l 457 190 l 457 0 l 306 0 m 403 560 l 442 986 l 664 986 l 586 560 l 403 560 z "},"ļ":{"ha":476,"x_min":78,"x_max":457,"o":"m 306 0 q 138 54 197 0 q 78 231 78 108 l 78 986 l 347 986 l 347 261 q 365 206 347 222 q 417 190 383 190 l 457 190 l 457 0 l 306 0 m 146 -364 l 215 -250 l 168 -250 l 168 -64 l 376 -64 l 376 -231 l 296 -364 l 146 -364 z "},"ł":{"ha":476,"x_min":0,"x_max":492,"o":"m 306 0 q 138 54 197 0 q 78 231 78 108 l 78 986 l 347 986 l 347 261 q 365 206 347 222 q 417 190 383 190 l 457 190 l 457 0 l 306 0 m 0 361 l 0 528 l 492 694 l 492 528 l 0 361 z "},"m":{"ha":1271,"x_min":78,"x_max":1193,"o":"m 78 0 l 78 750 l 319 750 l 325 633 q 407 733 354 699 q 525 767 460 767 q 655 726 603 767 q 732 615 707 685 q 815 728 760 690 q 939 767 869 767 q 1122 695 1050 767 q 1193 482 1193 624 l 1193 0 l 924 0 l 924 403 q 905 521 924 482 q 839 560 886 560 q 774 519 796 560 q 753 403 753 478 l 753 0 l 517 0 l 517 403 q 499 521 517 482 q 433 560 481 560 q 369 519 390 560 q 347 403 347 478 l 347 0 l 78 0 z "},"n":{"ha":876,"x_min":78,"x_max":799,"o":"m 78 0 l 78 750 l 319 750 l 325 635 q 413 737 356 707 q 542 767 469 767 q 728 693 658 767 q 799 482 799 619 l 799 0 l 529 0 l 529 389 q 513 515 529 471 q 443 560 497 560 q 369 515 392 560 q 347 389 347 471 l 347 0 l 78 0 z "},"ń":{"ha":876,"x_min":78,"x_max":799,"o":"m 78 0 l 78 750 l 319 750 l 325 635 q 413 737 356 707 q 542 767 469 767 q 728 693 658 767 q 799 482 799 619 l 799 0 l 529 0 l 529 389 q 513 515 529 471 q 443 560 497 560 q 369 515 392 560 q 347 389 347 471 l 347 0 l 78 0 m 314 815 l 389 1038 l 639 1038 l 514 815 l 314 815 z "},"ň":{"ha":876,"x_min":78,"x_max":799,"o":"m 78 0 l 78 750 l 319 750 l 325 635 q 413 737 356 707 q 542 767 469 767 q 728 693 658 767 q 799 482 799 619 l 799 0 l 529 0 l 529 389 q 513 515 529 471 q 443 560 497 560 q 369 515 392 560 q 347 389 347 471 l 347 0 l 78 0 m 175 1046 l 353 1046 l 438 924 l 522 1046 l 700 1046 l 561 815 l 314 815 l 175 1046 z "},"ņ":{"ha":876,"x_min":78,"x_max":799,"o":"m 78 0 l 78 750 l 319 750 l 325 635 q 413 737 356 707 q 542 767 469 767 q 728 693 658 767 q 799 482 799 619 l 799 0 l 529 0 l 529 389 q 513 515 529 471 q 443 560 497 560 q 369 515 392 560 q 347 389 347 471 l 347 0 l 78 0 m 311 -364 l 381 -250 l 333 -250 l 333 -64 l 542 -64 l 542 -231 l 461 -364 l 311 -364 z "},"ñ":{"ha":876,"x_min":78,"x_max":799,"o":"m 78 0 l 78 750 l 319 750 l 325 635 q 413 737 356 707 q 542 767 469 767 q 728 693 658 767 q 799 482 799 619 l 799 0 l 529 0 l 529 389 q 513 515 529 471 q 443 560 497 560 q 369 515 392 560 q 347 389 347 471 l 347 0 l 78 0 m 513 825 q 454 833 478 825 q 401 867 431 842 q 360 885 379 885 q 329 871 343 885 q 311 818 315 857 l 186 818 q 229 978 186 917 q 354 1039 272 1039 q 415 1031 388 1039 q 472 999 443 1022 q 515 979 497 979 q 547 993 533 979 q 563 1047 561 1007 l 688 1047 q 643 885 688 946 q 513 825 599 825 z "},"ŋ":{"ha":876,"x_min":78,"x_max":799,"o":"m 78 0 l 78 750 l 319 750 l 325 635 q 413 737 356 707 q 542 767 469 767 q 728 693 658 767 q 799 482 799 619 l 799 0 q 768 -105 799 -57 q 681 -181 738 -153 q 547 -208 625 -208 l 389 -208 l 389 -42 l 450 -42 q 508 -23 488 -42 q 529 29 529 -4 l 529 389 q 513 515 529 471 q 443 560 497 560 q 369 515 392 560 q 347 389 347 471 l 347 0 l 78 0 z "},"o":{"ha":900,"x_min":44,"x_max":856,"o":"m 450 -17 q 237 32 328 -17 q 95 169 146 81 q 44 375 44 257 q 95 581 44 493 q 237 717 146 668 q 450 767 328 767 q 663 717 572 767 q 805 581 754 668 q 856 375 856 493 q 805 169 856 257 q 663 32 754 81 q 450 -17 572 -17 m 450 176 q 546 228 513 176 q 579 375 579 279 q 546 522 579 469 q 450 574 513 574 q 354 522 388 574 q 321 375 321 469 q 354 228 321 279 q 450 176 388 176 z "},"ó":{"ha":900,"x_min":44,"x_max":856,"o":"m 450 -17 q 237 32 328 -17 q 95 169 146 81 q 44 375 44 257 q 95 581 44 493 q 237 717 146 668 q 450 767 328 767 q 663 717 572 767 q 805 581 754 668 q 856 375 856 493 q 805 169 856 257 q 663 32 754 81 q 450 -17 572 -17 m 450 176 q 546 228 513 176 q 579 375 579 279 q 546 522 579 469 q 450 574 513 574 q 354 522 388 574 q 321 375 321 469 q 354 228 321 279 q 450 176 388 176 m 326 815 l 401 1038 l 651 1038 l 526 815 l 326 815 z "},"ô":{"ha":900,"x_min":44,"x_max":856,"o":"m 450 -17 q 237 32 328 -17 q 95 169 146 81 q 44 375 44 257 q 95 581 44 493 q 237 717 146 668 q 450 767 328 767 q 663 717 572 767 q 805 581 754 668 q 856 375 856 493 q 805 169 856 257 q 663 32 754 81 q 450 -17 572 -17 m 450 176 q 546 228 513 176 q 579 375 579 279 q 546 522 579 469 q 450 574 513 574 q 354 522 388 574 q 321 375 321 469 q 354 228 321 279 q 450 176 388 176 m 188 815 l 326 1046 l 574 1046 l 713 815 l 535 815 l 450 938 l 365 815 l 188 815 z "},"ö":{"ha":900,"x_min":44,"x_max":856,"o":"m 450 -17 q 237 32 328 -17 q 95 169 146 81 q 44 375 44 257 q 95 581 44 493 q 237 717 146 668 q 450 767 328 767 q 663 717 572 767 q 805 581 754 668 q 856 375 856 493 q 805 169 856 257 q 663 32 754 81 q 450 -17 572 -17 m 450 176 q 546 228 513 176 q 579 375 579 279 q 546 522 579 469 q 450 574 513 574 q 354 522 388 574 q 321 375 321 469 q 354 228 321 279 q 450 176 388 176 m 157 819 l 157 1008 l 407 1008 l 407 819 l 157 819 m 493 819 l 493 1008 l 743 1008 l 743 819 l 493 819 z "},"ò":{"ha":900,"x_min":44,"x_max":856,"o":"m 450 -17 q 237 32 328 -17 q 95 169 146 81 q 44 375 44 257 q 95 581 44 493 q 237 717 146 668 q 450 767 328 767 q 663 717 572 767 q 805 581 754 668 q 856 375 856 493 q 805 169 856 257 q 663 32 754 81 q 450 -17 572 -17 m 450 176 q 546 228 513 176 q 579 375 579 279 q 546 522 579 469 q 450 574 513 574 q 354 522 388 574 q 321 375 321 469 q 354 228 321 279 q 450 176 388 176 m 368 825 l 243 1047 l 493 1047 l 568 825 l 368 825 z "},"ő":{"ha":900,"x_min":44,"x_max":856,"o":"m 450 -17 q 237 32 328 -17 q 95 169 146 81 q 44 375 44 257 q 95 581 44 493 q 237 717 146 668 q 450 767 328 767 q 663 717 572 767 q 805 581 754 668 q 856 375 856 493 q 805 169 856 257 q 663 32 754 81 q 450 -17 572 -17 m 450 176 q 546 228 513 176 q 579 375 579 279 q 546 522 579 469 q 450 574 513 574 q 354 522 388 574 q 321 375 321 469 q 354 228 321 279 q 450 176 388 176 m 208 815 l 283 1038 l 533 1038 l 408 815 l 208 815 m 497 815 l 572 1038 l 822 1038 l 697 815 l 497 815 z "},"ō":{"ha":900,"x_min":44,"x_max":856,"o":"m 450 -17 q 237 32 328 -17 q 95 169 146 81 q 44 375 44 257 q 95 581 44 493 q 237 717 146 668 q 450 767 328 767 q 663 717 572 767 q 805 581 754 668 q 856 375 856 493 q 805 169 856 257 q 663 32 754 81 q 450 -17 572 -17 m 450 176 q 546 228 513 176 q 579 375 579 279 q 546 522 579 469 q 450 574 513 574 q 354 522 388 574 q 321 375 321 469 q 354 228 321 279 q 450 176 388 176 m 228 826 l 228 1014 l 672 1014 l 672 826 l 228 826 z "},"ø":{"ha":900,"x_min":44,"x_max":856,"o":"m 450 -17 q 237 32 328 -17 q 95 169 146 81 q 44 375 44 257 q 95 581 44 493 q 237 717 146 668 q 450 767 328 767 q 663 717 572 767 q 805 581 754 668 q 856 375 856 493 q 805 169 856 257 q 663 32 754 81 q 450 -17 572 -17 m 450 176 q 546 228 513 176 q 579 375 579 279 q 546 522 579 469 q 450 574 513 574 q 354 522 388 574 q 321 375 321 469 q 354 228 321 279 q 450 176 388 176 m 86 -19 l 661 769 l 814 769 l 239 -19 l 86 -19 z "},"õ":{"ha":900,"x_min":44,"x_max":856,"o":"m 450 -17 q 237 32 328 -17 q 95 169 146 81 q 44 375 44 257 q 95 581 44 493 q 237 717 146 668 q 450 767 328 767 q 663 717 572 767 q 805 581 754 668 q 856 375 856 493 q 805 169 856 257 q 663 32 754 81 q 450 -17 572 -17 m 450 176 q 546 228 513 176 q 579 375 579 279 q 546 522 579 469 q 450 574 513 574 q 354 522 388 574 q 321 375 321 469 q 354 228 321 279 q 450 176 388 176 m 525 825 q 467 833 490 825 q 414 867 443 842 q 372 885 392 885 q 342 871 356 885 q 324 818 328 857 l 199 818 q 242 978 199 917 q 367 1039 285 1039 q 428 1031 400 1039 q 485 999 456 1022 q 528 979 510 979 q 560 993 546 979 q 575 1047 574 1007 l 700 1047 q 656 885 700 946 q 525 825 611 825 z "},"œ":{"ha":1422,"x_min":44,"x_max":1378,"o":"m 450 -17 q 237 32 328 -17 q 95 169 146 81 q 44 375 44 257 q 95 581 44 493 q 237 717 146 668 q 450 767 328 767 q 663 717 572 767 q 805 581 754 668 q 856 375 856 493 q 805 169 856 257 q 663 32 754 81 q 450 -17 572 -17 m 450 176 q 546 228 513 176 q 579 375 579 279 q 546 522 579 469 q 450 574 513 574 q 354 522 388 574 q 321 375 321 469 q 354 228 321 279 q 450 176 388 176 m 986 -17 q 775 32 865 -17 q 635 169 685 81 q 585 375 585 257 q 635 581 585 493 q 775 717 685 668 q 986 767 865 767 q 1195 716 1107 767 q 1331 572 1283 665 q 1378 353 1378 479 l 1378 306 l 863 306 q 901 205 865 238 q 992 172 936 172 q 1060 188 1032 172 q 1101 242 1089 203 l 1368 228 q 1235 45 1338 107 q 986 -17 1132 -17 m 863 450 l 1108 450 q 1074 549 1107 515 q 986 583 1040 583 q 901 547 935 583 q 863 450 867 511 z "},"p":{"ha":917,"x_min":78,"x_max":872,"o":"m 78 -208 l 78 750 l 340 750 l 344 639 q 433 734 376 701 q 561 767 489 767 q 731 717 661 767 q 836 578 800 667 q 872 375 872 490 q 835 172 872 261 q 728 33 799 83 q 558 -17 658 -17 q 435 17 490 -17 q 347 108 379 50 l 347 -208 l 78 -208 m 471 176 q 563 230 529 176 q 596 375 596 283 q 563 520 596 467 q 471 574 529 574 q 380 524 413 574 q 347 375 347 474 q 379 227 347 278 q 471 176 411 176 z "},"þ":{"ha":893,"x_min":78,"x_max":849,"o":"m 78 -208 l 78 986 l 350 986 l 350 706 q 413 750 374 733 q 510 767 451 767 q 692 717 617 767 q 808 578 768 667 q 849 375 849 490 q 808 172 849 261 q 692 33 768 83 q 510 -17 617 -17 q 350 47 411 -17 l 350 -208 l 78 -208 m 454 200 q 543 251 514 200 q 572 375 572 301 q 543 501 572 450 q 454 551 514 551 q 366 500 396 551 q 336 375 336 449 q 366 251 336 303 q 454 200 396 200 z "},"q":{"ha":917,"x_min":44,"x_max":839,"o":"m 839 -208 l 569 -208 l 569 108 q 482 17 538 50 q 358 -17 426 -17 q 188 33 258 -17 q 81 172 118 83 q 44 375 44 261 q 81 578 44 490 q 186 717 117 667 q 356 767 256 767 q 484 734 428 767 q 572 639 540 701 l 576 750 l 839 750 l 839 -208 m 446 176 q 538 227 506 176 q 569 375 569 278 q 537 524 569 474 q 446 574 504 574 q 354 520 388 574 q 321 375 321 467 q 354 230 321 283 q 446 176 388 176 z "},"r":{"ha":632,"x_min":78,"x_max":588,"o":"m 78 0 l 78 750 l 339 750 l 344 593 q 411 713 368 676 q 524 750 454 750 l 588 750 l 588 536 l 521 536 q 390 508 432 536 q 347 401 347 479 l 347 0 l 78 0 z "},"ŕ":{"ha":632,"x_min":78,"x_max":588,"o":"m 78 0 l 78 750 l 339 750 l 344 593 q 411 713 368 676 q 524 750 454 750 l 588 750 l 588 536 l 521 536 q 390 508 432 536 q 347 401 347 479 l 347 0 l 78 0 m 231 815 l 306 1038 l 556 1038 l 431 815 l 231 815 z "},"ř":{"ha":632,"x_min":78,"x_max":617,"o":"m 78 0 l 78 750 l 339 750 l 344 593 q 411 713 368 676 q 524 750 454 750 l 588 750 l 588 536 l 521 536 q 390 508 432 536 q 347 401 347 479 l 347 0 l 78 0 m 92 1046 l 269 1046 l 354 924 l 439 1046 l 617 1046 l 478 815 l 231 815 l 92 1046 z "},"ŗ":{"ha":632,"x_min":78,"x_max":588,"o":"m 78 0 l 78 750 l 339 750 l 344 593 q 411 713 368 676 q 524 750 454 750 l 588 750 l 588 536 l 521 536 q 390 508 432 536 q 347 401 347 479 l 347 0 l 78 0 m 86 -364 l 156 -250 l 108 -250 l 108 -64 l 317 -64 l 317 -231 l 236 -364 l 86 -364 z "},"s":{"ha":838,"x_min":44,"x_max":793,"o":"m 429 -17 q 147 55 240 -17 q 44 236 53 126 l 315 243 q 431 156 332 156 q 517 210 517 156 q 493 254 517 238 q 390 283 469 271 q 192 332 264 304 q 92 405 121 360 q 63 519 63 450 q 153 699 63 632 q 429 767 243 767 q 692 694 603 767 q 793 497 781 621 l 526 489 q 496 568 522 542 q 426 594 469 594 q 363 577 388 594 q 339 528 339 560 q 363 481 339 497 q 451 457 388 465 q 715 376 638 433 q 793 217 793 319 q 698 43 793 103 q 429 -17 603 -17 z "},"ś":{"ha":838,"x_min":44,"x_max":793,"o":"m 429 -17 q 147 55 240 -17 q 44 236 53 126 l 315 243 q 431 156 332 156 q 517 210 517 156 q 493 254 517 238 q 390 283 469 271 q 192 332 264 304 q 92 405 121 360 q 63 519 63 450 q 153 699 63 632 q 429 767 243 767 q 692 694 603 767 q 793 497 781 621 l 526 489 q 496 568 522 542 q 426 594 469 594 q 363 577 388 594 q 339 528 339 560 q 363 481 339 497 q 451 457 388 465 q 715 376 638 433 q 793 217 793 319 q 698 43 793 103 q 429 -17 603 -17 m 303 815 l 378 1038 l 628 1038 l 503 815 l 303 815 z "},"š":{"ha":838,"x_min":44,"x_max":793,"o":"m 429 -17 q 147 55 240 -17 q 44 236 53 126 l 315 243 q 431 156 332 156 q 517 210 517 156 q 493 254 517 238 q 390 283 469 271 q 192 332 264 304 q 92 405 121 360 q 63 519 63 450 q 153 699 63 632 q 429 767 243 767 q 692 694 603 767 q 793 497 781 621 l 526 489 q 496 568 522 542 q 426 594 469 594 q 363 577 388 594 q 339 528 339 560 q 363 481 339 497 q 451 457 388 465 q 715 376 638 433 q 793 217 793 319 q 698 43 793 103 q 429 -17 603 -17 m 164 1046 l 342 1046 l 426 924 l 511 1046 l 689 1046 l 550 815 l 303 815 l 164 1046 z "},"ş":{"ha":838,"x_min":44,"x_max":793,"o":"m 429 -17 q 147 55 240 -17 q 44 236 53 126 l 315 243 q 431 156 332 156 q 517 210 517 156 q 493 254 517 238 q 390 283 469 271 q 192 332 264 304 q 92 405 121 360 q 63 519 63 450 q 153 699 63 632 q 429 767 243 767 q 692 694 603 767 q 793 497 781 621 l 526 489 q 496 568 522 542 q 426 594 469 594 q 363 577 388 594 q 339 528 339 560 q 363 481 339 497 q 451 457 388 465 q 715 376 638 433 q 793 217 793 319 q 698 43 793 103 q 429 -17 603 -17 m 426 -333 q 306 -301 354 -333 q 238 -214 258 -268 l 343 -167 q 372 -203 354 -190 q 421 -217 390 -217 q 465 -204 449 -217 q 482 -169 482 -192 q 466 -133 482 -146 q 401 -119 450 -119 l 333 -58 l 374 14 l 514 14 l 482 -39 q 584 -86 553 -47 q 615 -175 615 -125 q 589 -267 615 -232 q 520 -317 563 -301 q 426 -333 478 -333 z "},"ŝ":{"ha":838,"x_min":44,"x_max":793,"o":"m 429 -17 q 147 55 240 -17 q 44 236 53 126 l 315 243 q 431 156 332 156 q 517 210 517 156 q 493 254 517 238 q 390 283 469 271 q 192 332 264 304 q 92 405 121 360 q 63 519 63 450 q 153 699 63 632 q 429 767 243 767 q 692 694 603 767 q 793 497 781 621 l 526 489 q 496 568 522 542 q 426 594 469 594 q 363 577 388 594 q 339 528 339 560 q 363 481 339 497 q 451 457 388 465 q 715 376 638 433 q 793 217 793 319 q 698 43 793 103 q 429 -17 603 -17 m 164 815 l 303 1046 l 550 1046 l 689 815 l 511 815 l 426 938 l 342 815 l 164 815 z "},"ș":{"ha":838,"x_min":44,"x_max":793,"o":"m 429 -17 q 147 55 240 -17 q 44 236 53 126 l 315 243 q 431 156 332 156 q 517 210 517 156 q 493 254 517 238 q 390 283 469 271 q 192 332 264 304 q 92 405 121 360 q 63 519 63 450 q 153 699 63 632 q 429 767 243 767 q 692 694 603 767 q 793 497 781 621 l 526 489 q 496 568 522 542 q 426 594 469 594 q 363 577 388 594 q 339 528 339 560 q 363 481 339 497 q 451 457 388 465 q 715 376 638 433 q 793 217 793 319 q 698 43 793 103 q 429 -17 603 -17 m 304 -364 l 374 -250 l 326 -250 l 326 -64 l 535 -64 l 535 -231 l 454 -364 l 304 -364 z "},"ß":{"ha":975,"x_min":78,"x_max":938,"o":"m 78 0 l 78 607 q 187 899 78 797 q 499 1000 296 1000 q 778 928 681 1000 q 875 725 875 857 q 826 591 875 646 q 690 513 778 536 q 871 428 804 492 q 938 269 938 364 q 831 71 938 142 q 525 0 724 0 l 431 0 l 431 217 l 519 217 q 663 308 663 217 q 514 403 663 403 l 443 403 l 443 611 l 496 611 q 575 633 544 611 q 606 694 606 654 q 578 760 606 736 q 499 783 551 783 q 388 736 428 783 q 347 607 347 689 l 347 0 l 78 0 z "},"t":{"ha":667,"x_min":43,"x_max":636,"o":"m 414 0 q 229 59 288 0 q 171 247 171 118 l 171 560 l 43 560 l 43 750 l 171 750 l 171 926 l 440 926 l 440 750 l 636 750 l 636 560 l 440 560 l 440 286 q 463 210 440 231 q 533 190 486 190 l 636 190 l 636 0 l 414 0 z "},"ŧ":{"ha":667,"x_min":43,"x_max":636,"o":"m 56 317 l 56 456 l 171 456 l 171 560 l 43 560 l 43 750 l 171 750 l 171 926 l 440 926 l 440 750 l 636 750 l 636 560 l 440 560 l 440 456 l 606 456 l 606 317 l 440 317 l 440 286 q 463 210 440 231 q 533 190 486 190 l 636 190 l 636 0 l 414 0 q 229 59 288 0 q 171 247 171 118 l 171 317 l 56 317 z "},"ť":{"ha":672,"x_min":43,"x_max":714,"o":"m 475 781 l 514 1138 l 714 1138 l 636 781 l 475 781 m 414 0 q 229 59 288 0 q 171 247 171 118 l 171 560 l 43 560 l 43 750 l 171 750 l 171 926 l 440 926 l 440 750 l 636 750 l 636 560 l 440 560 l 440 286 q 463 210 440 231 q 533 190 486 190 l 636 190 l 636 0 l 414 0 z "},"ţ":{"ha":667,"x_min":43,"x_max":636,"o":"m 414 0 q 229 59 288 0 q 171 247 171 118 l 171 560 l 43 560 l 43 750 l 171 750 l 171 926 l 440 926 l 440 750 l 636 750 l 636 560 l 440 560 l 440 286 q 463 210 440 231 q 533 190 486 190 l 636 190 l 636 0 l 414 0 m 385 -333 q 265 -301 313 -333 q 196 -214 217 -268 l 301 -167 q 331 -203 313 -190 q 379 -217 349 -217 q 424 -204 407 -217 q 440 -169 440 -192 q 424 -133 440 -146 q 360 -119 408 -119 l 292 -58 l 332 14 l 472 14 l 440 -39 q 542 -86 511 -47 q 574 -175 574 -125 q 547 -267 574 -232 q 478 -317 521 -301 q 385 -333 436 -333 z "},"ț":{"ha":667,"x_min":43,"x_max":636,"o":"m 414 0 q 229 59 288 0 q 171 247 171 118 l 171 560 l 43 560 l 43 750 l 171 750 l 171 926 l 440 926 l 440 750 l 636 750 l 636 560 l 440 560 l 440 286 q 463 210 440 231 q 533 190 486 190 l 636 190 l 636 0 l 414 0 m 263 -364 l 332 -250 l 285 -250 l 285 -64 l 493 -64 l 493 -231 l 413 -364 l 263 -364 z "},"u":{"ha":874,"x_min":78,"x_max":796,"o":"m 325 -17 q 142 58 207 -17 q 78 267 78 132 l 78 750 l 347 750 l 347 328 q 367 223 347 256 q 428 190 386 190 q 501 226 476 190 q 526 342 526 261 l 526 750 l 796 750 l 796 0 l 554 0 l 549 119 q 325 -17 493 -17 z "},"ú":{"ha":874,"x_min":78,"x_max":796,"o":"m 325 -17 q 142 58 207 -17 q 78 267 78 132 l 78 750 l 347 750 l 347 328 q 367 223 347 256 q 428 190 386 190 q 501 226 476 190 q 526 342 526 261 l 526 750 l 796 750 l 796 0 l 554 0 l 549 119 q 325 -17 493 -17 m 311 815 l 386 1038 l 636 1038 l 511 815 l 311 815 z "},"ŭ":{"ha":874,"x_min":78,"x_max":796,"o":"m 325 -17 q 142 58 207 -17 q 78 267 78 132 l 78 750 l 347 750 l 347 328 q 367 223 347 256 q 428 190 386 190 q 501 226 476 190 q 526 342 526 261 l 526 750 l 796 750 l 796 0 l 554 0 l 549 119 q 325 -17 493 -17 m 435 811 q 268 868 331 811 q 201 1033 206 925 l 349 1033 q 375 965 353 986 q 435 944 397 944 q 494 965 472 944 q 521 1033 517 986 l 668 1033 q 601 868 664 925 q 435 811 539 811 z "},"û":{"ha":874,"x_min":78,"x_max":796,"o":"m 325 -17 q 142 58 207 -17 q 78 267 78 132 l 78 750 l 347 750 l 347 328 q 367 223 347 256 q 428 190 386 190 q 501 226 476 190 q 526 342 526 261 l 526 750 l 796 750 l 796 0 l 554 0 l 549 119 q 325 -17 493 -17 m 172 815 l 311 1046 l 558 1046 l 697 815 l 519 815 l 435 938 l 350 815 l 172 815 z "},"ü":{"ha":874,"x_min":78,"x_max":796,"o":"m 325 -17 q 142 58 207 -17 q 78 267 78 132 l 78 750 l 347 750 l 347 328 q 367 223 347 256 q 428 190 386 190 q 501 226 476 190 q 526 342 526 261 l 526 750 l 796 750 l 796 0 l 554 0 l 549 119 q 325 -17 493 -17 m 142 819 l 142 1008 l 392 1008 l 392 819 l 142 819 m 478 819 l 478 1008 l 728 1008 l 728 819 l 478 819 z "},"ù":{"ha":874,"x_min":78,"x_max":796,"o":"m 325 -17 q 142 58 207 -17 q 78 267 78 132 l 78 750 l 347 750 l 347 328 q 367 223 347 256 q 428 190 386 190 q 501 226 476 190 q 526 342 526 261 l 526 750 l 796 750 l 796 0 l 554 0 l 549 119 q 325 -17 493 -17 m 353 825 l 228 1047 l 478 1047 l 553 825 l 353 825 z "},"ű":{"ha":874,"x_min":78,"x_max":807,"o":"m 325 -17 q 142 58 207 -17 q 78 267 78 132 l 78 750 l 347 750 l 347 328 q 367 223 347 256 q 428 190 386 190 q 501 226 476 190 q 526 342 526 261 l 526 750 l 796 750 l 796 0 l 554 0 l 549 119 q 325 -17 493 -17 m 193 815 l 268 1038 l 518 1038 l 393 815 l 193 815 m 482 815 l 557 1038 l 807 1038 l 682 815 l 482 815 z "},"ū":{"ha":874,"x_min":78,"x_max":796,"o":"m 325 -17 q 142 58 207 -17 q 78 267 78 132 l 78 750 l 347 750 l 347 328 q 367 223 347 256 q 428 190 386 190 q 501 226 476 190 q 526 342 526 261 l 526 750 l 796 750 l 796 0 l 554 0 l 549 119 q 325 -17 493 -17 m 213 826 l 213 1014 l 657 1014 l 657 826 l 213 826 z "},"ų":{"ha":874,"x_min":78,"x_max":849,"o":"m 325 -17 q 142 58 207 -17 q 78 267 78 132 l 78 750 l 347 750 l 347 328 q 367 223 347 256 q 428 190 386 190 q 501 226 476 190 q 526 342 526 261 l 526 750 l 796 750 l 796 0 l 554 0 l 549 119 q 325 -17 493 -17 m 682 -308 q 551 -274 597 -308 q 506 -175 506 -239 q 525 -93 506 -131 q 568 -25 544 -56 l 618 39 l 796 0 l 758 -47 q 728 -91 742 -69 q 714 -131 714 -112 q 724 -156 714 -149 q 747 -164 735 -164 q 781 -158 764 -164 q 807 -147 799 -153 l 849 -272 q 780 -297 828 -286 q 682 -308 732 -308 z "},"ů":{"ha":874,"x_min":78,"x_max":796,"o":"m 325 -17 q 142 58 207 -17 q 78 267 78 132 l 78 750 l 347 750 l 347 328 q 367 223 347 256 q 428 190 386 190 q 501 226 476 190 q 526 342 526 261 l 526 750 l 796 750 l 796 0 l 554 0 l 549 119 q 325 -17 493 -17 m 435 797 q 326 840 371 797 q 282 947 282 883 q 326 1055 282 1013 q 435 1097 371 1097 q 544 1055 500 1097 q 588 947 588 1013 q 544 840 588 883 q 435 797 500 797 m 435 900 q 469 913 456 900 q 482 947 482 926 q 469 981 482 968 q 435 994 456 994 q 401 981 414 994 q 388 947 388 968 q 401 913 388 926 q 435 900 414 900 z "},"ũ":{"ha":874,"x_min":78,"x_max":796,"o":"m 325 -17 q 142 58 207 -17 q 78 267 78 132 l 78 750 l 347 750 l 347 328 q 367 223 347 256 q 428 190 386 190 q 501 226 476 190 q 526 342 526 261 l 526 750 l 796 750 l 796 0 l 554 0 l 549 119 q 325 -17 493 -17 m 508 825 q 450 833 474 825 q 397 867 426 842 q 356 885 375 885 q 325 871 339 885 q 307 818 311 857 l 182 818 q 225 978 182 917 q 350 1039 268 1039 q 411 1031 383 1039 q 468 999 439 1022 q 511 979 493 979 q 543 993 529 979 q 558 1047 557 1007 l 683 1047 q 639 885 683 946 q 508 825 594 825 z "},"v":{"ha":913,"x_min":28,"x_max":885,"o":"m 303 0 l 28 750 l 306 750 l 457 269 l 607 750 l 885 750 l 608 0 l 303 0 z "},"w":{"ha":1207,"x_min":28,"x_max":1179,"o":"m 244 0 l 28 750 l 292 750 l 392 319 l 503 750 l 703 750 l 815 319 l 915 750 l 1179 750 l 963 0 l 724 0 l 603 403 l 483 0 l 244 0 z "},"ẃ":{"ha":1207,"x_min":28,"x_max":1179,"o":"m 244 0 l 28 750 l 292 750 l 392 319 l 503 750 l 703 750 l 815 319 l 915 750 l 1179 750 l 963 0 l 724 0 l 603 403 l 483 0 l 244 0 m 481 815 l 556 1038 l 806 1038 l 681 815 l 481 815 z "},"ŵ":{"ha":1207,"x_min":28,"x_max":1179,"o":"m 244 0 l 28 750 l 292 750 l 392 319 l 503 750 l 703 750 l 815 319 l 915 750 l 1179 750 l 963 0 l 724 0 l 603 403 l 483 0 l 244 0 m 342 815 l 481 1046 l 728 1046 l 867 815 l 689 815 l 604 938 l 519 815 l 342 815 z "},"ẅ":{"ha":1207,"x_min":28,"x_max":1179,"o":"m 244 0 l 28 750 l 292 750 l 392 319 l 503 750 l 703 750 l 815 319 l 915 750 l 1179 750 l 963 0 l 724 0 l 603 403 l 483 0 l 244 0 m 311 819 l 311 1008 l 561 1008 l 561 819 l 311 819 m 647 819 l 647 1008 l 897 1008 l 897 819 l 647 819 z "},"ẁ":{"ha":1207,"x_min":28,"x_max":1179,"o":"m 244 0 l 28 750 l 292 750 l 392 319 l 503 750 l 703 750 l 815 319 l 915 750 l 1179 750 l 963 0 l 724 0 l 603 403 l 483 0 l 244 0 m 522 825 l 397 1047 l 647 1047 l 722 825 l 522 825 z "},"x":{"ha":963,"x_min":63,"x_max":900,"o":"m 63 0 l 324 378 l 65 750 l 343 750 l 479 536 l 613 750 l 896 750 l 638 378 l 900 0 l 622 0 l 485 222 l 346 0 l 63 0 z "},"y":{"ha":860,"x_min":28,"x_max":832,"o":"m 160 -208 l 160 -18 l 268 -18 q 317 -8 301 -18 q 343 28 333 1 l 353 53 l 285 53 l 28 750 l 297 750 l 435 306 l 563 750 l 832 750 l 554 -56 q 474 -174 525 -139 q 332 -208 424 -208 l 160 -208 z "},"ý":{"ha":860,"x_min":28,"x_max":832,"o":"m 160 -208 l 160 -18 l 268 -18 q 317 -8 301 -18 q 343 28 333 1 l 353 53 l 285 53 l 28 750 l 297 750 l 435 306 l 563 750 l 832 750 l 554 -56 q 474 -174 525 -139 q 332 -208 424 -208 l 160 -208 m 308 815 l 383 1038 l 633 1038 l 508 815 l 308 815 z "},"ŷ":{"ha":860,"x_min":28,"x_max":832,"o":"m 160 -208 l 160 -18 l 268 -18 q 317 -8 301 -18 q 343 28 333 1 l 353 53 l 285 53 l 28 750 l 297 750 l 435 306 l 563 750 l 832 750 l 554 -56 q 474 -174 525 -139 q 332 -208 424 -208 l 160 -208 m 169 815 l 308 1046 l 556 1046 l 694 815 l 517 815 l 432 938 l 347 815 l 169 815 z "},"ÿ":{"ha":860,"x_min":28,"x_max":832,"o":"m 160 -208 l 160 -18 l 268 -18 q 317 -8 301 -18 q 343 28 333 1 l 353 53 l 285 53 l 28 750 l 297 750 l 435 306 l 563 750 l 832 750 l 554 -56 q 474 -174 525 -139 q 332 -208 424 -208 l 160 -208 m 139 819 l 139 1008 l 389 1008 l 389 819 l 139 819 m 475 819 l 475 1008 l 725 1008 l 725 819 l 475 819 z "},"ỳ":{"ha":860,"x_min":28,"x_max":832,"o":"m 160 -208 l 160 -18 l 268 -18 q 317 -8 301 -18 q 343 28 333 1 l 353 53 l 285 53 l 28 750 l 297 750 l 435 306 l 563 750 l 832 750 l 554 -56 q 474 -174 525 -139 q 332 -208 424 -208 l 160 -208 m 350 825 l 225 1047 l 475 1047 l 550 825 l 350 825 z "},"ỹ":{"ha":860,"x_min":28,"x_max":832,"o":"m 160 -208 l 160 -18 l 268 -18 q 317 -8 301 -18 q 343 28 333 1 l 353 53 l 285 53 l 28 750 l 297 750 l 435 306 l 563 750 l 832 750 l 554 -56 q 474 -174 525 -139 q 332 -208 424 -208 l 160 -208 m 507 825 q 449 833 472 825 q 396 867 425 842 q 354 885 374 885 q 324 871 338 885 q 306 818 310 857 l 181 818 q 224 978 181 917 q 349 1039 267 1039 q 410 1031 382 1039 q 467 999 438 1022 q 510 979 492 979 q 542 993 528 979 q 557 1047 556 1007 l 682 1047 q 638 885 682 946 q 507 825 593 825 z "},"z":{"ha":868,"x_min":76,"x_max":792,"o":"m 76 0 l 76 194 l 450 560 l 96 560 l 96 750 l 782 750 l 782 556 l 397 190 l 792 190 l 792 0 l 76 0 z "},"ź":{"ha":868,"x_min":76,"x_max":792,"o":"m 76 0 l 76 194 l 450 560 l 96 560 l 96 750 l 782 750 l 782 556 l 397 190 l 792 190 l 792 0 l 76 0 m 317 815 l 392 1038 l 642 1038 l 517 815 l 317 815 z "},"ž":{"ha":868,"x_min":76,"x_max":792,"o":"m 76 0 l 76 194 l 450 560 l 96 560 l 96 750 l 782 750 l 782 556 l 397 190 l 792 190 l 792 0 l 76 0 m 178 1046 l 356 1046 l 440 924 l 525 1046 l 703 1046 l 564 815 l 317 815 l 178 1046 z "},"ż":{"ha":868,"x_min":76,"x_max":792,"o":"m 76 0 l 76 194 l 450 560 l 96 560 l 96 750 l 782 750 l 782 556 l 397 190 l 792 190 l 792 0 l 76 0 m 301 825 l 301 1014 l 579 1014 l 579 825 l 301 825 z "},"ꞌ":{"ha":392,"x_min":78,"x_max":314,"o":"m 97 467 l 78 828 l 78 986 l 314 986 l 314 828 l 294 467 l 97 467 z "},"ﬁ":{"ha":1079,"x_min":50,"x_max":1006,"o":"m 164 0 l 164 513 l 50 513 l 50 703 l 164 703 l 164 722 q 233 919 164 851 q 444 986 301 986 l 631 986 l 631 796 l 514 796 q 453 776 471 796 q 435 711 435 756 l 435 703 l 619 703 l 619 513 l 435 513 l 435 0 l 164 0 m 732 0 l 732 750 l 1001 750 l 1001 0 l 732 0 m 728 825 l 728 1014 l 1006 1014 l 1006 825 l 728 825 z "},"ﬂ":{"ha":1128,"x_min":50,"x_max":1108,"o":"m 164 0 l 164 513 l 50 513 l 50 703 l 164 703 l 164 722 q 233 919 164 851 q 444 986 301 986 l 631 986 l 631 796 l 514 796 q 453 776 471 796 q 435 711 435 756 l 435 703 l 619 703 l 619 513 l 435 513 l 435 0 l 164 0 m 957 0 q 789 54 849 0 q 729 231 729 108 l 729 986 l 999 986 l 999 261 q 1017 206 999 222 q 1068 190 1035 190 l 1108 190 l 1108 0 l 957 0 z "},"ª":{"ha":629,"x_min":56,"x_max":588,"o":"m 238 522 q 105 556 154 522 q 56 649 56 589 q 99 745 56 714 q 228 794 143 776 l 367 824 q 351 878 367 860 q 310 897 336 897 q 246 842 254 897 l 64 847 q 139 970 78 932 q 310 1008 200 1008 q 492 958 435 1008 q 550 810 550 908 l 550 675 q 558 646 550 653 q 578 639 565 639 l 588 639 l 588 529 q 513 522 567 522 q 447 538 481 522 q 401 604 413 554 q 344 544 385 565 q 238 522 303 522 m 286 628 q 343 649 319 628 q 367 714 367 671 l 367 729 l 293 711 q 258 694 272 706 q 244 665 244 683 q 286 628 244 628 z "},"º":{"ha":644,"x_min":56,"x_max":589,"o":"m 322 522 q 127 589 199 522 q 56 765 56 656 q 126 942 56 875 q 322 1008 197 1008 q 518 942 447 1008 q 589 765 589 875 q 517 589 589 656 q 322 522 446 522 m 322 647 q 397 765 397 647 q 322 883 397 883 q 247 765 247 883 q 322 647 247 647 z "},"А":{"ha":1071,"x_min":25,"x_max":1046,"o":"m 25 0 l 381 986 l 690 986 l 1046 0 l 768 0 l 713 163 l 357 163 l 301 0 l 25 0 m 429 374 l 642 374 l 536 686 l 429 374 z "},"Б":{"ha":967,"x_min":86,"x_max":907,"o":"m 86 0 l 86 986 l 864 986 l 864 768 l 358 768 l 358 643 l 508 643 q 801 557 694 643 q 907 322 907 471 q 801 87 907 174 q 508 0 694 0 l 86 0 m 358 218 l 488 218 q 629 322 629 218 q 488 425 629 425 l 358 425 l 358 218 z "},"В":{"ha":997,"x_min":86,"x_max":938,"o":"m 86 0 l 86 986 l 500 986 q 792 922 689 986 q 896 717 896 857 q 692 511 896 536 l 692 508 q 876 435 815 496 q 938 272 938 375 q 835 67 938 133 q 542 0 732 0 l 86 0 m 358 590 l 489 590 q 585 613 547 590 q 624 683 624 636 q 586 756 624 733 q 489 778 549 778 l 358 778 l 358 590 m 358 208 l 524 208 q 624 233 583 208 q 665 310 665 257 q 625 388 665 363 q 524 413 585 413 l 358 413 l 358 208 z "},"Г":{"ha":878,"x_min":86,"x_max":864,"o":"m 86 0 l 86 986 l 864 986 l 864 768 l 358 768 l 358 0 l 86 0 z "},"Ѓ":{"ha":878,"x_min":86,"x_max":864,"o":"m 86 0 l 86 986 l 864 986 l 864 768 l 358 768 l 358 0 l 86 0 m 350 1051 l 425 1274 l 675 1274 l 550 1051 l 350 1051 z "},"Ґ":{"ha":850,"x_min":86,"x_max":836,"o":"m 86 0 l 86 986 l 564 986 l 564 1201 l 836 1201 l 836 768 l 358 768 l 358 0 l 86 0 z "},"Ғ":{"ha":951,"x_min":58,"x_max":938,"o":"m 160 0 l 160 347 l 58 347 l 58 565 l 160 565 l 160 986 l 938 986 l 938 768 l 432 768 l 432 565 l 706 565 l 706 347 l 432 347 l 432 0 l 160 0 z "},"Д":{"ha":1238,"x_min":69,"x_max":1168,"o":"m 69 -208 l 69 218 l 103 218 q 197 266 160 218 q 244 401 233 314 l 317 986 l 1046 986 l 1046 218 l 1168 218 l 1168 -208 l 894 -208 l 894 0 l 343 0 l 343 -208 l 69 -208 m 465 218 l 772 218 l 772 768 l 567 768 l 521 388 q 501 290 514 332 q 465 218 488 249 z "},"Е":{"ha":881,"x_min":86,"x_max":828,"o":"m 86 0 l 86 986 l 817 986 l 817 768 l 358 768 l 358 603 l 800 603 l 800 386 l 358 386 l 358 218 l 828 218 l 828 0 l 86 0 z "},"Ѐ":{"ha":881,"x_min":86,"x_max":828,"o":"m 86 0 l 86 986 l 817 986 l 817 768 l 358 768 l 358 603 l 800 603 l 800 386 l 358 386 l 358 218 l 828 218 l 828 0 l 86 0 m 382 1061 l 257 1283 l 507 1283 l 582 1061 l 382 1061 z "},"Ё":{"ha":881,"x_min":86,"x_max":828,"o":"m 86 0 l 86 986 l 817 986 l 817 768 l 358 768 l 358 603 l 800 603 l 800 386 l 358 386 l 358 218 l 828 218 l 828 0 l 86 0 m 158 1056 l 158 1244 l 408 1244 l 408 1056 l 158 1056 m 494 1056 l 494 1244 l 744 1244 l 744 1056 l 494 1056 z "},"Ж":{"ha":1521,"x_min":14,"x_max":1507,"o":"m 14 0 l 353 493 l 28 986 l 360 986 l 624 586 l 624 986 l 897 986 l 897 586 l 1161 986 l 1493 986 l 1167 493 l 1507 0 l 1175 0 l 897 404 l 897 0 l 624 0 l 624 404 l 346 0 l 14 0 z "},"З":{"ha":989,"x_min":60,"x_max":931,"o":"m 493 -22 q 271 19 367 -22 q 120 135 175 60 q 60 313 65 211 l 336 321 q 385 230 342 264 q 496 196 428 196 q 610 230 569 196 q 650 319 650 264 q 607 408 650 378 q 504 438 564 439 l 406 436 l 406 603 l 504 601 q 585 626 551 600 q 618 703 618 651 q 583 767 618 744 q 486 790 547 790 q 388 768 425 790 q 346 708 350 746 l 74 721 q 138 873 83 808 q 284 973 193 938 q 493 1008 375 1008 q 707 977 617 1008 q 847 888 797 946 q 897 751 897 831 q 837 608 897 664 q 665 533 776 553 q 862 444 793 513 q 931 271 931 376 q 876 116 931 182 q 724 14 822 50 q 493 -22 626 -22 z "},"И":{"ha":1049,"x_min":86,"x_max":963,"o":"m 963 0 l 690 0 l 690 528 l 361 0 l 86 0 l 86 986 l 358 986 l 358 431 l 688 986 l 963 986 l 963 0 z "},"Й":{"ha":1049,"x_min":86,"x_max":963,"o":"m 522 1061 q 356 1118 418 1061 q 289 1283 293 1175 l 436 1283 q 463 1215 440 1236 q 522 1194 485 1194 q 582 1215 560 1194 q 608 1283 604 1236 l 756 1283 q 689 1118 751 1175 q 522 1061 626 1061 m 963 0 l 690 0 l 690 528 l 361 0 l 86 0 l 86 986 l 358 986 l 358 431 l 688 986 l 963 986 l 963 0 z "},"Ѝ":{"ha":1049,"x_min":86,"x_max":963,"o":"m 442 1061 l 317 1283 l 567 1283 l 642 1061 l 442 1061 m 963 0 l 690 0 l 690 528 l 361 0 l 86 0 l 86 986 l 358 986 l 358 431 l 688 986 l 963 986 l 963 0 z "},"К":{"ha":999,"x_min":86,"x_max":985,"o":"m 86 0 l 86 986 l 358 986 l 358 508 l 676 986 l 971 986 l 642 493 l 985 0 l 688 0 l 358 479 l 358 0 l 86 0 z "},"Ќ":{"ha":999,"x_min":86,"x_max":985,"o":"m 86 0 l 86 986 l 358 986 l 358 508 l 676 986 l 971 986 l 642 493 l 985 0 l 688 0 l 358 479 l 358 0 l 86 0 m 388 1051 l 463 1274 l 713 1274 l 588 1051 l 388 1051 z "},"Л":{"ha":1100,"x_min":51,"x_max":1014,"o":"m 51 0 l 51 218 l 131 218 q 222 318 211 218 l 286 986 l 1014 986 l 1014 0 l 743 0 l 743 768 l 532 768 l 482 264 q 402 72 469 143 q 222 0 335 0 l 51 0 z "},"М":{"ha":1306,"x_min":86,"x_max":1219,"o":"m 86 0 l 86 986 l 444 986 l 653 360 l 861 986 l 1219 986 l 1219 0 l 947 0 l 947 556 l 749 4 l 556 4 l 358 556 l 358 0 l 86 0 z "},"Н":{"ha":1010,"x_min":86,"x_max":924,"o":"m 86 0 l 86 986 l 358 986 l 358 606 l 651 606 l 651 986 l 924 986 l 924 0 l 651 0 l 651 388 l 358 388 l 358 0 l 86 0 z "},"О":{"ha":1111,"x_min":56,"x_max":1056,"o":"m 556 -22 q 288 40 400 -22 q 115 218 175 103 q 56 492 56 333 q 115 766 56 650 q 288 945 175 882 q 556 1008 400 1008 q 824 945 713 1008 q 996 766 936 882 q 1056 492 1056 650 q 996 218 1056 333 q 824 40 936 103 q 556 -22 713 -22 m 556 196 q 718 273 660 196 q 776 492 776 350 q 718 712 776 633 q 556 790 660 790 q 393 712 451 790 q 335 492 335 633 q 393 273 335 350 q 556 196 451 196 z "},"П":{"ha":1010,"x_min":86,"x_max":924,"o":"m 86 0 l 86 986 l 924 986 l 924 0 l 650 0 l 650 768 l 358 768 l 358 0 l 86 0 z "},"Р":{"ha":953,"x_min":86,"x_max":907,"o":"m 86 0 l 86 986 l 508 986 q 801 896 694 986 q 907 649 907 806 q 859 470 907 546 q 722 353 811 394 q 508 313 632 313 l 358 313 l 358 0 l 86 0 m 358 531 l 488 531 q 590 560 551 531 q 629 649 629 590 q 591 738 629 707 q 488 768 553 768 l 358 768 l 358 531 z "},"С":{"ha":1043,"x_min":63,"x_max":1007,"o":"m 539 -22 q 294 39 401 -22 q 124 215 186 100 q 63 492 63 329 q 121 763 63 647 q 288 944 179 879 q 544 1008 396 1008 q 860 910 747 1008 q 1006 622 974 811 l 724 613 q 663 744 710 697 q 544 790 615 790 q 392 707 443 790 q 342 492 342 624 q 394 276 342 357 q 542 196 447 196 q 667 245 622 196 q 724 385 711 294 l 1007 375 q 858 80 975 182 q 539 -22 742 -22 z "},"Т":{"ha":914,"x_min":0,"x_max":849,"o":"m 288 0 l 288 768 l 0 768 l 0 986 l 849 986 l 849 768 l 561 768 l 561 0 l 288 0 z "},"У":{"ha":917,"x_min":25,"x_max":892,"o":"m 167 0 l 167 208 l 278 208 q 369 256 356 208 l 386 304 l 289 304 l 25 986 l 303 986 l 461 529 l 615 986 l 892 986 l 593 153 q 509 37 565 74 q 361 0 453 0 l 167 0 z "},"Ў":{"ha":917,"x_min":25,"x_max":892,"o":"m 167 0 l 167 208 l 278 208 q 369 256 356 208 l 386 304 l 289 304 l 25 986 l 303 986 l 461 529 l 615 986 l 892 986 l 593 153 q 509 37 565 74 q 361 0 453 0 l 167 0 m 460 1047 q 293 1104 356 1047 q 226 1269 231 1161 l 374 1269 q 400 1201 378 1222 q 460 1181 422 1181 q 519 1201 497 1181 q 546 1269 542 1222 l 693 1269 q 626 1104 689 1161 q 460 1047 564 1047 z "},"Ф":{"ha":1242,"x_min":56,"x_max":1186,"o":"m 494 0 l 494 108 q 261 177 360 125 q 109 309 163 229 q 56 493 56 389 q 109 677 56 597 q 261 809 163 757 q 494 878 360 861 l 494 986 l 747 986 l 747 876 q 981 808 882 860 q 1133 676 1079 757 q 1186 493 1186 596 q 1133 310 1186 390 q 981 178 1079 229 q 747 110 882 126 l 747 0 l 494 0 m 335 493 q 377 393 335 435 q 494 333 419 351 l 494 653 q 377 593 419 635 q 335 493 335 551 m 907 493 q 865 592 907 551 q 747 653 822 633 l 747 333 q 865 394 822 353 q 907 493 907 435 z "},"Х":{"ha":1031,"x_min":14,"x_max":1017,"o":"m 14 0 l 357 494 l 17 986 l 331 986 l 518 697 l 697 986 l 1014 986 l 675 497 l 1017 0 l 703 0 l 515 294 l 331 0 l 14 0 z "},"Ц":{"ha":1163,"x_min":86,"x_max":1104,"o":"m 831 -208 l 831 0 l 86 0 l 86 986 l 358 986 l 358 218 l 650 218 l 650 986 l 924 986 l 924 218 l 1104 218 l 1104 -208 l 831 -208 z "},"Ч":{"ha":951,"x_min":46,"x_max":865,"o":"m 593 0 l 593 439 q 492 359 554 388 q 354 331 431 331 q 128 409 211 331 q 46 621 46 488 l 46 986 l 318 986 l 318 706 q 446 542 318 542 q 554 584 515 542 q 593 706 593 626 l 593 986 l 865 986 l 865 0 l 593 0 z "},"Ш":{"ha":1392,"x_min":86,"x_max":1306,"o":"m 86 0 l 86 986 l 358 986 l 358 218 l 560 218 l 560 986 l 833 986 l 833 218 l 1033 218 l 1033 986 l 1306 986 l 1306 0 l 86 0 z "},"Щ":{"ha":1540,"x_min":86,"x_max":1482,"o":"m 86 0 l 86 986 l 358 986 l 358 218 l 560 218 l 560 986 l 833 986 l 833 218 l 1033 218 l 1033 986 l 1306 986 l 1306 218 l 1482 218 l 1482 -208 l 1208 -208 l 1208 0 l 86 0 z "},"Џ":{"ha":1010,"x_min":86,"x_max":924,"o":"m 368 -208 l 368 0 l 86 0 l 86 986 l 358 986 l 358 218 l 650 218 l 650 986 l 924 986 l 924 0 l 640 0 l 640 -208 l 368 -208 z "},"Ь":{"ha":967,"x_min":86,"x_max":907,"o":"m 86 986 l 358 986 l 358 674 l 508 674 q 722 633 632 674 q 859 517 811 592 q 907 338 907 442 q 801 91 907 182 q 508 0 694 0 l 86 0 l 86 986 m 358 456 l 358 218 l 488 218 q 591 249 553 218 q 629 338 629 279 q 590 426 629 396 q 488 456 551 456 l 358 456 z "},"Ы":{"ha":1354,"x_min":86,"x_max":1268,"o":"m 997 0 l 997 986 l 1268 986 l 1268 0 l 997 0 m 86 986 l 358 986 l 358 674 l 508 674 q 722 633 632 674 q 859 517 811 592 q 907 338 907 442 q 801 91 907 182 q 508 0 694 0 l 86 0 l 86 986 m 358 456 l 358 218 l 488 218 q 591 249 553 218 q 629 338 629 279 q 590 426 629 396 q 488 456 551 456 l 358 456 z "},"Ъ":{"ha":1064,"x_min":58,"x_max":1018,"o":"m 58 768 l 58 986 l 469 986 l 469 674 l 619 674 q 833 633 743 674 q 970 517 922 592 q 1018 338 1018 442 q 912 91 1018 182 q 619 0 806 0 l 197 0 l 197 768 l 58 768 m 469 456 l 469 218 l 599 218 q 702 249 664 218 q 740 338 740 279 q 701 426 740 396 q 599 456 663 456 l 469 456 z "},"Љ":{"ha":1581,"x_min":51,"x_max":1521,"o":"m 51 0 l 51 218 l 131 218 q 222 318 211 218 l 286 986 l 1014 986 l 1014 674 l 1122 674 q 1335 633 1246 674 q 1473 517 1425 592 q 1521 338 1521 442 q 1415 91 1521 182 q 1122 0 1308 0 l 700 0 l 700 768 l 532 768 l 482 264 q 402 72 469 143 q 222 0 335 0 l 51 0 m 1101 456 l 1014 456 l 1014 218 l 1101 218 q 1205 249 1167 218 q 1243 338 1243 279 q 1204 426 1243 396 q 1101 456 1165 456 z "},"Њ":{"ha":1532,"x_min":86,"x_max":1472,"o":"m 86 0 l 86 986 l 358 986 l 358 675 l 651 675 l 651 986 l 924 986 l 924 674 l 1074 674 q 1287 633 1197 674 q 1424 517 1376 592 q 1472 338 1472 442 q 1366 91 1472 182 q 1074 0 1260 0 l 651 0 l 651 456 l 358 456 l 358 0 l 86 0 m 924 456 l 924 218 l 1053 218 q 1156 249 1118 218 q 1194 338 1194 279 q 1156 426 1194 396 q 1053 456 1117 456 l 924 456 z "},"Ѕ":{"ha":985,"x_min":69,"x_max":915,"o":"m 510 -22 q 193 73 306 -22 q 69 331 81 168 l 340 343 q 392 231 351 271 q 513 192 433 192 q 609 213 575 192 q 643 278 643 235 q 630 324 643 304 q 578 360 617 344 q 465 392 540 376 q 247 456 331 419 q 126 551 164 493 q 88 700 88 610 q 135 861 88 792 q 271 969 182 931 q 485 1008 360 1008 q 706 964 617 1008 q 844 842 794 919 q 903 661 893 764 l 635 650 q 590 756 629 718 q 482 794 550 794 q 392 771 424 794 q 360 708 360 747 q 397 638 360 663 q 529 597 433 614 q 760 529 675 572 q 880 426 844 486 q 915 289 915 367 q 808 61 915 144 q 510 -22 701 -22 z "},"Є":{"ha":1085,"x_min":36,"x_max":1022,"o":"m 535 -22 q 267 40 379 -22 q 96 218 156 103 q 36 492 36 333 q 96 767 36 651 q 267 946 156 883 q 535 1008 379 1008 q 861 907 735 1008 q 1022 625 988 806 l 735 625 q 662 747 713 704 q 535 790 611 790 q 394 738 449 790 q 322 589 340 686 l 581 589 l 581 396 l 322 396 q 394 248 339 300 q 535 196 449 196 q 662 238 611 196 q 735 358 713 281 l 1022 358 q 861 79 988 181 q 535 -22 735 -22 z "},"Э":{"ha":1097,"x_min":56,"x_max":1042,"o":"m 543 -22 q 217 79 343 -22 q 56 358 92 181 l 343 358 q 416 238 365 281 q 543 196 467 196 q 684 248 629 196 q 756 396 739 300 l 497 396 l 497 589 l 756 589 q 683 738 738 686 q 543 790 629 790 q 416 747 467 790 q 343 625 365 704 l 56 625 q 217 907 90 806 q 543 1008 343 1008 q 811 946 700 1008 q 982 767 922 883 q 1042 492 1042 651 q 982 218 1042 333 q 811 40 922 103 q 543 -22 700 -22 z "},"І":{"ha":450,"x_min":92,"x_max":364,"o":"m 92 0 l 92 986 l 364 986 l 364 0 l 92 0 z "},"Ї":{"ha":444,"x_min":-93,"x_max":493,"o":"m 85 0 l 85 986 l 357 986 l 357 0 l 85 0 m -93 1069 l -93 1258 l 157 1258 l 157 1069 l -93 1069 m 243 1069 l 243 1258 l 493 1258 l 493 1069 l 243 1069 z "},"Ј":{"ha":899,"x_min":51,"x_max":833,"o":"m 444 -22 q 227 29 314 -22 q 97 169 140 81 q 51 371 53 258 l 324 382 q 358 239 326 282 q 444 196 389 196 q 530 234 499 196 q 561 361 561 272 l 561 986 l 833 986 l 833 361 q 784 158 833 244 q 647 25 735 72 q 444 -22 560 -22 z "},"Ћ":{"ha":1107,"x_min":14,"x_max":1061,"o":"m 14 768 l 14 986 l 783 986 l 783 768 l 514 768 l 514 547 q 615 627 553 599 q 753 656 676 656 q 979 577 897 656 q 1061 365 1061 499 l 1061 0 l 789 0 l 789 281 q 661 444 789 444 q 553 402 592 444 q 514 281 514 360 l 514 0 l 242 0 l 242 768 l 14 768 z "},"Ю":{"ha":1526,"x_min":86,"x_max":1471,"o":"m 86 0 l 86 986 l 358 986 l 358 603 l 479 603 q 637 900 508 792 q 971 1008 765 1008 q 1240 945 1128 1008 q 1411 766 1351 882 q 1471 492 1471 650 q 1411 218 1471 333 q 1240 40 1351 103 q 971 -22 1128 -22 q 636 86 764 -22 q 479 383 508 194 l 358 383 l 358 0 l 86 0 m 971 196 q 1133 273 1075 196 q 1192 492 1192 350 q 1133 712 1192 633 q 971 790 1075 790 q 808 712 867 790 q 750 492 750 633 q 808 273 750 350 q 971 196 867 196 z "},"Я":{"ha":1013,"x_min":60,"x_max":926,"o":"m 926 0 l 654 0 l 654 339 l 521 339 l 351 0 l 60 0 l 269 389 q 146 500 186 425 q 106 664 106 575 q 209 902 106 818 q 504 986 313 986 l 926 986 l 926 0 m 654 554 l 654 768 l 525 768 q 423 742 464 768 q 382 660 382 715 q 423 580 382 606 q 525 554 464 554 l 654 554 z "},"Ђ":{"ha":1117,"x_min":14,"x_max":1061,"o":"m 242 0 l 242 768 l 14 768 l 14 986 l 783 986 l 783 768 l 514 768 l 514 549 q 611 627 551 599 q 746 656 671 656 q 976 570 890 656 q 1061 340 1061 485 q 1010 160 1061 236 q 867 42 960 83 q 647 0 775 0 l 647 218 q 753 249 717 218 q 789 332 789 281 q 753 413 789 382 q 658 444 717 444 q 551 399 589 444 q 514 267 514 353 l 514 0 l 242 0 z "},"Ѣ":{"ha":1040,"x_min":44,"x_max":981,"o":"m 44 736 l 44 865 l 160 865 l 160 986 l 432 986 l 432 865 l 549 865 l 549 736 l 432 736 l 432 674 l 582 674 q 795 633 706 674 q 933 517 885 592 q 981 338 981 442 q 874 91 981 182 q 582 0 768 0 l 160 0 l 160 736 l 44 736 m 432 456 l 432 218 l 561 218 q 665 249 626 218 q 703 338 703 279 q 664 426 703 396 q 561 456 625 456 l 432 456 z "},"Ѫ":{"ha":1094,"x_min":14,"x_max":1081,"o":"m 14 0 l 111 329 q 303 526 158 499 l 115 768 l 115 986 l 981 986 l 981 768 l 792 526 q 983 329 938 497 l 1081 0 l 815 0 l 754 244 q 726 304 744 289 q 675 321 708 319 l 675 0 l 421 0 l 421 322 q 369 304 388 319 q 340 244 350 289 l 279 0 l 14 0 m 374 768 l 549 544 l 722 768 l 374 768 z "},"Ѳ":{"ha":1111,"x_min":56,"x_max":1056,"o":"m 556 -22 q 288 40 400 -22 q 115 218 175 103 q 56 492 56 333 q 115 766 56 650 q 288 945 175 882 q 556 1008 400 1008 q 824 945 713 1008 q 996 766 936 882 q 1056 492 1056 650 q 996 218 1056 333 q 824 40 936 103 q 556 -22 713 -22 m 535 606 q 656 574 600 583 q 743 571 713 564 q 769 579 756 574 q 698 735 753 681 q 556 790 643 790 q 431 751 482 790 q 356 636 379 711 q 442 631 394 639 q 535 606 489 624 m 556 196 q 683 237 631 196 q 758 354 735 278 q 657 361 717 351 q 532 392 597 371 q 437 417 481 410 q 368 419 393 424 q 340 411 354 417 q 411 251 356 307 q 556 196 467 196 z "},"Ѵ":{"ha":1121,"x_min":25,"x_max":1096,"o":"m 382 0 l 25 986 l 301 986 l 536 308 l 689 754 q 813 926 728 865 q 1021 986 899 986 l 1096 986 l 1096 768 l 1078 768 q 983 744 1018 768 q 928 663 949 719 l 689 0 l 382 0 z "},"Җ":{"ha":1615,"x_min":14,"x_max":1608,"o":"m 14 0 l 353 493 l 28 986 l 360 986 l 624 586 l 624 986 l 897 986 l 897 586 l 1161 986 l 1493 986 l 1167 493 l 1401 153 l 1608 153 l 1608 -208 l 1336 -208 l 1336 0 l 1175 0 l 897 404 l 897 0 l 624 0 l 624 404 l 346 0 l 14 0 z "},"Қ":{"ha":1108,"x_min":86,"x_max":1094,"o":"m 86 0 l 86 986 l 358 986 l 358 508 l 676 986 l 971 986 l 642 493 l 878 153 l 1094 153 l 1094 -208 l 822 -208 l 822 0 l 688 0 l 358 479 l 358 0 l 86 0 z "},"Ң":{"ha":1132,"x_min":86,"x_max":1074,"o":"m 86 0 l 86 986 l 358 986 l 358 606 l 651 606 l 651 986 l 924 986 l 924 153 l 1074 153 l 1074 -208 l 801 -208 l 801 0 l 651 0 l 651 388 l 358 388 l 358 0 l 86 0 z "},"Ү":{"ha":928,"x_min":-11,"x_max":939,"o":"m 328 0 l 328 369 l -11 986 l 283 986 l 465 631 l 644 986 l 939 986 l 601 369 l 601 0 l 328 0 z "},"Ұ":{"ha":1028,"x_min":-10,"x_max":940,"o":"m 178 218 l 178 435 l 293 435 l -10 986 l 285 986 l 467 631 l 646 986 l 940 986 l 639 435 l 850 435 l 850 218 l 603 218 l 603 0 l 329 0 l 329 218 l 178 218 z "},"Ҳ":{"ha":1143,"x_min":14,"x_max":1129,"o":"m 14 0 l 357 494 l 17 986 l 331 986 l 518 697 l 697 986 l 1014 986 l 675 497 l 911 153 l 1129 153 l 1129 -208 l 857 -208 l 857 0 l 703 0 l 515 294 l 331 0 l 14 0 z "},"Ҷ":{"ha":1063,"x_min":46,"x_max":1004,"o":"m 593 0 l 593 439 q 492 359 554 388 q 354 331 431 331 q 128 409 211 331 q 46 621 46 488 l 46 986 l 318 986 l 318 706 q 446 542 318 542 q 554 584 515 542 q 593 706 593 626 l 593 986 l 865 986 l 865 153 l 1004 153 l 1004 -208 l 732 -208 l 732 0 l 593 0 z "},"Һ":{"ha":951,"x_min":86,"x_max":906,"o":"m 358 986 l 358 547 q 459 627 397 599 q 597 656 521 656 q 824 577 742 656 q 906 365 906 499 l 906 0 l 633 0 l 633 281 q 506 444 633 444 q 397 402 436 444 q 358 281 358 360 l 358 0 l 86 0 l 86 986 l 358 986 z "},"Ӏ":{"ha":444,"x_min":86,"x_max":358,"o":"m 86 0 l 86 986 l 358 986 l 358 0 l 86 0 z "},"Ә":{"ha":1093,"x_min":56,"x_max":1038,"o":"m 1038 493 q 997 266 1038 363 q 886 106 956 169 q 727 10 817 42 q 539 -22 638 -22 q 354 10 442 -22 q 199 108 267 43 q 94 268 132 172 q 56 492 56 364 l 56 574 l 753 574 q 683 734 738 678 q 538 790 628 790 q 440 760 486 790 q 368 675 393 731 l 82 688 q 248 922 131 836 q 539 1008 365 1008 q 794 950 682 1008 q 972 777 907 892 q 1038 493 1038 663 m 543 196 q 751 376 718 196 l 347 376 q 417 235 367 275 q 543 196 467 196 z "},"Ӣ":{"ha":1049,"x_min":86,"x_max":963,"o":"m 963 0 l 690 0 l 690 528 l 361 0 l 86 0 l 86 986 l 358 986 l 358 431 l 688 986 l 963 986 l 963 0 m 301 1063 l 301 1250 l 746 1250 l 746 1063 l 301 1063 z "},"Ө":{"ha":1111,"x_min":56,"x_max":1056,"o":"m 556 -22 q 288 40 400 -22 q 115 218 175 103 q 56 492 56 333 q 115 766 56 650 q 288 945 175 882 q 556 1008 400 1008 q 824 945 713 1008 q 996 766 936 882 q 1056 492 1056 650 q 996 218 1056 333 q 824 40 936 103 q 556 -22 713 -22 m 556 790 q 419 741 474 790 q 346 601 365 692 l 765 601 q 692 741 746 692 q 556 790 638 790 m 556 196 q 692 244 638 196 q 767 385 746 293 l 344 385 q 419 244 365 293 q 556 196 474 196 z "},"Ӯ":{"ha":917,"x_min":25,"x_max":892,"o":"m 167 0 l 167 208 l 278 208 q 369 256 356 208 l 386 304 l 289 304 l 25 986 l 303 986 l 461 529 l 615 986 l 892 986 l 593 153 q 509 37 565 74 q 361 0 453 0 l 167 0 m 239 1063 l 239 1250 l 683 1250 l 683 1063 l 239 1063 z "},"а":{"ha":865,"x_min":44,"x_max":853,"o":"m 315 -17 q 121 38 197 -17 q 44 189 44 92 q 110 342 44 289 q 299 422 176 396 l 524 469 q 499 558 524 528 q 429 589 474 589 q 324 499 336 589 l 57 507 q 175 705 79 643 q 429 767 271 767 q 793 447 793 767 l 793 228 q 805 181 793 192 q 838 169 817 169 l 853 169 l 853 0 q 813 -8 840 -4 q 758 -11 785 -11 q 687 -1 724 -11 q 621 35 650 8 q 579 115 592 63 q 485 18 550 53 q 315 -17 421 -17 m 390 153 q 485 188 447 153 q 524 294 524 222 l 524 319 l 401 289 q 344 262 367 281 q 321 214 321 243 q 390 153 321 153 z "},"б":{"ha":931,"x_min":56,"x_max":875,"o":"m 469 -22 q 292 10 376 -22 q 147 119 208 43 q 80 256 104 175 q 56 443 56 338 q 117 758 56 643 q 310 932 178 872 q 397 992 375 961 q 418 1075 418 1022 l 633 1076 q 594 904 633 971 q 463 793 554 838 q 339 716 383 756 q 282 603 294 676 q 488 685 357 685 q 692 641 606 685 q 827 519 779 597 q 875 333 875 440 q 825 145 875 225 q 684 22 775 65 q 469 -22 593 -22 m 471 171 q 565 216 529 171 q 600 333 600 261 q 565 447 600 404 q 474 490 531 490 q 377 449 415 490 q 338 333 339 407 q 373 216 336 261 q 471 171 410 171 z "},"в":{"ha":885,"x_min":78,"x_max":821,"o":"m 78 0 l 78 750 l 439 750 q 790 542 790 750 q 749 437 790 476 q 628 389 707 397 l 628 386 q 821 213 821 369 q 481 0 821 0 l 78 0 m 351 450 l 432 450 q 519 510 519 450 q 432 569 519 569 l 351 569 l 351 450 m 351 181 l 458 181 q 550 243 550 181 q 458 311 550 311 l 351 311 l 351 181 z "},"г":{"ha":704,"x_min":78,"x_max":674,"o":"m 78 0 l 78 750 l 674 750 l 674 560 l 347 560 l 347 0 l 78 0 z "},"ѓ":{"ha":704,"x_min":78,"x_max":674,"o":"m 78 0 l 78 750 l 674 750 l 674 560 l 347 560 l 347 0 l 78 0 m 253 815 l 328 1038 l 578 1038 l 453 815 l 253 815 z "},"ґ":{"ha":682,"x_min":78,"x_max":654,"o":"m 78 0 l 78 750 l 383 750 l 383 968 l 654 968 l 654 560 l 347 560 l 347 0 l 78 0 z "},"ғ":{"ha":767,"x_min":50,"x_max":722,"o":"m 126 0 l 126 243 l 50 243 l 50 433 l 126 433 l 126 750 l 722 750 l 722 560 l 396 560 l 396 433 l 572 433 l 572 243 l 396 243 l 396 0 l 126 0 z "},"д":{"ha":1078,"x_min":46,"x_max":1032,"o":"m 46 -208 l 46 189 l 92 189 q 159 221 135 189 q 193 322 183 253 l 260 750 l 913 750 l 913 189 l 1032 189 l 1032 -208 l 761 -208 l 761 0 l 315 0 l 315 -208 l 46 -208 m 439 318 q 403 189 429 243 l 642 189 l 642 560 l 468 560 l 439 318 z "},"е":{"ha":882,"x_min":44,"x_max":838,"o":"m 446 -17 q 235 32 325 -17 q 94 169 144 81 q 44 375 44 257 q 94 581 44 493 q 235 717 144 668 q 446 767 325 767 q 655 716 567 767 q 790 572 743 665 q 838 353 838 479 l 838 306 l 322 306 q 360 205 325 238 q 451 172 396 172 q 520 188 492 172 q 561 242 549 203 l 828 228 q 694 45 797 107 q 446 -17 592 -17 m 322 450 l 568 450 q 533 549 567 515 q 446 583 500 583 q 360 547 394 583 q 322 450 326 511 z "},"ѐ":{"ha":882,"x_min":44,"x_max":838,"o":"m 446 -17 q 235 32 325 -17 q 94 169 144 81 q 44 375 44 257 q 94 581 44 493 q 235 717 144 668 q 446 767 325 767 q 655 716 567 767 q 790 572 743 665 q 838 353 838 479 l 838 306 l 322 306 q 360 205 325 238 q 451 172 396 172 q 520 188 492 172 q 561 242 549 203 l 828 228 q 694 45 797 107 q 446 -17 592 -17 m 322 450 l 568 450 q 533 549 567 515 q 446 583 500 583 q 360 547 394 583 q 322 450 326 511 m 368 822 l 243 1044 l 493 1044 l 568 822 l 368 822 z "},"ё":{"ha":882,"x_min":44,"x_max":838,"o":"m 446 -17 q 235 32 325 -17 q 94 169 144 81 q 44 375 44 257 q 94 581 44 493 q 235 717 144 668 q 446 767 325 767 q 655 716 567 767 q 790 572 743 665 q 838 353 838 479 l 838 306 l 322 306 q 360 205 325 238 q 451 172 396 172 q 520 188 492 172 q 561 242 549 203 l 828 228 q 694 45 797 107 q 446 -17 592 -17 m 322 450 l 568 450 q 533 549 567 515 q 446 583 500 583 q 360 547 394 583 q 322 450 326 511 m 157 817 l 157 1006 l 407 1006 l 407 817 l 157 817 m 493 817 l 493 1006 l 743 1006 l 743 817 l 493 817 z "},"ж":{"ha":1497,"x_min":63,"x_max":1435,"o":"m 63 0 l 347 375 l 76 750 l 400 750 l 615 429 l 615 750 l 885 750 l 885 433 l 1097 750 l 1421 750 l 1149 375 l 1435 0 l 1111 0 l 885 319 l 885 0 l 615 0 l 615 324 l 386 0 l 63 0 z "},"з":{"ha":808,"x_min":0,"x_max":732,"o":"m 374 -17 q 106 53 206 -17 q 0 249 6 124 l 274 254 q 301 191 276 215 q 369 167 326 167 q 435 186 410 167 q 460 240 460 206 q 432 305 460 281 q 356 329 404 329 l 303 329 l 303 463 l 356 463 q 435 554 435 463 q 416 612 435 592 q 365 632 397 632 q 294 544 299 632 l 26 551 q 130 710 36 654 q 372 767 224 767 q 619 710 528 767 q 711 556 711 654 q 665 460 711 500 q 533 401 619 419 q 681 331 629 382 q 732 204 732 279 q 635 43 732 103 q 374 -17 539 -17 z "},"и":{"ha":849,"x_min":78,"x_max":771,"o":"m 78 0 l 78 750 l 347 750 l 347 389 l 539 750 l 771 750 l 771 0 l 501 0 l 501 347 l 317 0 l 78 0 z "},"й":{"ha":849,"x_min":78,"x_max":771,"o":"m 78 0 l 78 750 l 347 750 l 347 389 l 539 750 l 771 750 l 771 0 l 501 0 l 501 347 l 317 0 l 78 0 m 424 811 q 257 868 319 811 q 190 1033 194 925 l 338 1033 q 364 965 342 986 q 424 944 386 944 q 483 965 461 944 q 510 1033 506 986 l 657 1033 q 590 868 653 925 q 424 811 528 811 z "},"ѝ":{"ha":849,"x_min":78,"x_max":771,"o":"m 78 0 l 78 750 l 347 750 l 347 389 l 539 750 l 771 750 l 771 0 l 501 0 l 501 347 l 317 0 l 78 0 m 342 825 l 217 1047 l 467 1047 l 542 825 l 342 825 z "},"к":{"ha":960,"x_min":78,"x_max":897,"o":"m 78 0 l 78 750 l 349 750 l 349 394 l 581 750 l 881 750 l 631 375 l 897 0 l 594 0 l 349 357 l 349 0 l 78 0 z "},"ќ":{"ha":960,"x_min":78,"x_max":897,"o":"m 78 0 l 78 750 l 349 750 l 349 394 l 581 750 l 881 750 l 631 375 l 897 0 l 594 0 l 349 357 l 349 0 l 78 0 m 340 815 l 415 1038 l 665 1038 l 540 815 l 340 815 z "},"л":{"ha":951,"x_min":50,"x_max":874,"o":"m 50 0 l 50 194 l 78 194 q 134 220 115 194 q 158 294 153 246 l 208 750 l 874 750 l 874 0 l 603 0 l 603 560 l 453 560 l 417 208 q 355 53 407 107 q 215 0 303 0 l 50 0 z "},"м":{"ha":1071,"x_min":78,"x_max":993,"o":"m 78 0 l 78 750 l 381 750 l 536 233 l 690 750 l 993 750 l 993 0 l 722 0 l 722 333 l 610 0 l 461 0 l 347 335 l 347 0 l 78 0 z "},"н":{"ha":857,"x_min":78,"x_max":779,"o":"m 78 0 l 78 751 l 347 751 l 347 468 l 510 468 l 510 750 l 779 750 l 779 0 l 510 0 l 510 279 l 347 279 l 347 0 l 78 0 z "},"о":{"ha":900,"x_min":44,"x_max":856,"o":"m 450 -17 q 237 32 328 -17 q 95 169 146 81 q 44 375 44 257 q 95 581 44 493 q 237 717 146 668 q 450 767 328 767 q 663 717 572 767 q 805 581 754 668 q 856 375 856 493 q 805 169 856 257 q 663 32 754 81 q 450 -17 572 -17 m 450 176 q 546 228 513 176 q 579 375 579 279 q 546 522 579 469 q 450 574 513 574 q 354 522 388 574 q 321 375 321 469 q 354 228 321 279 q 450 176 388 176 z "},"п":{"ha":888,"x_min":78,"x_max":810,"o":"m 78 0 l 78 750 l 810 750 l 810 0 l 539 0 l 539 560 l 347 560 l 347 0 l 78 0 z "},"р":{"ha":917,"x_min":78,"x_max":872,"o":"m 78 -208 l 78 750 l 340 750 l 344 639 q 433 734 376 701 q 561 767 489 767 q 731 717 661 767 q 836 578 800 667 q 872 375 872 490 q 835 172 872 261 q 728 33 799 83 q 558 -17 658 -17 q 435 17 490 -17 q 347 108 379 50 l 347 -208 l 78 -208 m 471 176 q 563 230 529 176 q 596 375 596 283 q 563 520 596 467 q 471 574 529 574 q 380 524 413 574 q 347 375 347 474 q 379 227 347 278 q 471 176 411 176 z "},"с":{"ha":878,"x_min":44,"x_max":847,"o":"m 450 -17 q 237 32 328 -17 q 95 169 146 81 q 44 375 44 257 q 95 581 44 493 q 237 717 146 668 q 450 767 328 767 q 644 728 558 767 q 784 620 731 690 q 847 451 838 550 l 571 440 q 531 540 563 507 q 450 572 499 572 q 354 521 388 572 q 321 375 321 469 q 354 228 321 279 q 450 176 388 176 q 533 209 500 176 q 571 313 565 242 l 847 304 q 787 133 839 206 q 649 22 735 61 q 450 -17 563 -17 z "},"т":{"ha":840,"x_min":46,"x_max":796,"o":"m 286 0 l 286 560 l 46 560 l 46 750 l 796 750 l 796 560 l 557 560 l 557 0 l 286 0 z "},"у":{"ha":860,"x_min":28,"x_max":832,"o":"m 160 -208 l 160 -18 l 268 -18 q 317 -8 301 -18 q 343 28 333 1 l 353 53 l 285 53 l 28 750 l 297 750 l 435 306 l 563 750 l 832 750 l 554 -56 q 474 -174 525 -139 q 332 -208 424 -208 l 160 -208 z "},"ў":{"ha":860,"x_min":28,"x_max":832,"o":"m 160 -208 l 160 -18 l 268 -18 q 317 -8 301 -18 q 343 28 333 1 l 353 53 l 285 53 l 28 750 l 297 750 l 435 306 l 563 750 l 832 750 l 554 -56 q 474 -174 525 -139 q 332 -208 424 -208 l 160 -208 m 428 811 q 261 868 324 811 q 194 1033 199 925 l 342 1033 q 368 965 346 986 q 428 944 390 944 q 488 965 465 944 q 514 1033 510 986 l 661 1033 q 594 868 657 925 q 428 811 532 811 z "},"ф":{"ha":1081,"x_min":44,"x_max":1036,"o":"m 424 -212 l 424 33 q 144 145 243 56 q 44 379 44 235 q 144 613 44 524 q 424 725 243 703 l 424 986 l 657 986 l 657 725 q 937 613 838 703 q 1036 379 1036 522 q 937 146 1036 236 q 657 33 838 56 l 657 -212 l 424 -212 m 769 379 q 657 519 769 483 l 657 238 q 769 379 769 275 m 311 379 q 424 238 311 275 l 424 519 q 311 379 311 483 z "},"х":{"ha":963,"x_min":63,"x_max":900,"o":"m 63 0 l 324 378 l 65 750 l 343 750 l 479 536 l 613 750 l 896 750 l 638 378 l 900 0 l 622 0 l 485 222 l 346 0 l 63 0 z "},"ц":{"ha":1039,"x_min":78,"x_max":975,"o":"m 704 -212 l 704 0 l 78 0 l 78 750 l 347 750 l 347 190 l 539 190 l 539 750 l 810 750 l 810 189 l 975 189 l 975 -212 l 704 -212 z "},"ч":{"ha":944,"x_min":78,"x_max":867,"o":"m 596 0 l 596 331 q 503 252 560 281 q 372 224 446 224 q 158 304 238 224 q 78 519 78 385 l 78 750 l 347 750 l 347 603 q 378 469 347 517 q 464 422 408 422 q 562 469 528 422 q 596 603 596 517 l 596 750 l 867 750 l 867 0 l 596 0 z "},"ш":{"ha":1256,"x_min":78,"x_max":1178,"o":"m 78 0 l 78 750 l 347 750 l 347 189 l 503 189 l 503 750 l 754 750 l 754 189 l 908 189 l 908 750 l 1178 750 l 1178 0 l 78 0 z "},"щ":{"ha":1393,"x_min":78,"x_max":1343,"o":"m 78 0 l 78 750 l 347 750 l 347 189 l 503 189 l 503 750 l 754 750 l 754 189 l 908 189 l 908 750 l 1178 750 l 1178 189 l 1343 189 l 1343 -212 l 1072 -212 l 1072 0 l 78 0 z "},"џ":{"ha":888,"x_min":78,"x_max":810,"o":"m 310 -212 l 310 0 l 78 0 l 78 750 l 347 750 l 347 190 l 539 190 l 539 750 l 810 750 l 810 0 l 579 0 l 579 -212 l 310 -212 z "},"ь":{"ha":875,"x_min":78,"x_max":831,"o":"m 78 0 l 78 750 l 347 750 l 347 483 l 469 483 q 831 236 831 483 q 469 0 831 0 l 78 0 m 347 171 l 439 171 q 556 236 556 171 q 527 288 556 272 q 439 304 499 304 l 347 304 l 347 171 z "},"ы":{"ha":1281,"x_min":78,"x_max":1203,"o":"m 932 0 l 932 750 l 1203 750 l 1203 0 l 932 0 m 78 0 l 78 750 l 347 750 l 347 483 l 469 483 q 831 236 831 483 q 469 0 831 0 l 78 0 m 347 171 l 439 171 q 556 236 556 171 q 527 288 556 272 q 439 304 499 304 l 347 304 l 347 171 z "},"ъ":{"ha":961,"x_min":50,"x_max":917,"o":"m 164 0 l 164 560 l 50 560 l 50 750 l 433 750 l 433 483 l 556 483 q 917 236 917 483 q 556 0 917 0 l 164 0 m 433 171 l 525 171 q 642 236 642 171 q 613 288 642 272 q 525 304 585 304 l 433 304 l 433 171 z "},"љ":{"ha":1401,"x_min":50,"x_max":1357,"o":"m 604 0 l 604 750 l 874 750 l 874 483 l 996 483 q 1357 236 1357 483 q 996 0 1357 0 l 604 0 m 874 171 l 965 171 q 1082 236 1082 171 q 1053 288 1082 272 q 965 304 1025 304 l 874 304 l 874 171 m 50 0 l 50 194 l 78 194 q 134 220 115 194 q 158 294 153 246 l 208 750 l 874 750 l 874 0 l 603 0 l 603 560 l 453 560 l 417 208 q 355 53 407 107 q 215 0 303 0 l 50 0 z "},"њ":{"ha":1306,"x_min":78,"x_max":1261,"o":"m 78 0 l 78 751 l 347 751 l 347 486 l 508 486 l 508 750 l 778 750 l 778 483 l 900 483 q 1261 236 1261 483 q 900 0 1261 0 l 508 0 l 508 296 l 347 296 l 347 0 l 78 0 m 778 171 l 869 171 q 986 236 986 171 q 958 288 986 272 q 869 304 929 304 l 778 304 l 778 171 z "},"ѕ":{"ha":838,"x_min":44,"x_max":793,"o":"m 429 -17 q 147 55 240 -17 q 44 236 53 126 l 315 243 q 431 156 332 156 q 517 210 517 156 q 493 254 517 238 q 390 283 469 271 q 192 332 264 304 q 92 405 121 360 q 63 519 63 450 q 153 699 63 632 q 429 767 243 767 q 692 694 603 767 q 793 497 781 621 l 526 489 q 496 568 522 542 q 426 594 469 594 q 363 577 388 594 q 339 528 339 560 q 363 481 339 497 q 451 457 388 465 q 715 376 638 433 q 793 217 793 319 q 698 43 793 103 q 429 -17 603 -17 z "},"є":{"ha":888,"x_min":44,"x_max":843,"o":"m 450 -17 q 237 32 328 -17 q 95 169 146 81 q 44 375 44 257 q 95 581 44 493 q 237 717 146 668 q 450 767 328 767 q 707 687 603 767 q 843 463 811 607 l 563 463 q 450 572 536 572 q 328 453 353 572 l 469 453 l 469 297 l 328 297 q 450 176 351 176 q 561 281 535 176 l 842 281 q 705 60 808 138 q 450 -17 601 -17 z "},"э":{"ha":888,"x_min":44,"x_max":843,"o":"m 438 -17 q 183 60 286 -17 q 46 281 79 138 l 326 281 q 438 176 354 176 q 560 297 536 176 l 418 297 l 418 453 l 560 453 q 438 572 535 572 q 325 463 351 572 l 44 463 q 181 687 76 607 q 438 767 285 767 q 651 717 560 767 q 792 581 742 668 q 843 375 843 493 q 792 169 843 257 q 651 32 742 81 q 438 -17 560 -17 z "},"і":{"ha":425,"x_min":74,"x_max":351,"o":"m 78 0 l 78 750 l 347 750 l 347 0 l 78 0 m 74 825 l 74 1014 l 351 1014 l 351 825 l 74 825 z "},"ї":{"ha":425,"x_min":-81,"x_max":506,"o":"m 78 0 l 78 750 l 347 750 l 347 0 l 78 0 m -81 819 l -81 1008 l 169 1008 l 169 819 l -81 819 m 256 819 l 256 1008 l 506 1008 l 506 819 l 256 819 z "},"ј":{"ha":526,"x_min":-1,"x_max":453,"o":"m -1 -208 l -1 -18 l 94 -18 q 158 -1 139 -18 q 178 67 178 15 l 178 750 l 449 750 l 449 61 q 384 -144 449 -81 q 158 -208 319 -208 l -1 -208 m 175 825 l 175 1014 l 453 1014 l 453 825 l 175 825 z "},"ћ":{"ha":876,"x_min":-14,"x_max":799,"o":"m 78 0 l 78 986 l 347 986 l 347 672 q 430 743 379 719 q 542 767 481 767 q 735 687 671 767 q 799 482 799 607 l 799 0 l 529 0 l 529 422 q 511 524 529 489 q 444 560 493 560 q 347 414 347 560 l 347 0 l 78 0 m -14 794 l -14 933 l 514 933 l 514 794 l -14 794 z "},"ю":{"ha":1269,"x_min":78,"x_max":1225,"o":"m 78 0 l 78 750 l 347 750 l 347 469 l 424 469 q 557 686 451 606 q 819 767 663 767 q 1033 717 942 767 q 1174 581 1124 668 q 1225 375 1225 493 q 1174 169 1225 257 q 1033 32 1124 81 q 819 -17 942 -17 q 557 64 663 -17 q 424 281 451 144 l 347 281 l 347 0 l 78 0 m 819 176 q 915 228 882 176 q 949 375 949 279 q 915 522 949 469 q 819 574 882 574 q 724 522 757 574 q 690 375 690 469 q 724 228 690 279 q 819 176 757 176 z "},"я":{"ha":901,"x_min":78,"x_max":824,"o":"m 78 0 l 250 297 q 153 385 189 333 q 118 506 118 438 q 472 750 118 750 l 824 750 l 824 0 l 556 0 l 556 260 l 483 260 l 344 0 l 78 0 m 472 432 l 556 432 l 556 575 l 472 575 q 385 503 385 575 q 408 451 385 469 q 472 432 431 432 z "},"ђ":{"ha":939,"x_min":50,"x_max":861,"o":"m 140 0 l 140 806 l 50 806 l 50 932 l 140 932 l 140 1004 l 410 1004 l 410 932 l 560 932 l 560 806 l 410 806 l 410 663 q 496 744 443 721 q 614 767 549 767 q 747 731 692 767 q 831 630 801 694 q 861 482 861 565 l 861 68 q 792 -140 861 -72 q 574 -208 722 -208 l 474 -208 l 474 -17 l 515 -17 q 571 6 550 -17 q 592 68 592 29 l 592 386 q 576 513 592 468 q 506 557 560 557 q 432 513 454 557 q 410 386 410 468 l 410 0 l 140 0 z "},"ѣ":{"ha":978,"x_min":50,"x_max":933,"o":"m 179 0 l 179 740 l 50 740 l 50 869 l 179 869 l 179 1004 l 450 1004 l 450 869 l 579 869 l 579 740 l 450 740 l 450 511 l 571 511 q 839 444 744 511 q 933 250 933 376 q 839 65 933 129 q 571 0 744 0 l 179 0 m 450 171 l 542 171 q 627 191 597 171 q 657 250 657 211 q 626 312 657 290 q 542 333 596 333 l 450 333 l 450 171 z "},"ѫ":{"ha":1094,"x_min":63,"x_max":1032,"o":"m 63 0 l 143 258 q 207 347 160 313 q 322 388 254 381 l 131 569 l 131 750 l 965 750 l 965 569 l 774 388 q 888 347 840 381 q 951 258 935 313 l 1032 0 l 778 0 l 731 221 q 711 267 725 251 q 669 286 697 282 l 669 0 l 426 0 l 426 286 q 383 267 397 282 q 364 221 369 251 l 317 0 l 63 0 m 364 569 l 549 396 l 732 569 l 364 569 z "},"ѳ":{"ha":900,"x_min":44,"x_max":856,"o":"m 450 -17 q 237 32 328 -17 q 95 169 146 81 q 44 375 44 257 q 95 581 44 493 q 237 717 146 668 q 450 767 328 767 q 663 717 572 767 q 805 581 754 668 q 856 375 856 493 q 805 169 856 257 q 663 32 754 81 q 450 -17 572 -17 m 443 468 q 522 440 492 447 q 575 438 551 433 q 533 538 565 503 q 450 574 501 574 q 340 494 372 574 q 443 468 382 494 m 450 176 q 560 253 526 176 q 451 285 517 258 q 381 307 407 303 q 332 304 356 311 q 326 303 329 303 q 450 176 350 176 z "},"ѵ":{"ha":940,"x_min":28,"x_max":913,"o":"m 303 0 l 28 750 l 301 750 l 456 267 l 532 514 q 649 692 569 633 q 835 750 729 750 l 913 750 l 913 560 l 899 560 q 779 467 814 560 l 608 0 l 303 0 z "},"җ":{"ha":1533,"x_min":63,"x_max":1471,"o":"m 63 0 l 347 375 l 76 750 l 400 750 l 615 429 l 615 750 l 885 750 l 885 433 l 1097 750 l 1421 750 l 1149 375 l 1356 104 l 1471 104 l 1471 -212 l 1201 -212 l 1201 0 l 1111 0 l 885 319 l 885 0 l 615 0 l 615 324 l 386 0 l 63 0 z "},"қ":{"ha":1019,"x_min":78,"x_max":957,"o":"m 78 0 l 78 750 l 349 750 l 349 394 l 581 750 l 881 750 l 631 375 l 824 104 l 957 104 l 957 -212 l 688 -212 l 688 0 l 594 0 l 349 357 l 349 0 l 78 0 z "},"ң":{"ha":993,"x_min":78,"x_max":915,"o":"m 78 0 l 78 751 l 347 751 l 347 468 l 510 468 l 510 750 l 779 750 l 779 104 l 915 104 l 915 -212 l 646 -212 l 646 0 l 510 0 l 510 279 l 347 279 l 347 0 l 78 0 z "},"ү":{"ha":913,"x_min":28,"x_max":885,"o":"m 321 0 l 28 750 l 301 750 l 456 268 l 610 750 l 885 750 l 590 0 l 590 -208 l 321 -208 l 321 0 z "},"ұ":{"ha":913,"x_min":28,"x_max":885,"o":"m 161 -94 l 161 94 l 283 94 l 28 750 l 301 750 l 456 268 l 610 750 l 885 750 l 628 94 l 751 94 l 751 -94 l 590 -94 l 590 -208 l 321 -208 l 321 -94 l 161 -94 z "},"ҳ":{"ha":1033,"x_min":63,"x_max":971,"o":"m 63 0 l 324 378 l 65 750 l 343 750 l 479 536 l 613 750 l 896 750 l 638 378 l 828 104 l 971 104 l 971 -212 l 701 -212 l 701 0 l 622 0 l 485 222 l 346 0 l 63 0 z "},"ҷ":{"ha":1056,"x_min":78,"x_max":999,"o":"m 596 0 l 596 331 q 503 252 560 281 q 372 224 446 224 q 158 304 238 224 q 78 519 78 385 l 78 750 l 347 750 l 347 603 q 378 469 347 517 q 464 422 408 422 q 562 469 528 422 q 596 603 596 517 l 596 750 l 867 750 l 867 104 l 999 104 l 999 -208 l 729 -208 l 729 0 l 596 0 z "},"һ":{"ha":876,"x_min":78,"x_max":799,"o":"m 78 0 l 78 986 l 347 986 l 347 672 q 430 743 379 719 q 542 767 481 767 q 735 687 671 767 q 799 482 799 607 l 799 0 l 529 0 l 529 422 q 511 524 529 489 q 444 560 493 560 q 347 414 347 560 l 347 0 l 78 0 z "},"ӏ":{"ha":442,"x_min":86,"x_max":356,"o":"m 86 0 l 86 986 l 356 986 l 356 0 l 86 0 z "},"ә":{"ha":882,"x_min":44,"x_max":838,"o":"m 436 767 q 647 718 557 767 q 788 581 738 669 q 838 375 838 493 q 788 170 838 258 q 647 33 738 82 q 436 -17 557 -17 q 228 34 315 -17 q 92 178 140 85 q 44 397 44 271 l 44 444 l 560 444 q 523 545 558 513 q 431 578 488 578 q 363 563 392 578 q 321 508 333 547 l 54 522 q 188 705 86 643 q 436 767 290 767 m 560 300 l 314 300 q 349 201 317 235 q 436 167 382 167 q 522 203 489 167 q 560 300 556 239 z "},"ӣ":{"ha":849,"x_min":78,"x_max":771,"o":"m 78 0 l 78 750 l 347 750 l 347 389 l 539 750 l 771 750 l 771 0 l 501 0 l 501 347 l 317 0 l 78 0 m 203 826 l 203 1014 l 647 1014 l 647 826 l 203 826 z "},"ө":{"ha":901,"x_min":43,"x_max":854,"o":"m 449 -17 q 235 32 326 -17 q 94 169 144 81 q 43 375 43 257 q 94 581 43 493 q 235 717 144 668 q 449 767 326 767 q 662 717 571 767 q 803 581 753 668 q 854 375 854 493 q 803 169 854 257 q 662 32 753 81 q 449 -17 571 -17 m 449 574 q 331 469 358 574 l 567 469 q 449 574 539 574 m 449 176 q 567 281 539 176 l 331 281 q 449 176 358 176 z "},"ӯ":{"ha":860,"x_min":28,"x_max":832,"o":"m 160 -208 l 160 -18 l 268 -18 q 317 -8 301 -18 q 343 28 333 1 l 353 53 l 285 53 l 28 750 l 297 750 l 435 306 l 563 750 l 832 750 l 554 -56 q 474 -174 525 -139 q 332 -208 424 -208 l 160 -208 m 207 826 l 207 1014 l 651 1014 l 651 826 l 207 826 z "},"Λ":{"ha":1050,"x_min":25,"x_max":1025,"o":"m 25 0 l 381 986 l 669 986 l 1025 0 l 758 0 l 525 686 l 292 0 l 25 0 z "},"Ω":{"ha":1100,"x_min":56,"x_max":1044,"o":"m 57 0 l 57 218 l 275 213 q 118 342 181 249 q 56 572 56 435 q 90 740 56 661 q 190 880 125 819 q 345 974 254 940 q 550 1008 436 1008 q 813 949 703 1008 q 984 790 924 889 q 1044 572 1044 692 q 983 342 1044 435 q 826 213 921 249 l 1044 218 l 1044 0 l 600 0 l 600 218 q 687 263 649 224 q 747 366 725 303 q 769 506 769 429 q 710 712 769 633 q 550 790 651 790 q 391 712 450 790 q 332 506 332 633 q 354 366 332 429 q 415 263 376 303 q 501 218 453 224 l 501 0 l 57 0 z "},"λ":{"ha":951,"x_min":25,"x_max":926,"o":"m 25 0 l 344 681 l 338 697 q 296 774 315 750 q 232 797 276 797 l 161 797 l 161 986 l 338 986 q 484 934 431 986 q 579 781 538 882 l 781 288 q 821 213 804 236 q 876 189 838 189 l 926 189 l 926 0 l 779 -1 q 636 50 689 -1 q 540 206 583 101 l 472 372 l 301 0 l 25 0 z "},"π":{"ha":943,"x_min":43,"x_max":913,"o":"m 181 0 l 181 558 l 43 558 l 43 750 l 913 750 l 913 558 l 779 558 l 779 275 q 800 213 779 236 q 857 190 821 190 l 911 190 l 911 0 l 842 0 q 567 275 567 0 l 567 558 l 393 558 l 393 0 l 181 0 z "},"ℇ":{"ha":838,"x_min":46,"x_max":792,"o":"m 410 -22 q 220 17 303 -22 q 92 124 138 56 q 46 281 46 192 q 101 439 46 375 q 257 525 157 503 q 127 608 175 550 q 79 746 79 667 q 120 883 79 824 q 235 975 161 942 q 410 1008 310 1008 q 604 969 513 1008 q 768 851 696 929 l 639 693 q 538 791 596 754 q 428 828 481 828 q 331 798 368 828 q 293 719 293 768 q 334 631 293 663 q 428 600 375 599 l 482 601 l 482 428 l 428 429 q 306 397 351 432 q 260 297 260 361 q 306 197 260 235 q 428 158 351 158 q 553 197 489 158 q 674 307 618 235 l 792 144 q 633 23 738 68 q 410 -22 529 -22 z "},"⓿":{"ha":1114,"x_min":44,"x_max":1069,"o":"m 557 -17 q 358 23 451 -17 q 194 133 265 63 q 84 297 124 204 q 44 497 44 390 q 84 695 44 603 q 194 858 124 788 q 358 969 265 929 q 557 1008 451 1008 q 756 969 664 1008 q 919 858 849 929 q 1030 695 990 788 q 1069 497 1069 603 q 1030 297 1069 390 q 919 133 990 204 q 756 23 849 63 q 557 -17 664 -17 m 558 211 q 748 285 681 211 q 815 492 815 360 q 748 698 815 625 q 558 771 681 771 q 369 698 436 771 q 301 492 301 625 q 369 285 301 360 q 558 211 436 211 m 474 422 q 469 455 471 438 q 468 492 468 472 q 490 611 468 574 q 558 649 511 649 q 600 639 585 649 l 474 422 m 558 333 q 518 344 536 333 l 644 558 q 649 492 649 532 q 628 372 649 411 q 558 333 607 333 z "},"❶":{"ha":1114,"x_min":44,"x_max":1069,"o":"m 557 -17 q 358 23 451 -17 q 194 133 265 63 q 84 297 124 204 q 44 497 44 390 q 84 695 44 603 q 194 858 124 788 q 358 969 265 929 q 557 1008 451 1008 q 756 969 664 1008 q 919 858 849 929 q 1030 695 990 788 q 1069 497 1069 603 q 1030 297 1069 390 q 919 133 990 204 q 756 23 849 63 q 557 -17 664 -17 m 510 222 l 676 222 l 676 760 l 535 760 q 501 664 535 700 q 401 628 467 628 l 360 628 l 360 503 l 510 503 l 510 222 z "},"❷":{"ha":1114,"x_min":44,"x_max":1069,"o":"m 557 -17 q 358 23 451 -17 q 194 133 265 63 q 84 297 124 204 q 44 497 44 390 q 84 695 44 603 q 194 858 124 788 q 358 969 265 929 q 557 1008 451 1008 q 756 969 664 1008 q 919 858 849 929 q 1030 695 990 788 q 1069 497 1069 603 q 1030 297 1069 390 q 919 133 990 204 q 756 23 849 63 q 557 -17 664 -17 m 360 222 l 779 222 l 779 361 l 529 361 q 540 376 529 368 q 585 401 550 385 l 651 432 q 744 500 714 461 q 774 601 774 539 q 726 723 774 675 q 565 771 679 771 q 417 726 474 771 q 351 590 361 681 l 499 582 q 522 635 506 621 q 567 649 539 649 q 614 633 601 649 q 626 596 626 618 q 615 561 626 574 q 574 535 604 549 l 513 507 q 419 447 453 481 q 373 361 386 414 q 360 222 360 308 z "},"❸":{"ha":1114,"x_min":44,"x_max":1069,"o":"m 557 -17 q 358 23 451 -17 q 194 133 265 63 q 84 297 124 204 q 44 497 44 390 q 84 695 44 603 q 194 858 124 788 q 358 969 265 929 q 557 1008 451 1008 q 756 969 664 1008 q 919 858 849 929 q 1030 695 990 788 q 1069 497 1069 603 q 1030 297 1069 390 q 919 133 990 204 q 756 23 849 63 q 557 -17 664 -17 m 564 211 q 749 259 694 211 q 803 375 803 307 q 675 501 803 481 q 783 629 783 524 q 733 731 783 692 q 558 771 682 771 q 390 731 443 771 q 328 604 336 690 l 494 596 q 515 636 497 624 q 558 649 532 649 q 606 635 593 649 q 619 593 619 621 q 603 558 619 571 q 560 544 588 544 l 511 544 l 511 439 l 560 439 q 635 388 635 439 q 615 347 635 360 q 564 333 596 333 q 492 381 496 333 l 325 375 q 353 281 331 317 q 425 228 375 244 q 564 211 475 211 z "},"❹":{"ha":1114,"x_min":44,"x_max":1069,"o":"m 557 -17 q 358 23 451 -17 q 194 133 265 63 q 84 297 124 204 q 44 497 44 390 q 84 695 44 603 q 194 858 124 788 q 358 969 265 929 q 557 1008 451 1008 q 756 969 664 1008 q 919 858 849 929 q 1030 695 990 788 q 1069 497 1069 603 q 1030 297 1069 390 q 919 133 990 204 q 756 23 849 63 q 557 -17 664 -17 m 551 222 l 718 222 l 718 315 l 782 315 l 782 440 l 718 440 l 718 760 l 526 760 l 296 432 l 296 315 l 551 315 l 551 222 m 446 440 l 551 576 l 551 440 l 446 440 z "},"❺":{"ha":1114,"x_min":44,"x_max":1069,"o":"m 557 -17 q 358 23 451 -17 q 194 133 265 63 q 84 297 124 204 q 44 497 44 390 q 84 695 44 603 q 194 858 124 788 q 358 969 265 929 q 557 1008 451 1008 q 756 969 664 1008 q 919 858 849 929 q 1030 695 990 788 q 1069 497 1069 603 q 1030 297 1069 390 q 919 133 990 204 q 756 23 849 63 q 557 -17 664 -17 m 565 211 q 740 265 682 211 q 797 407 797 319 q 751 534 797 489 q 611 579 706 579 q 551 572 574 579 q 514 551 529 564 l 525 635 l 767 635 l 767 760 l 385 760 l 342 440 l 499 440 q 522 468 507 457 q 565 479 538 479 q 612 460 593 479 q 631 407 631 442 q 617 356 631 378 q 563 333 603 333 q 499 378 506 333 l 332 369 q 391 254 339 297 q 565 211 443 211 z "},"❻":{"ha":1114,"x_min":44,"x_max":1069,"o":"m 557 -17 q 358 23 451 -17 q 194 133 265 63 q 84 297 124 204 q 44 497 44 390 q 84 695 44 603 q 194 858 124 788 q 358 969 265 929 q 557 1008 451 1008 q 756 969 664 1008 q 919 858 849 929 q 1030 695 990 788 q 1069 497 1069 603 q 1030 297 1069 390 q 919 133 990 204 q 756 23 849 63 q 557 -17 664 -17 m 560 211 q 731 262 669 211 q 793 401 793 313 q 741 538 793 492 q 592 585 689 585 q 522 573 549 585 q 481 546 496 561 q 581 654 493 654 q 628 642 607 654 q 650 614 649 631 l 797 632 q 730 734 786 697 q 588 771 674 771 q 386 693 453 771 q 319 475 319 615 q 382 274 319 338 q 560 211 444 211 m 564 333 q 510 353 532 333 q 489 407 488 372 q 511 460 490 440 q 564 479 532 479 q 620 460 599 479 q 642 404 642 442 q 620 353 642 372 q 564 333 599 333 z "},"❼":{"ha":1114,"x_min":44,"x_max":1069,"o":"m 557 -17 q 358 23 451 -17 q 194 133 265 63 q 84 297 124 204 q 44 497 44 390 q 84 695 44 603 q 194 858 124 788 q 358 969 265 929 q 557 1008 451 1008 q 756 969 664 1008 q 919 858 849 929 q 1030 695 990 788 q 1069 497 1069 603 q 1030 297 1069 390 q 919 133 990 204 q 756 23 849 63 q 557 -17 664 -17 m 453 222 l 619 222 q 633 378 619 310 q 679 508 647 447 q 764 631 711 569 l 764 761 l 367 761 l 367 622 l 600 622 q 493 434 533 539 q 453 222 453 329 z "},"❽":{"ha":1114,"x_min":44,"x_max":1069,"o":"m 557 -17 q 358 23 451 -17 q 194 133 265 63 q 84 297 124 204 q 44 497 44 390 q 84 695 44 603 q 194 858 124 788 q 358 969 265 929 q 557 1008 451 1008 q 756 969 664 1008 q 919 858 849 929 q 1030 695 990 788 q 1069 497 1069 603 q 1030 297 1069 390 q 919 133 990 204 q 756 23 849 63 q 557 -17 664 -17 m 565 211 q 755 254 701 211 q 808 365 808 297 q 672 513 808 475 q 758 556 729 528 q 788 635 788 583 q 738 735 788 700 q 565 771 689 771 q 392 735 442 771 q 343 635 343 700 q 373 556 343 583 q 458 513 403 528 q 322 365 322 478 q 376 254 322 297 q 565 211 429 211 m 565 551 q 521 563 539 551 q 503 600 503 574 q 565 649 503 649 q 628 600 628 649 q 610 563 628 574 q 565 551 593 551 m 565 333 q 508 347 526 333 q 489 394 489 361 q 508 441 489 422 q 565 460 526 460 q 623 441 604 460 q 642 394 642 422 q 623 347 642 361 q 565 333 604 333 z "},"❾":{"ha":1114,"x_min":44,"x_max":1069,"o":"m 557 -17 q 358 23 451 -17 q 194 133 265 63 q 84 297 124 204 q 44 497 44 390 q 84 695 44 603 q 194 858 124 788 q 358 969 265 929 q 557 1008 451 1008 q 756 969 664 1008 q 919 858 849 929 q 1030 695 990 788 q 1069 497 1069 603 q 1030 297 1069 390 q 919 133 990 204 q 756 23 849 63 q 557 -17 664 -17 m 568 771 q 397 720 458 771 q 335 581 335 669 q 387 444 335 492 q 536 397 439 397 q 607 410 581 397 q 647 436 633 422 q 547 328 635 328 q 501 340 521 328 q 478 368 481 351 l 331 350 q 398 248 342 285 q 540 211 454 211 q 742 290 675 211 q 808 507 808 368 q 746 708 808 644 q 568 771 683 771 m 564 649 q 618 629 596 649 q 639 575 640 610 q 617 522 638 542 q 564 503 596 503 q 508 522 529 503 q 486 578 486 540 q 508 629 486 610 q 564 649 529 649 z "},"⓪":{"ha":1181,"x_min":44,"x_max":1136,"o":"m 590 -50 q 378 -8 476 -50 q 204 110 279 35 q 87 284 129 185 q 44 497 44 383 q 87 709 44 610 q 204 883 129 808 q 378 999 279 957 q 590 1042 476 1042 q 802 999 703 1042 q 976 883 901 957 q 1094 709 1051 808 q 1136 497 1136 610 q 1094 284 1136 383 q 976 110 1051 185 q 802 -8 901 35 q 590 -50 703 -50 m 590 78 q 752 110 676 78 q 885 201 828 143 q 976 334 943 258 q 1008 497 1008 410 q 976 659 1008 583 q 885 792 943 735 q 752 881 828 849 q 590 914 676 914 q 428 881 504 914 q 295 792 353 849 q 205 659 238 735 q 172 497 172 583 q 205 334 172 410 q 295 201 238 258 q 428 110 353 143 q 590 78 504 78 m 593 211 q 403 285 471 211 q 336 492 336 360 q 403 698 336 625 q 593 771 471 771 q 783 698 715 771 q 850 492 850 625 q 783 285 850 360 q 593 211 715 211 m 503 492 q 508 422 503 453 l 635 639 q 593 649 618 649 q 524 611 546 649 q 503 492 503 574 m 593 333 q 663 372 642 333 q 683 492 683 411 q 679 558 683 531 l 553 344 q 593 333 571 333 z "},"①":{"ha":1181,"x_min":44,"x_max":1136,"o":"m 590 -50 q 378 -8 476 -50 q 204 110 279 35 q 87 284 129 185 q 44 497 44 383 q 87 709 44 610 q 204 883 129 808 q 378 999 279 957 q 590 1042 476 1042 q 802 999 703 1042 q 976 883 901 957 q 1094 709 1051 808 q 1136 497 1136 610 q 1094 284 1136 383 q 976 110 1051 185 q 802 -8 901 35 q 590 -50 703 -50 m 590 78 q 752 110 676 78 q 885 201 828 143 q 976 334 943 258 q 1008 497 1008 410 q 976 659 1008 583 q 885 792 943 735 q 752 881 828 849 q 590 914 676 914 q 428 881 504 914 q 295 792 353 849 q 205 659 238 735 q 172 497 172 583 q 205 334 172 410 q 295 201 238 258 q 428 110 353 143 q 590 78 504 78 m 539 222 l 539 503 l 389 503 l 389 628 l 431 628 q 530 664 496 628 q 564 760 564 700 l 706 760 l 706 222 l 539 222 z "},"②":{"ha":1181,"x_min":44,"x_max":1136,"o":"m 590 -50 q 378 -8 476 -50 q 204 110 279 35 q 87 284 129 185 q 44 497 44 383 q 87 709 44 610 q 204 883 129 808 q 378 999 279 957 q 590 1042 476 1042 q 802 999 703 1042 q 976 883 901 957 q 1094 709 1051 808 q 1136 497 1136 610 q 1094 284 1136 383 q 976 110 1051 185 q 802 -8 901 35 q 590 -50 703 -50 m 590 78 q 752 110 676 78 q 885 201 828 143 q 976 334 943 258 q 1008 497 1008 410 q 976 659 1008 583 q 885 792 943 735 q 752 881 828 849 q 590 914 676 914 q 428 881 504 914 q 295 792 353 849 q 205 659 238 735 q 172 497 172 583 q 205 334 172 410 q 295 201 238 258 q 428 110 353 143 q 590 78 504 78 m 383 222 q 397 361 383 308 q 443 447 410 414 q 536 507 476 481 l 597 535 q 639 561 628 549 q 650 596 650 574 q 638 633 650 618 q 590 649 625 649 q 546 635 563 649 q 522 582 529 621 l 375 590 q 441 726 385 681 q 589 771 497 771 q 750 723 703 771 q 797 601 797 675 q 767 500 797 539 q 675 432 738 461 l 608 401 q 563 376 574 385 q 553 361 553 368 l 803 361 l 803 222 l 383 222 z "},"③":{"ha":1181,"x_min":44,"x_max":1136,"o":"m 590 -50 q 378 -8 476 -50 q 204 110 279 35 q 87 284 129 185 q 44 497 44 383 q 87 709 44 610 q 204 883 129 808 q 378 999 279 957 q 590 1042 476 1042 q 802 999 703 1042 q 976 883 901 957 q 1094 709 1051 808 q 1136 497 1136 610 q 1094 284 1136 383 q 976 110 1051 185 q 802 -8 901 35 q 590 -50 703 -50 m 590 78 q 752 110 676 78 q 885 201 828 143 q 976 334 943 258 q 1008 497 1008 410 q 976 659 1008 583 q 885 792 943 735 q 752 881 828 849 q 590 914 676 914 q 428 881 504 914 q 295 792 353 849 q 205 659 238 735 q 172 497 172 583 q 205 334 172 410 q 295 201 238 258 q 428 110 353 143 q 590 78 504 78 m 593 211 q 454 228 504 211 q 382 281 404 244 q 354 375 360 317 l 521 381 q 593 333 525 333 q 644 347 625 333 q 664 388 664 360 q 589 439 664 439 l 540 439 l 540 544 l 589 544 q 633 558 617 544 q 649 593 649 571 q 635 635 649 621 q 588 649 622 649 q 544 636 561 649 q 524 596 526 624 l 357 604 q 419 731 365 690 q 588 771 472 771 q 762 731 711 771 q 813 629 813 692 q 704 501 813 524 q 832 375 832 481 q 778 259 832 307 q 593 211 724 211 z "},"④":{"ha":1181,"x_min":44,"x_max":1136,"o":"m 590 -50 q 378 -8 476 -50 q 204 110 279 35 q 87 284 129 185 q 44 497 44 383 q 87 709 44 610 q 204 883 129 808 q 378 999 279 957 q 590 1042 476 1042 q 802 999 703 1042 q 976 883 901 957 q 1094 709 1051 808 q 1136 497 1136 610 q 1094 284 1136 383 q 976 110 1051 185 q 802 -8 901 35 q 590 -50 703 -50 m 590 78 q 752 110 676 78 q 885 201 828 143 q 976 334 943 258 q 1008 497 1008 410 q 976 659 1008 583 q 885 792 943 735 q 752 881 828 849 q 590 914 676 914 q 428 881 504 914 q 295 792 353 849 q 205 659 238 735 q 172 497 172 583 q 205 334 172 410 q 295 201 238 258 q 428 110 353 143 q 590 78 504 78 m 578 222 l 578 315 l 322 315 l 322 432 l 553 760 l 744 760 l 744 440 l 808 440 l 808 315 l 744 315 l 744 222 l 578 222 m 472 440 l 578 440 l 578 576 l 472 440 z "},"⑤":{"ha":1181,"x_min":44,"x_max":1136,"o":"m 590 -50 q 378 -8 476 -50 q 204 110 279 35 q 87 284 129 185 q 44 497 44 383 q 87 709 44 610 q 204 883 129 808 q 378 999 279 957 q 590 1042 476 1042 q 802 999 703 1042 q 976 883 901 957 q 1094 709 1051 808 q 1136 497 1136 610 q 1094 284 1136 383 q 976 110 1051 185 q 802 -8 901 35 q 590 -50 703 -50 m 590 78 q 752 110 676 78 q 885 201 828 143 q 976 334 943 258 q 1008 497 1008 410 q 976 659 1008 583 q 885 792 943 735 q 752 881 828 849 q 590 914 676 914 q 428 881 504 914 q 295 792 353 849 q 205 659 238 735 q 172 497 172 583 q 205 334 172 410 q 295 201 238 258 q 428 110 353 143 q 590 78 504 78 m 593 211 q 419 254 471 211 q 360 369 367 297 l 526 378 q 590 333 533 333 q 644 356 631 333 q 658 407 658 378 q 640 460 658 442 q 593 479 621 479 q 550 468 565 479 q 526 440 535 457 l 369 440 l 413 760 l 794 760 l 794 635 l 553 635 l 542 551 q 579 572 557 564 q 639 579 601 579 q 779 534 733 579 q 825 407 825 489 q 767 265 825 319 q 593 211 710 211 z "},"⑥":{"ha":1181,"x_min":44,"x_max":1136,"o":"m 590 -50 q 378 -8 476 -50 q 204 110 279 35 q 87 284 129 185 q 44 497 44 383 q 87 709 44 610 q 204 883 129 808 q 378 999 279 957 q 590 1042 476 1042 q 802 999 703 1042 q 976 883 901 957 q 1094 709 1051 808 q 1136 497 1136 610 q 1094 284 1136 383 q 976 110 1051 185 q 802 -8 901 35 q 590 -50 703 -50 m 590 78 q 752 110 676 78 q 885 201 828 143 q 976 334 943 258 q 1008 497 1008 410 q 976 659 1008 583 q 885 792 943 735 q 752 881 828 849 q 590 914 676 914 q 428 881 504 914 q 295 792 353 849 q 205 659 238 735 q 172 497 172 583 q 205 334 172 410 q 295 201 238 258 q 428 110 353 143 q 590 78 504 78 m 594 211 q 417 274 479 211 q 354 475 354 338 q 421 693 354 615 q 622 771 488 771 q 765 734 708 771 q 832 632 821 697 l 685 614 q 663 642 683 631 q 615 654 642 654 q 515 546 528 654 q 557 573 531 561 q 626 585 583 585 q 776 538 724 585 q 828 401 828 492 q 766 262 828 313 q 594 211 704 211 m 599 333 q 655 353 633 333 q 676 404 676 372 q 655 460 676 442 q 599 479 633 479 q 546 460 567 479 q 524 407 525 440 q 544 353 522 372 q 599 333 567 333 z "},"⑦":{"ha":1181,"x_min":44,"x_max":1136,"o":"m 590 -50 q 378 -8 476 -50 q 204 110 279 35 q 87 284 129 185 q 44 497 44 383 q 87 709 44 610 q 204 883 129 808 q 378 999 279 957 q 590 1042 476 1042 q 802 999 703 1042 q 976 883 901 957 q 1094 709 1051 808 q 1136 497 1136 610 q 1094 284 1136 383 q 976 110 1051 185 q 802 -8 901 35 q 590 -50 703 -50 m 590 78 q 752 110 676 78 q 885 201 828 143 q 976 334 943 258 q 1008 497 1008 410 q 976 659 1008 583 q 885 792 943 735 q 752 881 828 849 q 590 914 676 914 q 428 881 504 914 q 295 792 353 849 q 205 659 238 735 q 172 497 172 583 q 205 334 172 410 q 295 201 238 258 q 428 110 353 143 q 590 78 504 78 m 485 222 q 525 434 485 329 q 632 622 565 539 l 399 622 l 399 761 l 796 761 l 796 631 q 711 508 743 569 q 665 378 679 447 q 651 222 651 310 l 485 222 z "},"⑧":{"ha":1181,"x_min":44,"x_max":1136,"o":"m 590 -50 q 378 -8 476 -50 q 204 110 279 35 q 87 284 129 185 q 44 497 44 383 q 87 709 44 610 q 204 883 129 808 q 378 999 279 957 q 590 1042 476 1042 q 802 999 703 1042 q 976 883 901 957 q 1094 709 1051 808 q 1136 497 1136 610 q 1094 284 1136 383 q 976 110 1051 185 q 802 -8 901 35 q 590 -50 703 -50 m 590 78 q 752 110 676 78 q 885 201 828 143 q 976 334 943 258 q 1008 497 1008 410 q 976 659 1008 583 q 885 792 943 735 q 752 881 828 849 q 590 914 676 914 q 428 881 504 914 q 295 792 353 849 q 205 659 238 735 q 172 497 172 583 q 205 334 172 410 q 295 201 238 258 q 428 110 353 143 q 590 78 504 78 m 593 211 q 403 254 457 211 q 350 365 350 297 q 486 513 350 478 q 401 556 431 528 q 371 635 371 583 q 420 735 371 700 q 593 771 469 771 q 766 735 717 771 q 815 635 815 700 q 786 556 815 583 q 700 513 757 528 q 836 365 836 475 q 783 254 836 297 q 593 211 729 211 m 593 551 q 638 563 621 551 q 656 600 656 574 q 593 649 656 649 q 531 600 531 649 q 549 563 531 574 q 593 551 567 551 m 593 333 q 651 347 632 333 q 669 394 669 361 q 651 441 669 422 q 593 460 632 460 q 535 441 554 460 q 517 394 517 422 q 535 347 517 361 q 593 333 554 333 z "},"⑨":{"ha":1181,"x_min":44,"x_max":1136,"o":"m 590 -50 q 378 -8 476 -50 q 204 110 279 35 q 87 284 129 185 q 44 497 44 383 q 87 709 44 610 q 204 883 129 808 q 378 999 279 957 q 590 1042 476 1042 q 802 999 703 1042 q 976 883 901 957 q 1094 709 1051 808 q 1136 497 1136 610 q 1094 284 1136 383 q 976 110 1051 185 q 802 -8 901 35 q 590 -50 703 -50 m 590 78 q 752 110 676 78 q 885 201 828 143 q 976 334 943 258 q 1008 497 1008 410 q 976 659 1008 583 q 885 792 943 735 q 752 881 828 849 q 590 914 676 914 q 428 881 504 914 q 295 792 353 849 q 205 659 238 735 q 172 497 172 583 q 205 334 172 410 q 295 201 238 258 q 428 110 353 143 q 590 78 504 78 m 596 771 q 774 708 711 771 q 836 507 836 644 q 769 290 836 368 q 568 211 703 211 q 426 248 482 211 q 358 350 369 285 l 506 368 q 528 340 508 351 q 575 328 549 328 q 675 436 663 328 q 635 410 661 422 q 564 397 608 397 q 415 444 467 397 q 363 581 363 492 q 424 720 363 669 q 596 771 486 771 m 592 649 q 535 629 557 649 q 514 578 514 610 q 535 522 514 540 q 592 503 557 503 q 644 522 624 503 q 667 575 665 542 q 646 629 668 610 q 592 649 624 649 z "},"⁄":{"ha":222,"x_min":-278,"x_max":500,"o":"m -278 0 l 361 986 l 500 986 l -139 0 l -278 0 z "},"½":{"ha":1217,"x_min":28,"x_max":1161,"o":"m 178 449 l 178 729 l 28 729 l 28 854 l 69 854 q 169 890 135 854 q 203 986 203 926 l 344 986 l 344 449 l 178 449 m 178 0 l 817 986 l 956 986 l 317 0 l 178 0 m 742 0 q 755 139 742 86 q 801 225 768 192 q 894 285 835 258 l 956 313 q 997 339 986 326 q 1008 374 1008 351 q 996 411 1008 396 q 949 426 983 426 q 904 413 921 426 q 881 360 888 399 l 733 368 q 799 503 743 458 q 947 549 856 549 q 1108 501 1061 549 q 1156 379 1156 453 q 1126 278 1156 317 q 1033 210 1096 239 l 967 179 q 922 154 932 163 q 911 139 911 146 l 1161 139 l 1161 0 l 742 0 z "},"⅓":{"ha":1225,"x_min":28,"x_max":1183,"o":"m 178 449 l 178 729 l 28 729 l 28 854 l 69 854 q 169 890 135 854 q 203 986 203 926 l 344 986 l 344 449 l 178 449 m 178 0 l 817 986 l 956 986 l 317 0 l 178 0 m 944 -11 q 806 6 856 -11 q 733 58 756 22 q 706 153 711 94 l 872 158 q 944 111 876 111 q 996 124 976 111 q 1015 165 1015 138 q 940 217 1015 217 l 892 217 l 892 322 l 940 322 q 984 335 968 322 q 1000 371 1000 349 q 987 413 1000 399 q 939 426 974 426 q 895 414 913 426 q 875 374 878 401 l 708 382 q 770 508 717 468 q 939 549 824 549 q 1113 509 1063 549 q 1164 407 1164 469 q 1056 279 1164 301 q 1183 153 1183 258 q 1129 37 1183 85 q 944 -11 1075 -11 z "},"⅔":{"ha":1308,"x_min":56,"x_max":1267,"o":"m 64 449 q 77 588 64 535 q 124 674 90 640 q 217 733 157 707 l 278 761 q 319 788 308 775 q 331 822 331 800 q 318 860 331 844 q 271 875 306 875 q 226 861 243 875 q 203 808 210 847 l 56 817 q 122 952 65 907 q 269 997 178 997 q 431 949 383 997 q 478 828 478 901 q 448 726 478 765 q 356 658 418 688 l 289 628 q 244 603 254 611 q 233 588 233 594 l 483 588 l 483 449 l 64 449 m 261 0 l 900 986 l 1039 986 l 400 0 l 261 0 m 1028 -11 q 889 6 939 -11 q 817 58 839 22 q 789 153 794 94 l 956 158 q 1028 111 960 111 q 1079 124 1060 111 q 1099 165 1099 138 q 1024 217 1099 217 l 975 217 l 975 322 l 1024 322 q 1067 335 1051 322 q 1083 371 1083 349 q 1070 413 1083 399 q 1022 426 1057 426 q 978 414 996 426 q 958 374 961 401 l 792 382 q 853 508 800 468 q 1022 549 907 549 q 1197 509 1146 549 q 1247 407 1247 469 q 1139 279 1247 301 q 1267 153 1267 258 q 1213 37 1267 85 q 1028 -11 1158 -11 z "},"¼":{"ha":1150,"x_min":28,"x_max":1122,"o":"m 178 449 l 178 729 l 28 729 l 28 854 l 69 854 q 169 890 135 854 q 203 986 203 926 l 344 986 l 344 449 l 178 449 m 178 0 l 817 986 l 956 986 l 317 0 l 178 0 m 892 0 l 892 93 l 636 93 l 636 210 l 867 538 l 1058 538 l 1058 218 l 1122 218 l 1122 93 l 1058 93 l 1058 0 l 892 0 m 786 218 l 892 218 l 892 354 l 786 218 z "},"¾":{"ha":1242,"x_min":28,"x_max":1214,"o":"m 267 438 q 128 454 178 438 q 56 507 78 471 q 28 601 33 543 l 194 607 q 267 560 199 560 q 318 573 299 560 q 338 614 338 586 q 263 665 338 665 l 214 665 l 214 771 l 263 771 q 306 784 290 771 q 322 819 322 797 q 309 861 322 847 q 261 875 296 875 q 217 863 235 875 q 197 822 200 850 l 31 831 q 92 957 39 917 q 261 997 146 997 q 435 958 385 997 q 486 856 486 918 q 378 728 486 750 q 506 601 506 707 q 451 485 506 533 q 267 438 397 438 m 269 0 l 908 986 l 1047 986 l 408 0 l 269 0 m 983 0 l 983 93 l 728 93 l 728 210 l 958 538 l 1150 538 l 1150 218 l 1214 218 l 1214 93 l 1150 93 l 1150 0 l 983 0 m 878 218 l 983 218 l 983 354 l 878 218 z "},"⅕":{"ha":1240,"x_min":28,"x_max":1199,"o":"m 178 449 l 178 729 l 28 729 l 28 854 l 69 854 q 169 890 135 854 q 203 986 203 926 l 344 986 l 344 449 l 178 449 m 178 0 l 817 986 l 956 986 l 317 0 l 178 0 m 967 -11 q 792 32 844 -11 q 733 147 740 75 l 900 156 q 964 111 907 111 q 1018 133 1004 111 q 1032 185 1032 156 q 1013 238 1032 219 q 967 257 994 257 q 924 246 939 257 q 900 218 908 235 l 743 218 l 786 538 l 1168 538 l 1168 413 l 926 413 l 915 329 q 953 349 931 342 q 1013 357 975 357 q 1153 312 1107 357 q 1199 185 1199 267 q 1141 43 1199 97 q 967 -11 1083 -11 z "},"⅛":{"ha":1247,"x_min":28,"x_max":1206,"o":"m 178 449 l 178 729 l 28 729 l 28 854 l 69 854 q 169 890 135 854 q 203 986 203 926 l 344 986 l 344 449 l 178 449 m 178 0 l 817 986 l 956 986 l 317 0 l 178 0 m 963 -11 q 773 32 826 -11 q 719 143 719 75 q 856 290 719 256 q 770 333 800 306 q 740 413 740 361 q 790 513 740 478 q 963 549 839 549 q 1135 513 1086 549 q 1185 413 1185 478 q 1156 333 1185 361 q 1069 290 1126 306 q 1206 143 1206 253 q 1152 32 1206 75 q 963 -11 1099 -11 m 963 329 q 1008 340 990 329 q 1025 378 1025 351 q 963 426 1025 426 q 900 378 900 426 q 918 340 900 351 q 963 329 936 329 m 963 111 q 1020 125 1001 111 q 1039 172 1039 139 q 1020 219 1039 200 q 963 238 1001 238 q 905 219 924 238 q 886 172 886 200 q 905 125 886 139 q 963 111 924 111 z "},"⅜":{"ha":1339,"x_min":28,"x_max":1297,"o":"m 267 438 q 128 454 178 438 q 56 507 78 471 q 28 601 33 543 l 194 607 q 267 560 199 560 q 318 573 299 560 q 338 614 338 586 q 263 665 338 665 l 214 665 l 214 771 l 263 771 q 306 784 290 771 q 322 819 322 797 q 309 861 322 847 q 261 875 296 875 q 217 863 235 875 q 197 822 200 850 l 31 831 q 92 957 39 917 q 261 997 146 997 q 435 958 385 997 q 486 856 486 918 q 378 728 486 750 q 506 601 506 707 q 451 485 506 533 q 267 438 397 438 m 269 0 l 908 986 l 1047 986 l 408 0 l 269 0 m 1054 -11 q 865 32 918 -11 q 811 143 811 75 q 947 290 811 256 q 862 333 892 306 q 832 413 832 361 q 881 513 832 478 q 1054 549 931 549 q 1227 513 1178 549 q 1276 413 1276 478 q 1247 333 1276 361 q 1161 290 1218 306 q 1297 143 1297 253 q 1244 32 1297 75 q 1054 -11 1190 -11 m 1054 329 q 1099 340 1082 329 q 1117 378 1117 351 q 1054 426 1117 426 q 992 378 992 426 q 1010 340 992 351 q 1054 329 1028 329 m 1054 111 q 1112 125 1093 111 q 1131 172 1131 139 q 1112 219 1131 200 q 1054 238 1093 238 q 997 219 1015 238 q 978 172 978 200 q 997 125 978 139 q 1054 111 1015 111 z "},"⅝":{"ha":1354,"x_min":56,"x_max":1313,"o":"m 289 438 q 115 481 167 438 q 56 596 63 524 l 222 604 q 286 560 229 560 q 340 582 326 560 q 354 633 354 604 q 335 687 354 668 q 289 706 317 706 q 246 694 261 706 q 222 667 231 683 l 65 667 l 108 986 l 490 986 l 490 861 l 249 861 l 238 778 q 275 798 253 790 q 335 806 297 806 q 475 760 429 806 q 521 633 521 715 q 463 492 521 546 q 289 438 406 438 m 285 0 l 924 986 l 1063 986 l 424 0 l 285 0 m 1069 -11 q 880 32 933 -11 q 826 143 826 75 q 963 290 826 256 q 877 333 907 306 q 847 413 847 361 q 897 513 847 478 q 1069 549 946 549 q 1242 513 1193 549 q 1292 413 1292 478 q 1263 333 1292 361 q 1176 290 1233 306 q 1313 143 1313 253 q 1259 32 1313 75 q 1069 -11 1206 -11 m 1069 329 q 1115 340 1097 329 q 1132 378 1132 351 q 1069 426 1132 426 q 1007 378 1007 426 q 1025 340 1007 351 q 1069 329 1043 329 m 1069 111 q 1127 125 1108 111 q 1146 172 1146 139 q 1127 219 1146 200 q 1069 238 1108 238 q 1012 219 1031 238 q 993 172 993 200 q 1012 125 993 139 q 1069 111 1031 111 z "},"⅞":{"ha":1203,"x_min":28,"x_max":1161,"o":"m 114 447 q 154 659 114 554 q 261 847 194 764 l 28 847 l 28 986 l 425 986 l 425 856 q 340 733 372 794 q 294 603 308 672 q 281 447 281 535 l 114 447 m 133 0 l 772 986 l 911 986 l 272 0 l 133 0 m 918 -11 q 728 32 782 -11 q 675 143 675 75 q 811 290 675 256 q 726 333 756 306 q 696 413 696 361 q 745 513 696 478 q 918 549 794 549 q 1091 513 1042 549 q 1140 413 1140 478 q 1111 333 1140 361 q 1025 290 1082 306 q 1161 143 1161 253 q 1108 32 1161 75 q 918 -11 1054 -11 m 918 329 q 963 340 946 329 q 981 378 981 351 q 918 426 981 426 q 856 378 856 426 q 874 340 856 351 q 918 329 892 329 m 918 111 q 976 125 957 111 q 994 172 994 139 q 976 219 994 200 q 918 238 957 238 q 860 219 879 238 q 842 172 842 200 q 860 125 842 139 q 918 111 879 111 z "},"₀":{"ha":625,"x_min":56,"x_max":569,"o":"m 313 -150 q 123 -76 190 -150 q 56 131 56 -1 q 123 337 56 264 q 313 410 190 410 q 502 337 435 410 q 569 131 569 264 q 502 -76 569 -1 q 313 -150 435 -150 m 222 131 q 228 61 222 92 l 354 278 q 313 288 338 288 q 244 250 265 288 q 222 131 222 213 m 313 -28 q 382 11 361 -28 q 403 131 403 50 q 399 197 403 169 l 272 -17 q 313 -28 290 -28 z "},"₁":{"ha":428,"x_min":28,"x_max":344,"o":"m 178 -139 l 178 142 l 28 142 l 28 267 l 69 267 q 169 303 135 267 q 203 399 203 339 l 344 399 l 344 -139 l 178 -139 z "},"₂":{"ha":539,"x_min":56,"x_max":483,"o":"m 64 -139 q 77 0 64 -53 q 124 86 90 53 q 217 146 157 119 l 278 174 q 319 200 308 188 q 331 235 331 213 q 318 272 331 257 q 271 288 306 288 q 226 274 243 288 q 203 221 210 260 l 56 229 q 122 365 65 319 q 269 410 178 410 q 431 362 383 410 q 478 240 478 314 q 448 139 478 178 q 356 71 418 100 l 289 40 q 244 15 254 24 q 233 0 233 7 l 483 0 l 483 -139 l 64 -139 z "},"₃":{"ha":547,"x_min":28,"x_max":506,"o":"m 267 -150 q 128 -133 178 -150 q 56 -81 78 -117 q 28 14 33 -44 l 194 19 q 267 -28 199 -28 q 318 -15 299 -28 q 338 26 338 -1 q 263 78 338 78 l 214 78 l 214 183 l 263 183 q 306 197 290 183 q 322 232 322 210 q 309 274 322 260 q 261 288 296 288 q 217 275 235 288 q 197 235 200 263 l 31 243 q 92 369 39 329 q 261 410 146 410 q 435 370 385 410 q 486 268 486 331 q 378 140 486 163 q 506 14 506 119 q 451 -102 506 -54 q 267 -150 397 -150 z "},"₄":{"ha":528,"x_min":14,"x_max":500,"o":"m 269 -139 l 269 -46 l 14 -46 l 14 71 l 244 399 l 436 399 l 436 79 l 500 79 l 500 -46 l 436 -46 l 436 -139 l 269 -139 m 164 79 l 269 79 l 269 215 l 164 79 z "},"₅":{"ha":563,"x_min":56,"x_max":521,"o":"m 289 -150 q 115 -107 167 -150 q 56 8 63 -64 l 222 17 q 286 -28 229 -28 q 340 -6 326 -28 q 354 46 354 17 q 335 99 354 81 q 289 118 317 118 q 246 107 261 118 q 222 79 231 96 l 65 79 l 108 399 l 490 399 l 490 274 l 249 274 l 238 190 q 275 210 253 203 q 335 218 297 218 q 475 173 429 218 q 521 46 521 128 q 463 -96 521 -42 q 289 -150 406 -150 z "},"₆":{"ha":589,"x_min":56,"x_max":533,"o":"m 296 -150 q 118 -87 181 -150 q 56 114 56 -24 q 122 332 56 254 q 324 410 189 410 q 466 373 410 410 q 533 271 522 336 l 386 253 q 364 281 385 269 q 317 293 343 293 q 217 185 229 293 q 258 212 232 200 q 328 224 285 224 q 477 177 425 224 q 529 40 529 131 q 467 -99 529 -49 q 296 -150 406 -150 m 300 -28 q 356 -8 335 -28 q 378 43 378 11 q 356 99 378 81 q 300 118 335 118 q 247 99 268 118 q 225 46 226 79 q 246 -8 224 11 q 300 -28 268 -28 z "},"₇":{"ha":453,"x_min":28,"x_max":425,"o":"m 114 -139 q 154 73 114 -32 q 261 261 194 178 l 28 261 l 28 400 l 425 400 l 425 269 q 340 147 372 208 q 294 17 308 86 q 281 -139 281 -51 l 114 -139 z "},"₈":{"ha":569,"x_min":42,"x_max":528,"o":"m 285 -150 q 95 -107 149 -150 q 42 4 42 -64 q 178 151 42 117 q 92 194 122 167 q 63 274 63 222 q 112 374 63 339 q 285 410 161 410 q 458 374 408 410 q 507 274 507 339 q 478 194 507 222 q 392 151 449 167 q 528 4 528 114 q 474 -107 528 -64 q 285 -150 421 -150 m 285 190 q 330 201 313 190 q 347 239 347 213 q 285 288 347 288 q 222 239 222 288 q 240 201 222 213 q 285 190 258 190 m 285 -28 q 342 -14 324 -28 q 361 33 361 0 q 342 80 361 61 q 285 99 324 99 q 227 80 246 99 q 208 33 208 61 q 227 -14 208 0 q 285 -28 246 -28 z "},"₉":{"ha":589,"x_min":56,"x_max":533,"o":"m 293 410 q 471 347 408 410 q 533 146 533 283 q 467 -72 533 7 q 265 -150 400 -150 q 123 -113 179 -150 q 56 -11 67 -76 l 203 7 q 226 -22 206 -10 q 272 -33 246 -33 q 372 75 360 -33 q 332 49 358 61 q 261 36 306 36 q 112 83 164 36 q 60 219 60 131 q 122 359 60 308 q 293 410 183 410 m 289 288 q 233 268 254 288 q 211 217 211 249 q 233 160 211 179 q 289 142 254 142 q 342 161 321 142 q 364 214 363 181 q 343 268 365 249 q 289 288 321 288 z "},"⁰":{"ha":625,"x_min":56,"x_max":569,"o":"m 313 438 q 123 512 190 438 q 56 718 56 586 q 123 924 56 851 q 313 997 190 997 q 502 924 435 997 q 569 718 569 851 q 502 512 569 586 q 313 438 435 438 m 222 718 q 228 649 222 679 l 354 865 q 313 875 338 875 q 244 838 265 875 q 222 718 222 800 m 313 560 q 382 599 361 560 q 403 718 403 638 q 399 785 403 757 l 272 571 q 313 560 290 560 z "},"¹":{"ha":428,"x_min":28,"x_max":344,"o":"m 178 449 l 178 729 l 28 729 l 28 854 l 69 854 q 169 890 135 854 q 203 986 203 926 l 344 986 l 344 449 l 178 449 z "},"²":{"ha":539,"x_min":56,"x_max":483,"o":"m 64 449 q 77 588 64 535 q 124 674 90 640 q 217 733 157 707 l 278 761 q 319 788 308 775 q 331 822 331 800 q 318 860 331 844 q 271 875 306 875 q 226 861 243 875 q 203 808 210 847 l 56 817 q 122 952 65 907 q 269 997 178 997 q 431 949 383 997 q 478 828 478 901 q 448 726 478 765 q 356 658 418 688 l 289 628 q 244 603 254 611 q 233 588 233 594 l 483 588 l 483 449 l 64 449 z "},"³":{"ha":547,"x_min":28,"x_max":506,"o":"m 267 438 q 128 454 178 438 q 56 507 78 471 q 28 601 33 543 l 194 607 q 267 560 199 560 q 318 573 299 560 q 338 614 338 586 q 263 665 338 665 l 214 665 l 214 771 l 263 771 q 306 784 290 771 q 322 819 322 797 q 309 861 322 847 q 261 875 296 875 q 217 863 235 875 q 197 822 200 850 l 31 831 q 92 957 39 917 q 261 997 146 997 q 435 958 385 997 q 486 856 486 918 q 378 728 486 750 q 506 601 506 707 q 451 485 506 533 q 267 438 397 438 z "},"⁴":{"ha":528,"x_min":14,"x_max":500,"o":"m 269 449 l 269 542 l 14 542 l 14 658 l 244 986 l 436 986 l 436 667 l 500 667 l 500 542 l 436 542 l 436 449 l 269 449 m 164 667 l 269 667 l 269 803 l 164 667 z "},"⁵":{"ha":563,"x_min":56,"x_max":521,"o":"m 289 438 q 115 481 167 438 q 56 596 63 524 l 222 604 q 286 560 229 560 q 340 582 326 560 q 354 633 354 604 q 335 687 354 668 q 289 706 317 706 q 246 694 261 706 q 222 667 231 683 l 65 667 l 108 986 l 490 986 l 490 861 l 249 861 l 238 778 q 275 798 253 790 q 335 806 297 806 q 475 760 429 806 q 521 633 521 715 q 463 492 521 546 q 289 438 406 438 z "},"⁶":{"ha":589,"x_min":56,"x_max":533,"o":"m 296 438 q 118 501 181 438 q 56 701 56 564 q 122 919 56 842 q 324 997 189 997 q 466 960 410 997 q 533 858 522 924 l 386 840 q 364 869 385 857 q 317 881 343 881 q 217 772 229 881 q 258 799 232 788 q 328 811 285 811 q 477 765 425 811 q 529 628 529 718 q 467 488 529 539 q 296 438 406 438 m 300 560 q 356 579 335 560 q 378 631 378 599 q 356 687 378 668 q 300 706 335 706 q 247 686 268 706 q 225 633 226 667 q 246 579 224 599 q 300 560 268 560 z "},"⁷":{"ha":453,"x_min":28,"x_max":425,"o":"m 114 447 q 154 659 114 554 q 261 847 194 764 l 28 847 l 28 986 l 425 986 l 425 856 q 340 733 372 794 q 294 603 308 672 q 281 447 281 535 l 114 447 z "},"⁸":{"ha":569,"x_min":42,"x_max":528,"o":"m 285 438 q 95 481 149 438 q 42 592 42 524 q 178 739 42 704 q 92 782 122 754 q 63 861 63 810 q 112 962 63 926 q 285 997 161 997 q 458 962 408 997 q 507 861 507 926 q 478 782 507 810 q 392 739 449 754 q 528 592 528 701 q 474 481 528 524 q 285 438 421 438 m 285 778 q 330 789 313 778 q 347 826 347 800 q 285 875 347 875 q 222 826 222 875 q 240 789 222 800 q 285 778 258 778 m 285 560 q 342 574 324 560 q 361 621 361 588 q 342 667 361 649 q 285 686 324 686 q 227 667 246 686 q 208 621 208 649 q 227 574 208 588 q 285 560 246 560 z "},"⁹":{"ha":589,"x_min":56,"x_max":533,"o":"m 293 997 q 471 934 408 997 q 533 733 533 871 q 467 516 533 594 q 265 438 400 438 q 123 474 179 438 q 56 576 67 511 l 203 594 q 226 566 206 578 q 272 554 246 554 q 372 663 360 554 q 332 636 358 649 q 261 624 306 624 q 112 671 164 624 q 60 807 60 718 q 122 947 60 896 q 293 997 183 997 m 289 875 q 233 856 254 875 q 211 804 211 836 q 233 748 211 767 q 289 729 254 729 q 342 749 321 729 q 364 801 363 768 q 343 856 365 836 q 289 875 321 875 z "}," ":{"ha":297,"x_min":0,"x_max":0,"o":""}," ":{"ha":297,"x_min":0,"x_max":0,"o":""},".":{"ha":361,"x_min":44,"x_max":317,"o":"m 44 0 l 44 250 l 317 250 l 317 0 l 44 0 z "},",":{"ha":361,"x_min":44,"x_max":317,"o":"m 68 -222 l 149 0 l 44 0 l 44 250 l 317 250 l 317 25 l 211 -222 l 68 -222 z "},":":{"ha":444,"x_min":86,"x_max":358,"o":"m 86 0 l 86 250 l 358 250 l 358 0 l 86 0 m 86 461 l 86 711 l 358 711 l 358 461 l 86 461 z "},";":{"ha":444,"x_min":86,"x_max":358,"o":"m 86 461 l 86 711 l 358 711 l 358 461 l 86 461 m 110 -222 l 190 0 l 86 0 l 86 250 l 358 250 l 358 25 l 253 -222 l 110 -222 z "},"…":{"ha":1081,"x_min":44,"x_max":1036,"o":"m 44 0 l 44 250 l 317 250 l 317 0 l 44 0 m 404 0 l 404 250 l 676 250 l 676 0 l 404 0 m 764 0 l 764 250 l 1036 250 l 1036 0 l 764 0 z "},"!":{"ha":399,"x_min":63,"x_max":336,"o":"m 108 336 q 90 447 100 382 q 72 581 79 513 q 65 704 65 649 l 65 986 l 336 986 l 336 704 q 329 581 336 649 q 313 447 322 513 q 294 336 303 382 l 108 336 m 63 0 l 63 250 l 335 250 l 335 0 l 63 0 z "},"¡":{"ha":399,"x_min":63,"x_max":336,"o":"m 63 761 l 335 761 l 335 511 l 63 511 l 63 761 m 65 -225 l 65 57 q 72 181 65 113 q 90 314 79 249 q 108 425 100 379 l 294 425 q 313 314 303 379 q 329 181 322 249 q 336 57 336 113 l 336 -225 l 65 -225 z "},"?":{"ha":851,"x_min":44,"x_max":807,"o":"m 286 333 q 317 512 286 453 q 424 603 347 571 q 496 640 472 624 q 527 674 519 656 q 535 717 535 692 q 510 777 535 754 q 438 800 486 800 q 322 685 335 800 l 44 696 q 99 857 53 786 q 231 968 146 928 q 438 1008 315 1008 q 646 969 564 1008 q 767 865 728 931 q 807 717 807 799 q 791 614 807 654 q 738 542 775 574 q 638 478 701 511 q 570 424 590 453 q 550 333 550 394 l 286 333 m 281 0 l 281 250 l 553 250 l 553 0 l 281 0 z "},"¿":{"ha":851,"x_min":44,"x_max":807,"o":"m 571 783 l 571 533 l 299 533 l 299 783 l 571 783 m 414 -225 q 206 -186 288 -225 q 84 -81 124 -147 q 44 67 44 -15 q 60 170 44 129 q 113 242 76 211 q 214 306 150 272 q 282 360 263 331 q 301 450 301 390 l 565 450 q 535 272 565 332 q 428 181 504 213 q 356 144 379 160 q 324 110 332 128 q 317 67 317 92 q 342 6 317 29 q 414 -17 367 -17 q 529 99 517 -17 l 807 88 q 752 -74 799 -3 q 621 -185 706 -144 q 414 -225 536 -225 z "},"·":{"ha":361,"x_min":44,"x_max":317,"o":"m 44 292 l 44 542 l 317 542 l 317 292 l 44 292 z "},"•":{"ha":549,"x_min":44,"x_max":504,"o":"m 274 186 q 156 215 208 186 q 74 296 104 244 q 44 411 44 347 q 74 527 44 476 q 156 607 104 578 q 274 636 208 636 q 392 607 340 636 q 474 527 444 578 q 504 411 504 476 q 474 296 504 347 q 392 215 444 244 q 274 186 340 186 z "},"*":{"ha":578,"x_min":44,"x_max":533,"o":"m 232 488 l 100 560 l 169 665 l 44 663 l 44 835 l 169 832 l 100 938 l 232 1010 l 290 899 l 349 1010 l 481 938 l 408 832 l 533 835 l 533 663 l 408 665 l 481 560 l 349 488 l 290 599 l 232 488 z "},"〃":{"ha":581,"x_min":44,"x_max":536,"o":"m 44 390 l 129 668 l 304 668 l 175 390 l 44 390 m 276 390 l 361 668 l 536 668 l 407 390 l 276 390 z "},"#":{"ha":921,"x_min":17,"x_max":903,"o":"m 83 0 l 110 196 l 17 196 l 44 407 l 138 407 l 158 567 l 67 567 l 94 778 l 186 778 l 214 986 l 465 986 l 438 778 l 557 778 l 585 986 l 836 986 l 808 778 l 903 778 l 875 567 l 781 567 l 758 407 l 854 407 l 826 196 l 731 196 l 704 0 l 454 0 l 481 196 l 360 196 l 333 0 l 83 0 m 388 407 l 508 407 l 529 567 l 410 567 l 388 407 z "},"/":{"ha":764,"x_min":36,"x_max":718,"o":"m 36 -153 l 449 1042 l 718 1042 l 306 -153 l 36 -153 z "},"\\":{"ha":738,"x_min":28,"x_max":710,"o":"m 710 -153 l 440 -153 l 28 1042 l 297 1042 l 710 -153 z "},"-":{"ha":578,"x_min":44,"x_max":533,"o":"m 44 300 l 44 511 l 533 511 l 533 300 l 44 300 z "},"–":{"ha":831,"x_min":44,"x_max":786,"o":"m 44 300 l 44 511 l 786 511 l 786 300 l 44 300 z "},"—":{"ha":1269,"x_min":44,"x_max":1225,"o":"m 44 300 l 44 511 l 1225 511 l 1225 300 l 44 300 z "},"_":{"ha":783,"x_min":44,"x_max":739,"o":"m 44 -208 l 44 0 l 739 0 l 739 -208 l 44 -208 z "},"〜":{"ha":1215,"x_min":44,"x_max":1171,"o":"m 829 235 q 742 244 779 235 q 667 271 706 253 q 574 318 629 289 q 482 361 522 346 q 386 376 442 376 q 276 347 331 376 q 164 261 222 317 l 44 428 q 165 526 110 489 q 274 579 219 563 q 389 596 328 596 q 504 576 446 596 q 621 525 563 557 q 736 470 692 486 q 832 454 781 454 q 900 463 869 454 q 966 496 931 472 q 1051 561 1001 519 l 1171 394 q 999 274 1086 314 q 829 235 913 235 z "},"(":{"ha":493,"x_min":56,"x_max":479,"o":"m 240 -153 q 56 444 56 146 q 240 1042 56 743 l 479 1042 q 317 444 317 744 q 479 -153 317 147 l 240 -153 z "},")":{"ha":493,"x_min":14,"x_max":438,"o":"m 253 -153 l 14 -153 q 176 444 176 147 q 14 1042 176 744 l 253 1042 q 438 444 438 743 q 253 -153 438 146 z "},"{":{"ha":583,"x_min":56,"x_max":569,"o":"m 476 -183 q 249 -105 329 -183 q 169 96 169 -26 l 169 211 q 158 296 169 268 q 122 333 147 324 q 56 342 97 342 l 56 538 q 122 546 97 538 q 158 583 147 554 q 169 668 169 611 l 169 783 q 249 983 169 906 q 476 1061 329 1061 l 569 1061 l 569 835 q 426 728 426 839 l 426 651 q 377 504 426 558 q 263 446 328 450 l 263 433 q 377 376 328 429 q 426 228 426 322 l 426 151 q 569 35 426 28 l 569 -183 l 476 -183 z "},"}":{"ha":583,"x_min":14,"x_max":528,"o":"m 107 -183 l 14 -183 l 14 35 q 157 151 157 28 l 157 228 q 206 376 157 322 q 321 433 256 429 l 321 446 q 207 504 257 450 q 157 651 157 558 l 157 728 q 14 835 157 839 l 14 1061 l 107 1061 q 335 983 256 1061 q 414 783 414 906 l 414 668 q 425 583 414 611 q 461 546 436 554 q 528 538 486 538 l 528 342 q 461 333 486 342 q 425 296 436 324 q 414 211 414 268 l 414 96 q 335 -105 414 -26 q 107 -183 256 -183 z "},"[":{"ha":581,"x_min":86,"x_max":567,"o":"m 567 -153 l 86 -153 l 86 1042 l 567 1042 l 567 833 l 344 833 l 344 56 l 567 56 l 567 -153 z "},"]":{"ha":581,"x_min":14,"x_max":494,"o":"m 14 -153 l 14 56 l 236 56 l 236 833 l 14 833 l 14 1042 l 494 1042 l 494 -153 l 14 -153 z "},"〈":{"ha":583,"x_min":44,"x_max":539,"o":"m 269 -158 l 44 492 l 269 1140 l 539 1140 l 315 492 l 539 -158 l 269 -158 z "},"〉":{"ha":583,"x_min":44,"x_max":539,"o":"m 314 -158 l 44 -158 l 268 492 l 44 1140 l 314 1140 l 539 492 l 314 -158 z "},"【":{"ha":490,"x_min":44,"x_max":446,"o":"m 446 -87 l 44 -87 l 44 1146 l 446 1146 q 272 529 272 847 q 446 -87 272 214 z "},"】":{"ha":490,"x_min":44,"x_max":446,"o":"m 44 -87 q 218 529 218 214 q 44 1146 218 847 l 446 1146 l 446 -87 l 44 -87 z "},"「":{"ha":519,"x_min":44,"x_max":475,"o":"m 44 325 l 44 1147 l 475 1147 l 475 997 l 199 997 l 199 325 l 44 325 z "},"」":{"ha":519,"x_min":44,"x_max":475,"o":"m 475 679 l 475 -143 l 44 -143 l 44 7 l 321 7 l 321 679 l 475 679 z "},"《":{"ha":979,"x_min":44,"x_max":935,"o":"m 269 -158 l 44 492 l 269 1140 l 539 1140 l 315 492 l 539 -158 l 269 -158 m 665 -158 l 440 492 l 665 1140 l 935 1140 l 711 492 l 935 -158 l 665 -158 z "},"》":{"ha":979,"x_min":44,"x_max":935,"o":"m 710 -158 l 440 -158 l 664 492 l 440 1140 l 710 1140 l 935 492 l 710 -158 m 314 -158 l 44 -158 l 268 492 l 44 1140 l 314 1140 l 539 492 l 314 -158 z "},"〔":{"ha":538,"x_min":44,"x_max":493,"o":"m 393 -203 l 44 111 l 44 871 l 390 1181 l 490 1071 l 197 810 l 197 172 l 493 -93 l 393 -203 z "},"〕":{"ha":538,"x_min":44,"x_max":493,"o":"m 144 -203 l 44 -93 l 340 172 l 340 810 l 47 1071 l 147 1181 l 493 871 l 493 111 l 144 -203 z "},"『":{"ha":510,"x_min":44,"x_max":465,"o":"m 44 324 l 44 1147 l 465 1147 l 465 925 l 267 925 l 267 324 l 44 324 m 111 389 l 201 389 l 201 990 l 400 990 l 400 1082 l 111 1082 l 111 389 z "},"』":{"ha":510,"x_min":44,"x_max":465,"o":"m 465 694 l 465 -129 l 44 -129 l 44 93 l 243 93 l 243 694 l 465 694 m 399 629 l 308 629 l 308 28 l 110 28 l 110 -64 l 399 -64 l 399 629 z "},"〖":{"ha":538,"x_min":44,"x_max":493,"o":"m 493 -87 l 44 -87 l 44 1146 l 493 1146 q 319 529 319 847 q 493 -87 319 214 m 342 -1 q 225 532 225 265 q 342 1060 225 797 l 140 1060 l 140 -1 l 342 -1 z "},"〗":{"ha":538,"x_min":44,"x_max":493,"o":"m 44 -87 q 218 529 218 214 q 44 1146 218 847 l 493 1146 l 493 -87 l 44 -87 m 196 -1 l 397 -1 l 397 1060 l 196 1060 q 313 532 313 797 q 196 -1 313 265 z "},"‚":{"ha":361,"x_min":44,"x_max":317,"o":"m 68 -222 l 149 0 l 44 0 l 44 250 l 317 250 l 317 25 l 211 -222 l 68 -222 z "},"„":{"ha":707,"x_min":44,"x_max":663,"o":"m 414 -233 l 494 -11 l 390 -11 l 390 239 l 663 239 l 663 14 l 557 -233 l 414 -233 m 68 -233 l 149 -11 l 44 -11 l 44 239 l 317 239 l 317 14 l 211 -233 l 68 -233 z "},"“":{"ha":729,"x_min":56,"x_max":674,"o":"m 304 1008 l 224 786 l 328 786 l 328 536 l 56 536 l 56 761 l 161 1008 l 304 1008 m 650 1008 l 569 786 l 674 786 l 674 536 l 401 536 l 401 761 l 507 1008 l 650 1008 z "},"”":{"ha":729,"x_min":56,"x_max":674,"o":"m 425 514 l 506 736 l 401 736 l 401 986 l 674 986 l 674 761 l 568 514 l 425 514 m 79 514 l 160 736 l 56 736 l 56 986 l 328 986 l 328 761 l 222 514 l 79 514 z "},"‘":{"ha":383,"x_min":56,"x_max":328,"o":"m 304 1008 l 224 786 l 328 786 l 328 536 l 56 536 l 56 761 l 161 1008 l 304 1008 z "},"’":{"ha":383,"x_min":56,"x_max":328,"o":"m 79 514 l 160 736 l 56 736 l 56 986 l 328 986 l 328 761 l 222 514 l 79 514 z "},"«":{"ha":999,"x_min":44,"x_max":954,"o":"m 531 106 l 239 106 l 44 333 l 44 433 l 239 661 l 531 661 l 294 383 l 531 106 m 954 106 l 663 106 l 468 333 l 468 433 l 663 661 l 954 661 l 718 383 l 954 106 z "},"»":{"ha":1019,"x_min":63,"x_max":972,"o":"m 486 106 l 722 383 l 486 661 l 778 661 l 972 433 l 972 333 l 778 106 l 486 106 m 63 106 l 299 383 l 63 661 l 354 661 l 549 433 l 549 333 l 354 106 l 63 106 z "},"‹":{"ha":575,"x_min":44,"x_max":531,"o":"m 531 106 l 239 106 l 44 333 l 44 433 l 239 661 l 531 661 l 294 383 l 531 106 z "},"›":{"ha":575,"x_min":44,"x_max":531,"o":"m 44 106 l 281 383 l 44 661 l 336 661 l 531 433 l 531 333 l 336 106 l 44 106 z "},"\"":{"ha":583,"x_min":56,"x_max":528,"o":"m 86 586 l 56 867 l 56 986 l 250 986 l 239 586 l 86 586 m 344 586 l 333 986 l 528 986 l 528 867 l 497 586 l 344 586 z "},"'":{"ha":306,"x_min":56,"x_max":250,"o":"m 75 586 l 56 867 l 56 986 l 250 986 l 250 867 l 231 586 l 75 586 z "},"ƒ":{"ha":749,"x_min":50,"x_max":711,"o":"m 50 0 l 50 211 l 132 211 q 183 232 164 211 q 207 288 203 253 l 229 494 l 106 494 l 106 685 l 250 685 l 261 781 q 338 929 272 871 q 500 986 404 988 l 711 985 l 711 772 l 597 772 q 513 697 521 772 l 511 685 l 711 685 l 711 494 l 490 494 l 457 204 q 382 54 447 111 q 218 -1 317 -3 l 50 0 z "},"฿":{"ha":981,"x_min":86,"x_max":921,"o":"m 86 0 l 86 986 l 431 986 l 431 1118 l 542 1118 l 542 982 q 794 903 710 968 q 879 713 879 838 q 827 576 879 628 q 676 511 775 524 l 675 508 q 921 279 921 483 q 825 79 921 150 q 542 1 729 8 l 542 -126 l 431 -126 l 431 0 l 86 0 m 358 590 l 431 590 l 431 778 l 358 778 l 358 590 m 613 683 q 542 768 613 749 l 542 599 q 613 683 613 618 m 358 208 l 431 208 l 431 413 l 358 413 l 358 208 m 654 310 q 542 410 654 397 l 542 211 q 654 310 654 224 z "},"☹":{"ha":1181,"x_min":44,"x_max":1136,"o":"m 590 -50 q 378 -8 476 -50 q 204 110 279 35 q 87 284 129 185 q 44 497 44 383 q 87 709 44 610 q 204 883 129 808 q 378 999 279 957 q 590 1042 476 1042 q 802 999 703 1042 q 976 883 901 957 q 1094 709 1051 808 q 1136 497 1136 610 q 1094 284 1136 383 q 976 110 1051 185 q 802 -8 901 35 q 590 -50 703 -50 m 590 78 q 752 110 676 78 q 885 201 828 143 q 976 334 943 258 q 1008 497 1008 410 q 976 659 1008 583 q 885 792 943 735 q 752 881 828 849 q 590 914 676 914 q 428 881 504 914 q 295 792 353 849 q 205 659 238 735 q 172 497 172 583 q 205 334 172 410 q 295 201 238 258 q 428 110 353 143 q 590 78 504 78 m 464 556 q 407 579 431 556 q 383 636 383 603 q 407 691 383 668 q 464 714 431 714 q 519 691 496 714 q 543 636 543 668 q 519 579 543 603 q 464 556 496 556 m 726 556 q 671 579 694 556 q 647 636 647 603 q 671 691 647 668 q 726 714 694 714 q 782 691 758 714 q 806 636 806 668 q 782 579 806 603 q 726 556 758 556 m 332 303 q 426 453 356 397 q 594 510 496 510 q 765 453 694 510 q 857 303 835 397 l 729 303 q 679 370 714 346 q 594 394 644 394 q 510 370 546 394 q 460 303 475 346 l 332 303 z "},"☺":{"ha":1181,"x_min":44,"x_max":1136,"o":"m 590 -50 q 378 -8 476 -50 q 204 110 279 35 q 87 284 129 185 q 44 497 44 383 q 87 709 44 610 q 204 883 129 808 q 378 999 279 957 q 590 1042 476 1042 q 802 999 703 1042 q 976 883 901 957 q 1094 709 1051 808 q 1136 497 1136 610 q 1094 284 1136 383 q 976 110 1051 185 q 802 -8 901 35 q 590 -50 703 -50 m 590 78 q 752 110 676 78 q 885 201 828 143 q 976 334 943 258 q 1008 497 1008 410 q 976 659 1008 583 q 885 792 943 735 q 752 881 828 849 q 590 914 676 914 q 428 881 504 914 q 295 792 353 849 q 205 659 238 735 q 172 497 172 583 q 205 334 172 410 q 295 201 238 258 q 428 110 353 143 q 590 78 504 78 m 464 556 q 407 579 431 556 q 383 636 383 603 q 407 691 383 668 q 464 714 431 714 q 519 691 496 714 q 543 636 543 668 q 519 579 543 603 q 464 556 496 556 m 726 556 q 671 579 694 556 q 647 636 647 603 q 671 691 647 668 q 726 714 694 714 q 782 691 758 714 q 806 636 806 668 q 782 579 806 603 q 726 556 758 556 m 594 235 q 454 269 518 235 q 349 362 390 303 q 296 496 307 421 l 413 496 q 478 391 428 432 q 594 350 529 350 q 712 391 661 350 q 776 496 763 432 l 894 496 q 841 362 883 421 q 735 269 799 303 q 594 235 671 235 z "},"":{"ha":833,"x_min":11,"x_max":822,"o":"m 146 0 q 49 38 88 0 q 11 135 11 76 l 11 676 q 49 773 11 735 q 146 811 88 811 l 688 811 q 784 773 746 811 q 822 676 822 735 l 822 135 q 784 38 822 76 q 688 0 746 0 l 146 0 m 119 172 l 713 172 l 415 688 l 119 172 z "},"@":{"ha":1389,"x_min":56,"x_max":1333,"o":"m 990 -106 q 812 -160 899 -143 q 635 -178 725 -178 q 207 -43 358 -178 q 56 338 56 92 q 104 603 56 483 q 243 808 153 722 q 458 940 333 894 q 738 986 583 986 q 1049 925 915 986 q 1258 754 1183 864 q 1333 497 1333 644 q 1293 286 1333 374 q 1181 152 1253 199 q 1015 106 1110 106 q 896 133 943 106 q 828 210 849 161 q 734 128 793 158 q 615 97 675 97 q 431 167 497 97 q 364 361 364 238 q 399 537 364 461 q 499 656 435 613 q 644 699 563 699 q 746 681 701 699 q 818 631 790 663 l 824 686 l 1018 686 l 990 424 q 985 359 988 390 q 982 306 982 328 q 1000 265 982 281 q 1046 250 1018 250 q 1144 307 1108 250 q 1181 472 1181 364 q 1069 755 1181 663 q 729 847 958 847 q 458 785 575 847 q 274 612 340 724 q 208 350 208 500 q 322 64 208 167 q 640 -39 435 -39 q 800 -26 729 -39 q 953 22 871 -12 l 990 -106 m 676 264 q 758 306 726 264 q 789 415 789 349 q 765 501 789 471 q 699 532 742 532 q 617 490 649 532 q 586 379 586 447 q 610 294 586 325 q 676 264 633 264 z "},"&":{"ha":1068,"x_min":46,"x_max":1050,"o":"m 431 -22 q 142 47 238 -22 q 46 244 46 115 q 97 407 46 339 q 258 536 147 475 q 183 630 211 582 q 156 742 156 678 q 241 935 156 861 q 492 1008 326 1008 q 683 974 607 1008 q 798 883 760 940 q 836 756 836 825 q 781 604 836 663 q 618 492 725 546 l 728 361 q 754 464 751 399 l 1029 438 q 989 290 1021 361 q 906 164 957 219 l 1050 0 l 735 0 l 710 29 q 587 -8 663 7 q 431 -22 511 -22 m 483 639 q 542 681 522 660 q 561 731 561 701 q 544 774 561 758 q 497 790 528 790 q 448 773 465 790 q 431 728 431 756 q 442 687 431 707 q 483 639 454 667 m 450 206 q 533 222 504 206 l 396 386 q 325 283 325 346 q 359 227 325 249 q 450 206 393 206 z "},"¶":{"ha":979,"x_min":56,"x_max":893,"o":"m 324 0 l 324 432 q 184 467 244 432 q 90 563 124 501 q 56 703 56 624 q 96 852 56 789 q 209 951 136 915 q 379 986 282 986 l 893 986 l 893 0 l 657 0 l 657 792 l 560 792 l 560 0 l 324 0 z "},"§":{"ha":894,"x_min":69,"x_max":825,"o":"m 468 -93 q 184 -25 288 -93 q 69 163 81 43 l 340 175 q 458 82 357 82 q 522 99 497 82 q 546 142 546 115 q 507 192 546 171 q 363 232 468 214 q 147 317 213 260 q 89 472 82 375 q 116 553 92 517 q 189 617 140 590 q 110 685 133 647 q 86 769 86 722 q 183 947 86 885 q 456 1008 279 1008 q 708 940 610 1008 q 825 747 807 872 l 557 739 q 522 811 551 785 q 450 838 493 838 q 388 819 411 838 q 365 769 365 801 q 393 719 365 738 q 474 694 421 701 q 656 652 578 681 q 776 576 733 624 q 819 453 819 528 q 794 363 819 401 q 715 299 769 324 q 799 231 774 269 q 824 139 824 192 q 729 -33 824 26 q 468 -93 635 -93 m 457 381 q 536 401 506 381 q 567 457 567 422 q 548 502 567 485 q 502 528 529 519 q 447 538 475 538 q 372 517 400 538 q 343 464 343 497 q 372 407 343 429 q 457 381 401 385 z "},"©":{"ha":1136,"x_min":56,"x_max":1081,"o":"m 568 -17 q 369 23 463 -17 q 206 133 276 63 q 95 297 135 204 q 56 497 56 390 q 95 695 56 603 q 206 858 135 788 q 369 969 276 929 q 568 1008 463 1008 q 767 969 675 1008 q 931 858 860 929 q 1041 695 1001 788 q 1081 497 1081 603 q 1041 297 1081 390 q 931 133 1001 204 q 767 23 860 63 q 568 -17 675 -17 m 568 122 q 710 151 643 122 q 829 232 778 181 q 910 351 881 283 q 939 497 939 419 q 910 642 939 575 q 829 760 881 710 q 710 840 778 811 q 568 869 643 869 q 426 840 493 869 q 308 760 360 811 q 226 642 256 710 q 197 497 197 575 q 226 351 197 419 q 308 232 256 283 q 426 151 360 181 q 568 122 493 122 m 574 228 q 434 262 494 228 q 340 356 374 296 q 306 497 306 417 q 340 640 306 579 q 434 733 374 700 q 574 767 494 767 q 753 705 681 767 q 835 544 825 643 l 658 538 q 574 632 646 632 q 482 497 482 632 q 506 399 482 433 q 574 364 531 364 q 660 460 650 364 l 838 454 q 757 290 829 353 q 574 228 685 228 z "},"®":{"ha":914,"x_min":56,"x_max":858,"o":"m 457 206 q 301 237 374 206 q 173 323 228 268 q 87 451 118 378 q 56 608 56 525 q 87 764 56 692 q 173 891 118 836 q 301 977 228 946 q 457 1008 374 1008 q 613 977 540 1008 q 741 891 686 946 q 827 764 796 836 q 858 608 858 692 q 827 451 858 525 q 741 323 796 378 q 613 237 686 268 q 457 206 540 206 m 457 303 q 608 344 540 303 q 715 456 675 386 q 756 608 756 526 q 715 759 756 690 q 608 869 675 828 q 457 911 540 911 q 308 869 376 911 q 199 759 240 828 q 158 608 158 690 q 199 456 158 526 q 308 344 240 386 q 457 303 376 303 m 286 403 l 286 819 l 472 819 q 599 781 550 819 q 647 682 647 743 q 628 610 647 643 q 572 563 610 578 l 653 403 l 513 403 l 449 542 l 417 542 l 417 403 l 286 403 m 414 639 l 449 639 q 492 647 475 639 q 510 676 510 654 q 492 707 510 699 q 449 715 475 715 l 414 715 l 414 639 z "},"℗":{"ha":914,"x_min":56,"x_max":858,"o":"m 457 206 q 301 237 374 206 q 173 323 228 268 q 87 451 118 378 q 56 608 56 525 q 87 764 56 692 q 173 891 118 836 q 301 977 228 946 q 457 1008 374 1008 q 613 977 540 1008 q 741 891 686 946 q 827 764 796 836 q 858 608 858 692 q 827 451 858 525 q 741 323 796 378 q 613 237 686 268 q 457 206 540 206 m 457 303 q 608 344 540 303 q 715 456 675 386 q 756 608 756 526 q 715 759 756 690 q 608 869 675 828 q 457 911 540 911 q 308 869 376 911 q 199 759 240 828 q 158 608 158 690 q 199 456 158 526 q 308 344 240 386 q 457 303 376 303 m 300 403 l 300 819 l 486 819 q 618 781 575 819 q 661 682 661 743 q 618 582 661 622 q 486 542 575 542 l 431 542 l 431 403 l 300 403 m 428 639 l 463 639 q 506 647 489 639 q 524 676 524 654 q 506 707 524 699 q 463 715 489 715 l 428 715 l 428 639 z "},"™":{"ha":1278,"x_min":86,"x_max":1192,"o":"m 564 499 l 564 986 l 761 986 l 878 667 l 996 986 l 1192 986 l 1192 499 l 1035 499 l 1035 750 l 940 499 l 815 499 l 721 732 l 721 499 l 564 499 m 211 499 l 211 840 l 86 840 l 86 986 l 506 986 l 506 840 l 381 840 l 381 499 l 211 499 z "},"°":{"ha":617,"x_min":44,"x_max":572,"o":"m 308 481 q 177 515 238 481 q 81 610 117 550 q 44 744 44 671 q 81 878 44 818 q 177 973 117 938 q 308 1008 238 1008 q 440 973 381 1008 q 536 878 500 938 q 572 744 572 818 q 536 610 572 669 q 440 515 500 550 q 308 481 381 481 m 308 653 q 374 678 347 653 q 400 744 400 704 q 374 810 400 785 q 308 836 347 836 q 244 810 272 836 q 217 744 217 783 q 244 679 217 706 q 308 653 272 653 z "},"′":{"ha":394,"x_min":56,"x_max":339,"o":"m 56 653 l 103 986 l 339 986 l 269 653 l 56 653 z "},"″":{"ha":700,"x_min":56,"x_max":644,"o":"m 56 653 l 103 986 l 339 986 l 269 653 l 56 653 m 361 653 l 408 986 l 644 986 l 575 653 l 361 653 z "},"|":{"ha":436,"x_min":86,"x_max":350,"o":"m 86 -153 l 86 1042 l 350 1042 l 350 -153 l 86 -153 z "},"¦":{"ha":436,"x_min":86,"x_max":350,"o":"m 86 549 l 86 1042 l 350 1042 l 350 549 l 86 549 m 86 -153 l 86 340 l 350 340 l 350 -153 l 86 -153 z "},"†":{"ha":817,"x_min":86,"x_max":731,"o":"m 283 0 l 283 556 l 86 556 l 86 750 l 283 750 l 283 986 l 533 986 l 533 750 l 731 750 l 731 556 l 533 556 l 533 0 l 283 0 z "},"‡":{"ha":817,"x_min":86,"x_max":731,"o":"m 86 233 l 86 428 l 283 428 l 283 556 l 86 556 l 86 750 l 283 750 l 283 986 l 533 986 l 533 750 l 731 750 l 731 556 l 533 556 l 533 428 l 731 428 l 731 233 l 533 233 l 533 0 l 283 0 l 283 233 l 86 233 z "},"№":{"ha":1638,"x_min":86,"x_max":1551,"o":"m 86 0 l 86 986 l 361 986 l 690 431 l 690 986 l 963 986 l 963 0 l 688 0 l 358 528 l 358 0 l 86 0 m 1285 244 q 1090 311 1161 244 q 1018 488 1018 378 q 1089 664 1018 597 q 1285 731 1160 731 q 1481 664 1410 731 q 1551 488 1551 597 q 1480 311 1551 378 q 1285 244 1408 244 m 1285 369 q 1360 488 1360 369 q 1285 606 1360 606 q 1210 488 1210 606 q 1285 369 1210 369 m 1060 0 l 1060 167 l 1510 167 l 1510 0 l 1060 0 z "},"␌":{"ha":833,"x_min":100,"x_max":743,"o":"m 100 417 l 100 875 l 393 875 l 393 786 l 200 786 l 200 681 l 381 681 l 381 592 l 200 592 l 200 417 l 100 417 m 450 99 l 450 557 l 743 557 l 743 468 l 550 468 l 550 363 l 731 363 l 731 274 l 550 274 l 550 99 l 450 99 z "},"⏎":{"ha":1306,"x_min":56,"x_max":1250,"o":"m 628 -156 l 56 419 l 628 992 l 628 667 l 754 667 l 754 986 l 1250 986 l 1250 172 l 628 172 l 628 -156 m 488 215 l 488 342 l 1079 342 l 1079 815 l 925 815 l 925 497 l 488 497 l 488 622 l 285 419 l 488 215 z "},"␋":{"ha":833,"x_min":63,"x_max":761,"o":"m 203 417 l 63 875 l 157 875 l 250 558 l 343 875 l 438 875 l 297 417 l 203 417 m 549 99 l 549 468 l 426 468 l 426 557 l 761 557 l 761 468 l 639 468 l 639 99 l 549 99 z "},"¢":{"ha":878,"x_min":44,"x_max":847,"o":"m 353 -17 l 364 110 q 131 237 217 135 q 44 494 44 339 q 92 695 44 608 q 227 832 140 782 q 429 886 314 882 l 440 1008 l 551 1008 l 540 879 q 751 776 668 857 q 847 571 835 696 l 571 560 q 522 667 561 633 l 492 303 q 544 345 524 314 q 571 432 565 376 l 847 424 q 790 258 839 329 q 660 147 742 188 q 474 103 579 107 l 464 -17 l 353 -17 m 321 494 q 382 318 321 364 l 413 686 q 321 494 321 657 z "}}}
